<?xml version="1.0" encoding="UTF-8" standalone="no"?>
<svg height="412.34534" viewBox="0 0 707.28534 412.34534" width="707.28534" xmlns="http://www.w3.org/2000/svg" xmlns:xlink="http://www.w3.org/1999/xlink">
<metadata>
<rdf:RDF xmlns:rdf="http://www.w3.org/1999/02/22-rdf-syntax-ns#" xmlns:cc="http://creativecommons.org/ns#" xmlns:dc="http://purl.org/dc/elements/1.1/" xmlns:xmpRights="http://ns.adobe.com/xap/1.0/rights/">
<rdf:Description>
<cc:attributionName>John Neffenger</cc:attributionName>
<cc:license rdf:resource="http://creativecommons.org/licenses/by-sa/4.0/"/>
<dc:title>JavaFX FramebufferY8 Benchmarks</dc:title>
<xmpRights:Marked>True</xmpRights:Marked>
<xmpRights:UsageTerms>This work is licensed under a Creative Commons Attribution-ShareAlike 4.0 International License.</xmpRights:UsageTerms>
<xmpRights:WebStatement rdf:resource="https://github.com/jgneff/framebufferY8"/>
</rdf:Description>
</rdf:RDF>
</metadata>
<clipPath id="a">
<path d="m0 24.9224h432.00471v-216.00089h-432.00471z"/>
</clipPath>
<g transform="matrix(1.3333333 0 0 -1.3333333 118.0613303818 97.6506712007)">
<path d="m0 24.9224v-4.25225m42.22896 4.25225v-4.25225m42.22897 4.25225v-4.25225m42.22896 4.25225v-4.25225m42.22897 4.25225v-4.25225m42.22898 4.25225v-4.25225m42.22896 4.25225v-4.25225m42.22897 4.25225v-4.25225m42.22897 4.25225v-4.25225m42.22896 4.25225v-4.25225m42.22897 4.25225v-4.25225m-422.28967-211.74864v4.25223m42.22896-4.25223v4.25223m42.22897-4.25223v4.25223m42.22896-4.25223v4.25223m42.22897-4.25223v4.25223m42.22898-4.25223v4.25223m42.22896-4.25223v4.25223m42.22897-4.25223v4.25223m42.22897-4.25223v4.25223m42.22896-4.25223v4.25223m42.22897-4.25223v4.25223" fill="none" stroke="#808080" stroke-miterlimit="10" stroke-width=".19925"/>
<path d="m-4.2524 0h4.2524m-4.2524-55.38536h4.2524m-4.2524-55.38536h4.2524m-4.2524-55.38538h4.2524" fill="none" stroke="#808080" stroke-miterlimit="10" stroke-width=".19925"/>
<path d="m0 24.9224v-216.00089h432.00471v216.00089z" fill="none" stroke="#000" stroke-miterlimit="10" stroke-width=".3985"/>
<g font-family="Arimo,Liberation Sans,Arial,sans-serif" font-size="11.95517">
<text transform="matrix(1 0 0 -1 -3.324 -203.607)"><tspan x="0" y="0">0</tspan></text>
<text transform="matrix(1 0 0 -1 38.904 -203.607)"><tspan x="0" y="0">2</tspan></text>
<text transform="matrix(1 0 0 -1 81.132 -203.485)"><tspan x="0" y="0">4</tspan></text>
<text transform="matrix(1 0 0 -1 123.361 -203.607)"><tspan x="0" y="0">6</tspan></text>
<text transform="matrix(1 0 0 -1 165.589 -203.607)"><tspan x="0" y="0">8</tspan></text>
<text transform="matrix(1 0 0 -1 204.493 -203.607)"><tspan x="0 6.649466" y="0">10</tspan></text>
<text transform="matrix(1 0 0 -1 246.722 -203.607)"><tspan x="0 6.649466" y="0">12</tspan></text>
<text transform="matrix(1 0 0 -1 288.95 -203.485)"><tspan x="0 6.649466" y="0">14</tspan></text>
<text transform="matrix(1 0 0 -1 331.179 -203.607)"><tspan x="0 6.649466" y="0">16</tspan></text>
<text transform="matrix(1 0 0 -1 373.407 -203.607)"><tspan x="0 6.649466" y="0">18</tspan></text>
<text transform="matrix(1 0 0 -1 415.635 -203.607)"><tspan x="0 6.649466" y="0">20</tspan></text>
<text transform="matrix(1 0 0 -1 -74.674 -3.091)"><tspan x="0 7.974098 14.623564 21.273029 27.922495 31.243641 37.221226 45.855251 53.82935 59.594131" y="0">AdoptJDK11</tspan></text>
<text transform="matrix(1 0 0 -1 -75.561 -58.475)"><tspan x="0 7.974098 14.623564 21.273029 27.922495 31.243641 37.221226 45.855251 53.82935 60.478813" y="0">AdoptJDK12</tspan></text>
<text transform="matrix(1 0 0 -1 -75.561 -113.86)"><tspan x="0 7.974098 14.623564 21.273029 27.922495 31.243641 37.221226 45.855251 53.82935 60.478813" y="0">AdoptJDK13</tspan></text>
<text transform="matrix(1 0 0 -1 -75.561 -169.245)"><tspan x="0 7.974098 14.623564 21.273029 27.922495 31.243641 37.221226 45.855251 53.82935 60.478813" y="0">AdoptJDK14</tspan></text>
</g>
<g clip-path="url(#a)" stroke="#000" stroke-miterlimit="10" stroke-width=".3985">
<path d="m0-10.95905h273.517v9.96277h-273.517zm0-55.38535h285.40446v9.96277h-285.40446zm0-55.38537h74.19627v9.96277h-74.19627zm0-55.38537h213.34071v9.96277h-213.34071z" fill="#b2df8a"/>
<path d="m273.517-5.97766h45.58615" fill="#b2df8a"/>
<path d="m0 1.99255v-3.9851" fill="none" transform="translate(319.099 -5.977)"/>
<path d="m273.517-5.97766h-45.58617" fill="#b2df8a"/>
<path d="m0 1.99255v-3.9851" fill="none" transform="matrix(-1 0 0 -1 227.928 -5.978)"/>
<path d="m285.40446-61.36302h48.07766" fill="#b2df8a"/>
<path d="m0 1.99255v-3.9851" fill="none" transform="translate(333.478 -61.362)"/>
<path d="m285.40446-61.36302h-48.07766" fill="#b2df8a"/>
<path d="m0 1.99255v-3.9851" fill="none" transform="matrix(-1 0 0 -1 237.324 -61.363)"/>
<path d="m74.19627-116.74838h11.31737" fill="#b2df8a"/>
<path d="m0 1.99255v-3.9851" fill="none" transform="translate(85.513 -116.747)"/>
<path d="m74.19627-116.74838h-11.31735" fill="#b2df8a"/>
<path d="m0 1.99255v-3.9851" fill="none" transform="matrix(-1 0 0 -1 62.878 -116.746)"/>
<path d="m213.34071-172.13376h54.93987" fill="#b2df8a"/>
<path d="m0 1.99255v-3.9851" fill="none" transform="translate(268.277 -172.131)"/>
<path d="m213.34071-172.13376h-54.93986" fill="#b2df8a"/>
<path d="m0 1.99255v-3.9851" fill="none" transform="matrix(-1 0 0 -1 158.399 -172.132)"/>
<path d="m0 .99628h370.77032v9.96277h-370.77032zm0-55.38536h193.40866v9.96277h-193.40866zm0-55.38536h110.9566v9.96277h-110.9566zm0-55.38538h325.94426v9.96277h-325.94426z" fill="#33a02c"/>
<path d="m370.77032 5.97766h21.95907" fill="#33a02c"/>
<path d="m0 1.99255v-3.9851" fill="none" transform="translate(392.724 5.978)"/>
<path d="m370.77032 5.97766h-21.95904" fill="#33a02c"/>
<path d="m0 1.99255v-3.9851" fill="none" transform="matrix(-1 0 0 -1 348.807 5.977)"/>
<path d="m193.40866-49.4077h1.96365" fill="#33a02c"/>
<path d="m0 1.99255v-3.9851" fill="none" transform="translate(195.37 -49.407)"/>
<path d="m193.40866-49.4077h-1.96366" fill="#33a02c"/>
<path d="m0 1.99255v-3.9851" fill="none" transform="matrix(-1 0 0 -1 191.443 -49.406)"/>
<path d="m110.9566-104.79306h18.13733" fill="#33a02c"/>
<path d="m0 1.99255v-3.9851" fill="none" transform="translate(129.092 -104.792)"/>
<path d="m110.9566-104.79306h-18.13733" fill="#33a02c"/>
<path d="m0 1.99255v-3.9851" fill="none" transform="matrix(-1 0 0 -1 92.818 -104.792)"/>
<path d="m325.94426-160.17844h15.68805" fill="#33a02c"/>
<path d="m0 1.99255v-3.9851" fill="none" transform="translate(341.628 -160.176)"/>
<path d="m325.94426-160.17844h-15.68805" fill="#33a02c"/>
<path d="m0 1.99255v-3.9851" fill="none" transform="matrix(-1 0 0 -1 310.252 -160.177)"/>
</g>
</g>
<g font-family="Arimo,Liberation Sans,Arial,sans-serif">
<text font-size="11.95517" transform="matrix(1.3333333 0 0 1.3333333 291.7666593725 391.7239971822)"><tspan x="0 7.302218 13.951683 17.932755 24.58222 31.231686 37.881153 44.530617 51.180084 57.829548 64.46228 68.443352 71.764496 75.745567 82.395035 92.353691 99.003151 108.30428 114.95374 121.60321 128.90782 134.88541 141.53487 147.51245 154.16191 160.81139 167.46085" y="0">Throughput(framespersecond)</tspan></text>
<text font-size="11.95517" transform="matrix(1.3333333 0 0 1.3333333 238.6106607014 28.8626729204)"><tspan x="0 5.977585 12.62705 19.276516 25.254101 31.241251 37.890717 44.528225 51.177692 59.811714 66.461182 75.095207 78.416351 87.71508 90.371521 100.33257 106.98203 113.6315 117.61257 124.26204 126.91847 133.56316 137.54424 145.51833 154.15236 163.45108 171.42519 178.07465 188.04765 191.36879 201.32985 209.96387 219.2626 227.23669 233.88617 240.53563 247.18509" y="0">copyTo16New/Old16-bit(ARGB32toRGB565)</tspan></text>
<text font-size="10.90909" transform="matrix(1.3333333 0 0 1.3333333 210.4426614056 48.1240057722)"><tspan x="0 8.48509 15.761454 24.848724 35.749088 41.816723 45.449451 54.536724 59.991268 66.058907 71.515633 76.970177 79.394173 83.026901 86.057449 92.125084 98.192719 103.64944 112.73672 118.80435 124.2589 130.32654 132.75053 138.81818 147.90762 155.78616 158.21017 161.24071 170.34108 179.44144 187.31998 194.59634 205.50761 211.57526 217.6429 226.73235 235.8327 244.31779 246.74179 257.05087 263.11853 269.18179 277.06033 284.3367" y="0">QEMUarmv7lvirtualmachinewith1CPUand1GiBofRAM</tspan></text>
</g>
<path d="m304.44287-136.87901h105.76103v32.86765h-105.76103z" fill="none" stroke="#000" stroke-miterlimit="10" stroke-width=".3985" transform="matrix(1.3333333 0 0 -1.3333333 118.0613303818 97.6506712007)"/>
<path d="m0-3.88544h9.56429v2.98883h-9.56429zm0 5.97765h7.17326v2.98883h-7.17326z" fill="#33a02c" stroke="#000" stroke-miterlimit="10" stroke-width=".3985" transform="matrix(1.3333333 0 0 -1.3333333 528.2306534609 248.6146674266)"/>
<text font-family="Arimo,Liberation Sans,Arial,sans-serif" font-size="11.95517" transform="matrix(1.3333333 0 0 1.3333333 552.3266528585 253.1946673121)"><tspan x="0 7.302218 11.28329 17.932755 27.891411 34.540878 41.190342 47.839809 50.945763 54.266907 60.916374 64.897446 72.871544" y="0">FramebufferY8</tspan></text>
<path d="m0-3.88544h9.56429v2.98883h-9.56429zm0 5.97765h7.17326v2.98883h-7.17326z" fill="#b2df8a" stroke="#000" stroke-miterlimit="10" stroke-width=".3985" transform="matrix(1.3333333 0 0 -1.3333333 528.2306534609 267.8693336119)"/>
<text font-family="Arimo,Liberation Sans,Arial,sans-serif" font-size="11.95517" transform="matrix(1.3333333 0 0 1.3333333 552.3266528585 272.4493334974)"><tspan x="0 7.302218 11.28329 17.932755 27.891411 34.540878 41.190342 47.839809 50.945763 54.266907 60.916374" y="0">Framebuffer</tspan></text>
</svg>
