<?xml version="1.0" encoding="UTF-8"?>
<svg height="412.34534" viewBox="0 0 709.08801 412.34534" width="709.08801" xmlns="http://www.w3.org/2000/svg" xmlns:xlink="http://www.w3.org/1999/xlink">
<metadata>
<rdf:RDF xmlns:rdf="http://www.w3.org/1999/02/22-rdf-syntax-ns#" xmlns:cc="http://creativecommons.org/ns#" xmlns:dc="http://purl.org/dc/elements/1.1/" xmlns:xmpRights="http://ns.adobe.com/xap/1.0/rights/">
<rdf:Description>
<cc:attributionName>John Neffenger</cc:attributionName>
<cc:license rdf:resource="http://creativecommons.org/licenses/by-sa/4.0/"/>
<dc:title>JavaFX FramebufferY8 Benchmarks</dc:title>
<xmpRights:Marked>True</xmpRights:Marked>
<xmpRights:UsageTerms>This work is licensed under a Creative Commons Attribution-ShareAlike 4.0 International License.</xmpRights:UsageTerms>
<xmpRights:WebStatement rdf:resource="https://github.com/jgneff/framebufferY8"/>
</rdf:Description>
</rdf:RDF>
</metadata>
<clipPath id="a">
<path d="m0 24.9224h432.00632v-216.00089h-432.00632z"/>
</clipPath>
<g transform="matrix(1.3333333 0 0 -1.3333333 118.0599970485 97.6506712007)">
<path d="m0 24.9224v-4.25225m47.0714 4.25225v-4.25225m47.0714 4.25225v-4.25225m47.0714 4.25225v-4.25225m47.07141 4.25225v-4.25225m47.07142 4.25225v-4.25225m47.07139 4.25225v-4.25225m47.07141 4.25225v-4.25225m47.07141 4.25225v-4.25225m47.0714 4.25225v-4.25225m-423.64264-211.74864v4.25223m47.0714-4.25223v4.25223m47.0714-4.25223v4.25223m47.0714-4.25223v4.25223m47.07141-4.25223v4.25223m47.07142-4.25223v4.25223m47.07139-4.25223v4.25223m47.07141-4.25223v4.25223m47.07141-4.25223v4.25223m47.0714-4.25223v4.25223" fill="none" stroke="#808080" stroke-miterlimit="10" stroke-width=".19925"/>
<path d="m-4.2518 0h4.2518m-4.2518-55.38536h4.2518m-4.2518-55.38536h4.2518m-4.2518-55.38538h4.2518" fill="none" stroke="#808080" stroke-miterlimit="10" stroke-width=".19925"/>
<path d="m0 24.9224v-216.00089h432.00632v216.00089z" fill="none" stroke="#000" stroke-miterlimit="10" stroke-width=".3985"/>
<g font-family="Arimo,Liberation Sans,Arial,sans-serif" font-size="11.95517">
<text transform="matrix(1 0 0 -1 -3.324 -203.607)"><tspan x="0" y="0">0</tspan></text>
<text transform="matrix(1 0 0 -1 40.422 -203.607)"><tspan x="0 6.649466" y="0">10</tspan></text>
<text transform="matrix(1 0 0 -1 87.493 -203.607)"><tspan x="0 6.649466" y="0">20</tspan></text>
<text transform="matrix(1 0 0 -1 134.564 -203.607)"><tspan x="0 6.649466" y="0">30</tspan></text>
<text transform="matrix(1 0 0 -1 181.635 -203.607)"><tspan x="0 6.649466" y="0">40</tspan></text>
<text transform="matrix(1 0 0 -1 228.706 -203.607)"><tspan x="0 6.649466" y="0">50</tspan></text>
<text transform="matrix(1 0 0 -1 275.776 -203.607)"><tspan x="0 6.649466" y="0">60</tspan></text>
<text transform="matrix(1 0 0 -1 322.847 -203.607)"><tspan x="0 6.649466" y="0">70</tspan></text>
<text transform="matrix(1 0 0 -1 369.918 -203.607)"><tspan x="0 6.649466" y="0">80</tspan></text>
<text transform="matrix(1 0 0 -1 416.989 -203.607)"><tspan x="0 6.649466" y="0">90</tspan></text>
<text transform="matrix(1 0 0 -1 -74.673 -3.091)"><tspan x="0 7.974098 14.623564 21.273029 27.922495 31.243641 37.221226 45.855251 53.82935 59.594131" y="0">AdoptJDK11</tspan></text>
<text transform="matrix(1 0 0 -1 -75.56 -58.475)"><tspan x="0 7.974098 14.623564 21.273029 27.922495 31.243641 37.221226 45.855251 53.82935 60.478813" y="0">AdoptJDK12</tspan></text>
<text transform="matrix(1 0 0 -1 -75.56 -113.86)"><tspan x="0 7.974098 14.623564 21.273029 27.922495 31.243641 37.221226 45.855251 53.82935 60.478813" y="0">AdoptJDK13</tspan></text>
<text transform="matrix(1 0 0 -1 -75.56 -169.245)"><tspan x="0 7.974098 14.623564 21.273029 27.922495 31.243641 37.221226 45.855251 53.82935 60.478813" y="0">AdoptJDK14</tspan></text>
</g>
<g clip-path="url(#a)" stroke="#000" stroke-miterlimit="10" stroke-width=".3985">
<path d="m0-10.95905h384.02734v9.96277h-384.02734zm0-55.38535h326.2472v9.96277h-326.2472zm0-55.38537h108.0524v9.96277h-108.0524zm0-55.38537h343.29175v9.96277h-343.29175z" fill="#b2df8a"/>
<path d="m384.02734-5.97766h8.70349" fill="#b2df8a"/>
<path d="m0 1.99255v-3.9851" fill="none" transform="translate(392.726 -5.977)"/>
<path d="m384.02734-5.97766h-8.7035" fill="#b2df8a"/>
<path d="m0 1.99255v-3.9851" fill="none" transform="matrix(-1 0 0 -1 375.319 -5.978)"/>
<path d="m326.2472-61.36302h10.94408" fill="#b2df8a"/>
<path d="m0 1.99255v-3.9851" fill="none" transform="translate(337.187 -61.362)"/>
<path d="m326.2472-61.36302h-10.94411" fill="#b2df8a"/>
<path d="m0 1.99255v-3.9851" fill="none" transform="matrix(-1 0 0 -1 315.3 -61.363)"/>
<path d="m108.0524-116.74838h1.92522" fill="#b2df8a"/>
<path d="m0 1.99255v-3.9851" fill="none" transform="translate(109.977 -116.747)"/>
<path d="m108.0524-116.74838h-1.92522" fill="#b2df8a"/>
<path d="m0 1.99255v-3.9851" fill="none" transform="matrix(-1 0 0 -1 106.126 -116.746)"/>
<path d="m343.29175-172.13376h4.89071" fill="#b2df8a"/>
<path d="m0 1.99255v-3.9851" fill="none" transform="translate(348.178 -172.131)"/>
<path d="m343.29175-172.13376h-4.89072" fill="#b2df8a"/>
<path d="m0 1.99255v-3.9851" fill="none" transform="matrix(-1 0 0 -1 338.397 -172.132)"/>
<path d="m0 .99628h370.14128v9.96277h-370.14128zm0-55.38536h334.60236v9.96277h-334.60236zm0-55.38536h101.80132v9.96277h-101.80132zm0-55.38538h350.55486v9.96277h-350.55486z" fill="#33a02c"/>
<path d="m370.14128 5.97766h12.97287" fill="#33a02c"/>
<path d="m0 1.99255v-3.9851" fill="none" transform="translate(383.11 5.978)"/>
<path d="m370.14128 5.97766h-12.97288" fill="#33a02c"/>
<path d="m0 1.99255v-3.9851" fill="none" transform="matrix(-1 0 0 -1 357.164 5.977)"/>
<path d="m334.60236-49.4077h17.84948" fill="#33a02c"/>
<path d="m0 1.99255v-3.9851" fill="none" transform="translate(352.448 -49.407)"/>
<path d="m334.60236-49.4077h-17.84948" fill="#33a02c"/>
<path d="m0 1.99255v-3.9851" fill="none" transform="matrix(-1 0 0 -1 316.749 -49.406)"/>
<path d="m101.80132-104.79306h2.25943" fill="#33a02c"/>
<path d="m0 1.99255v-3.9851" fill="none" transform="translate(104.06 -104.792)"/>
<path d="m101.80132-104.79306h-2.25942" fill="#33a02c"/>
<path d="m0 1.99255v-3.9851" fill="none" transform="matrix(-1 0 0 -1 99.541 -104.792)"/>
<path d="m350.55486-160.17844h10.0827" fill="#33a02c"/>
<path d="m0 1.99255v-3.9851" fill="none" transform="translate(360.633 -160.176)"/>
<path d="m350.55486-160.17844h-10.08269" fill="#33a02c"/>
<path d="m0 1.99255v-3.9851" fill="none" transform="matrix(-1 0 0 -1 340.468 -160.177)"/>
</g>
</g>
<g font-family="Arimo,Liberation Sans,Arial,sans-serif">
<text font-size="11.95517" transform="matrix(1.3333333 0 0 1.3333333 291.7666593725 391.7239971822)"><tspan x="0 7.302218 13.951683 17.932755 24.58222 31.231686 37.881153 44.530617 51.180084 57.829548 64.46228 68.443352 71.764496 75.745567 82.395035 92.353691 99.003151 108.30428 114.95374 121.60321 128.90782 134.88541 141.53487 147.51245 154.16191 160.81139 167.46085" y="0">Throughput(framespersecond)</tspan></text>
<text font-size="11.95517" transform="matrix(1.3333333 0 0 1.3333333 237.7346607233 28.8626729204)"><tspan x="0 8.634024 12.615095 15.271534 18.59268 25.242146 31.229296 37.878761 44.528225 51.165737 59.799759 66.449226 75.083252 78.404396 87.703125 90.359566 100.32061 106.97008 113.61954 117.60062 124.25008 126.90652 133.55121 137.53227 145.50638 154.1404 163.43913 171.41322 178.0627 188.03569 191.35684 201.32985 209.30394 217.93797 227.23669 235.2108 241.86026 248.50974" y="0">writeTo32New/Old32-bit(ARGB32toARGB32)</tspan></text>
<text font-size="10.90909" transform="matrix(1.3333333 0 0 1.3333333 210.4426614056 48.1240057722)"><tspan x="0 8.48509 15.761454 24.848724 35.749088 41.816723 45.449451 54.536724 59.991268 66.058907 71.515633 76.970177 79.394173 83.026901 86.057449 92.125084 98.192719 103.64944 112.73672 118.80435 124.2589 130.32654 132.75053 138.81818 147.90762 155.78616 158.21017 161.24071 170.34108 179.44144 187.31998 194.59634 205.50761 211.57526 217.6429 226.73235 235.8327 244.31779 246.74179 257.05087 263.11853 269.18179 277.06033 284.3367" y="0">QEMUarmv7lvirtualmachinewith1CPUand1GiBofRAM</tspan></text>
</g>
<path d="m304.44437-136.87901h105.76103v32.86765h-105.76103z" fill="none" stroke="#000" stroke-miterlimit="10" stroke-width=".3985" transform="matrix(1.3333333 0 0 -1.3333333 118.0599970485 97.6506712007)"/>
<path d="m0-3.88544h9.56429v2.98883h-9.56429zm0 5.97765h7.17326v2.98883h-7.17326z" fill="#33a02c" stroke="#000" stroke-miterlimit="10" stroke-width=".3985" transform="matrix(1.3333333 0 0 -1.3333333 528.2319867942 248.6146674266)"/>
<text font-family="Arimo,Liberation Sans,Arial,sans-serif" font-size="11.95517" transform="matrix(1.3333333 0 0 1.3333333 552.3279861918 253.1946673121)"><tspan x="0 7.302218 11.28329 17.932755 27.891411 34.540878 41.190342 47.839809 50.945763 54.266907 60.916374 64.897446 72.871544" y="0">FramebufferY8</tspan></text>
<path d="m0-3.88544h9.56429v2.98883h-9.56429zm0 5.97765h7.17326v2.98883h-7.17326z" fill="#b2df8a" stroke="#000" stroke-miterlimit="10" stroke-width=".3985" transform="matrix(1.3333333 0 0 -1.3333333 528.2319867942 267.8693336119)"/>
<text font-family="Arimo,Liberation Sans,Arial,sans-serif" font-size="11.95517" transform="matrix(1.3333333 0 0 1.3333333 552.3279861918 272.4493334974)"><tspan x="0 7.302218 11.28329 17.932755 27.891411 34.540878 41.190342 47.839809 50.945763 54.266907 60.916374" y="0">Framebuffer</tspan></text>
</svg>
