<?xml version="1.0" encoding="UTF-8" standalone="no"?>
<svg height="411.62534" viewBox="0 0 685.05865 411.62534" width="685.05865" xmlns="http://www.w3.org/2000/svg" xmlns:xlink="http://www.w3.org/1999/xlink">
<metadata>
<rdf:RDF xmlns:rdf="http://www.w3.org/1999/02/22-rdf-syntax-ns#" xmlns:cc="http://creativecommons.org/ns#" xmlns:dc="http://purl.org/dc/elements/1.1/" xmlns:xmpRights="http://ns.adobe.com/xap/1.0/rights/">
<rdf:Description>
<cc:attributionName>John Neffenger</cc:attributionName>
<cc:license rdf:resource="http://creativecommons.org/licenses/by-sa/4.0/"/>
<dc:title>JavaFX FramebufferY8 Benchmarks</dc:title>
<xmpRights:Marked>True</xmpRights:Marked>
<xmpRights:UsageTerms>This work is licensed under a Creative Commons Attribution-ShareAlike 4.0 International License.</xmpRights:UsageTerms>
<xmpRights:WebStatement rdf:resource="https://github.com/jgneff/framebufferY8"/>
</rdf:Description>
</rdf:RDF>
</metadata>
<clipPath id="a">
<path d="m0 24.92262h432.00241v-216.00287h-432.00241z"/>
</clipPath>
<g transform="matrix(1.3333333 0 0 -1.3333333 96.7973309134 95.0440045812)">
<path d="m0 24.92262v-4.25206m40.24571 4.25206v-4.25206m40.24571 4.25206v-4.25206m40.24573 4.25206v-4.25206m40.24571 4.25206v-4.25206m40.24572 4.25206v-4.25206m40.24572 4.25206v-4.25206m40.24572 4.25206v-4.25206m40.24571 4.25206v-4.25206m40.24573 4.25206v-4.25206m40.24571 4.25206v-4.25206m-402.45717-211.75081v4.25206m40.24571-4.25206v4.25206m40.24571-4.25206v4.25206m40.24573-4.25206v4.25206m40.24571-4.25206v4.25206m40.24572-4.25206v4.25206m40.24572-4.25206v4.25206m40.24572-4.25206v4.25206m40.24571-4.25206v4.25206m40.24573-4.25206v4.25206m40.24571-4.25206v4.25206" fill="none" stroke="#808080" stroke-miterlimit="10" stroke-width=".19925"/>
<path d="m-4.25198 0h4.25198m-4.25198-33.23152h4.25198m-4.25198-33.23152h4.25198m-4.25198-33.23152h4.25198m-4.25198-33.23153h4.25198m-4.25198-33.23153h4.25198" fill="none" stroke="#808080" stroke-miterlimit="10" stroke-width=".19925"/>
<path d="m0 24.92262v-216.00287h432.00241v216.00287z" fill="none" stroke="#000" stroke-miterlimit="10" stroke-width=".3985"/>
<g font-family="Arimo,Liberation Sans,Arial,sans-serif" font-size="11.95517">
<text transform="matrix(1 0 0 -1 -3.325 -203.61)"><tspan x="0" y="0">0</tspan></text>
<text transform="matrix(1 0 0 -1 30.272 -203.61)"><tspan x="0 6.649466 13.298931" y="0">200</tspan></text>
<text transform="matrix(1 0 0 -1 70.517 -203.61)"><tspan x="0 6.649466 13.298931" y="0">400</tspan></text>
<text transform="matrix(1 0 0 -1 110.762 -203.61)"><tspan x="0 6.649466 13.298931" y="0">600</tspan></text>
<text transform="matrix(1 0 0 -1 151.007 -203.61)"><tspan x="0 6.649466 13.298931" y="0">800</tspan></text>
<text transform="matrix(1 0 0 -1 186.267 -203.61)"><tspan x="0 6.649466 9.970612 16.620077 23.269543" y="0">1,000</tspan></text>
<text transform="matrix(1 0 0 -1 226.512 -203.61)"><tspan x="0 6.649466 9.970612 16.620077 23.269543" y="0">1,200</tspan></text>
<text transform="matrix(1 0 0 -1 266.757 -203.61)"><tspan x="0 6.649466 9.970612 16.620077 23.269543" y="0">1,400</tspan></text>
<text transform="matrix(1 0 0 -1 307.003 -203.61)"><tspan x="0 6.649466 9.970612 16.620077 23.269543" y="0">1,600</tspan></text>
<text transform="matrix(1 0 0 -1 347.248 -203.61)"><tspan x="0 6.649466 9.970612 16.620077 23.269543" y="0">1,800</tspan></text>
<text transform="matrix(1 0 0 -1 387.493 -203.61)"><tspan x="0 6.649466 9.970612 16.620077 23.269543" y="0">2,000</tspan></text>
<text transform="matrix(1 0 0 -1 -59.613 -2.934)"><tspan x="0 5.977585 12.62705 19.276516 25.254101 31.241251 37.878761 44.528225" y="0">copyTo08</tspan></text>
<text transform="matrix(1 0 0 -1 -59.613 -36.165)"><tspan x="0 5.977585 12.62705 19.276516 25.254101 31.241251 37.878761 44.528225" y="0">copyTo16</tspan></text>
<text transform="matrix(1 0 0 -1 -59.613 -69.396)"><tspan x="0 5.977585 12.62705 19.276516 25.254101 31.241251 37.878761 44.528225" y="0">copyTo32</tspan></text>
<text transform="matrix(1 0 0 -1 -59.602 -103.967)"><tspan x="0 8.634024 12.615095 15.271534 18.59268 25.242146 31.229296 37.878761 44.528225" y="0">writeTo08</tspan></text>
<text transform="matrix(1 0 0 -1 -59.602 -137.198)"><tspan x="0 8.634024 12.615095 15.271534 18.59268 25.242146 31.229296 37.878761 44.528225" y="0">writeTo16</tspan></text>
<text transform="matrix(1 0 0 -1 -59.602 -170.429)"><tspan x="0 8.634024 12.615095 15.271534 18.59268 25.242146 31.229296 37.878761 44.528225" y="0">writeTo32</tspan></text>
</g>
<g clip-path="url(#a)" stroke="#000" stroke-miterlimit="10" stroke-width=".3985">
<path d="m0-44.19057h24.98232v9.96277h-24.98232zm0-33.23152h390.41342v9.96277h-390.41342zm0-66.46304h23.458v9.96277h-23.458zm0-33.23154h266.52847v9.96277h-266.52847z" fill="#a6cee3"/>
<path d="m24.98232-39.20918h.0052" fill="#a6cee3"/>
<path d="m0 1.99255v-3.9851" fill="none" transform="translate(24.987 -39.209)"/>
<path d="m24.98232-39.20918h-.0052" fill="#a6cee3"/>
<path d="m0 1.99255v-3.9851" fill="none" transform="matrix(-1 0 0 -1 24.976 -39.21)"/>
<path d="m390.41342-72.4407h2.31389" fill="#a6cee3"/>
<path d="m0 1.99255v-3.9851" fill="none" transform="translate(392.722 -72.44)"/>
<path d="m390.41342-72.4407h-2.31392" fill="#a6cee3"/>
<path d="m0 1.99255v-3.9851" fill="none" transform="matrix(-1 0 0 -1 388.094 -72.441)"/>
<path d="m23.458-138.90375h.52119" fill="#a6cee3"/>
<path d="m0 1.99255v-3.9851" fill="none" transform="translate(23.979 -138.902)"/>
<path d="m23.458-138.90375h-.52116" fill="#a6cee3"/>
<path d="m0 1.99255v-3.9851" fill="none" transform="matrix(-1 0 0 -1 22.936 -138.903)"/>
<path d="m266.52847-172.13528h.40625" fill="#a6cee3"/>
<path d="m0 1.99255v-3.9851" fill="none" transform="translate(266.931 -172.133)"/>
<path d="m266.52847-172.13528h-.40626" fill="#a6cee3"/>
<path d="m0 1.99255v-3.9851" fill="none" transform="matrix(-1 0 0 -1 266.118 -172.134)"/>
<path d="m0 .99628h25.91339v9.96277h-25.91339zm0-33.23152h26.68309v9.96277h-26.68309zm0-33.23153h389.55318v9.96277h-389.55318zm0-33.23152h16.35342v9.96277h-16.35342zm0-33.23152h24.1947v9.96277h-24.1947zm0-33.23154h266.72906v9.96277h-266.72906z" fill="#1f78b4"/>
<path d="m25.91339 5.97766h.0081" fill="#1f78b4"/>
<path d="m0 1.99255v-3.9851" fill="none" transform="translate(25.921 5.977)"/>
<path d="m25.91339 5.97766h-.0081" fill="#1f78b4"/>
<path d="m0 1.99255v-3.9851" fill="none" transform="matrix(-1 0 0 -1 25.905 5.978)"/>
<path d="m26.68309-27.25386h.0038" fill="#1f78b4"/>
<path d="m0 1.99255v-3.9851" fill="none" transform="translate(26.686 -27.254)"/>
<path d="m26.68309-27.25386h-.0038" fill="#1f78b4"/>
<path d="m0 1.99255v-3.9851" fill="none" transform="matrix(-1 0 0 -1 26.679 -27.253)"/>
<path d="m389.55318-60.48538h1.67158" fill="#1f78b4"/>
<path d="m0 1.99255v-3.9851" fill="none" transform="translate(391.219 -60.485)"/>
<path d="m389.55318-60.48538h-1.67158" fill="#1f78b4"/>
<path d="m0 1.99255v-3.9851" fill="none" transform="matrix(-1 0 0 -1 387.876 -60.484)"/>
<path d="m16.35342-93.7169h.0034" fill="#1f78b4"/>
<path d="m0 1.99255v-3.9851" fill="none" transform="translate(16.356 -93.716)"/>
<path d="m16.35342-93.7169h-.0034" fill="#1f78b4"/>
<path d="m0 1.99255v-3.9851" fill="none" transform="matrix(-1 0 0 -1 16.349 -93.717)"/>
<path d="m24.1947-126.94843h.3757" fill="#1f78b4"/>
<path d="m0 1.99255v-3.9851" fill="none" transform="translate(24.57 -126.947)"/>
<path d="m24.1947-126.94843h-.37567" fill="#1f78b4"/>
<path d="m0 1.99255v-3.9851" fill="none" transform="matrix(-1 0 0 -1 23.818 -126.948)"/>
<path d="m266.72906-160.17996h.5109" fill="#1f78b4"/>
<path d="m0 1.99255v-3.9851" fill="none" transform="translate(267.236 -160.178)"/>
<path d="m266.72906-160.17996h-.51089" fill="#1f78b4"/>
<path d="m0 1.99255v-3.9851" fill="none" transform="matrix(-1 0 0 -1 266.214 -160.179)"/>
</g>
</g>
<g font-family="Arimo,Liberation Sans,Arial,sans-serif">
<text font-size="11.95517" transform="matrix(1.3333333 0 0 1.3333333 270.5013265708 391.0039971822)"><tspan x="0 7.302218 13.951683 17.932755 24.58222 31.231686 37.881153 44.530617 51.180084 57.829548 64.46228 68.443352 71.764496 75.745567 82.395035 92.353691 99.003151 108.30428 114.95374 121.60321 128.90782 134.88541 141.53487 147.51245 154.16191 160.81139 167.46085" y="0">Throughput(framespersecond)</tspan></text>
<text font-size="11.95517" transform="matrix(1.3333333 0 0 1.3333333 250.6839937329 28.8626729024)"><tspan x="0 8.634024 15.283489 21.932955 28.58242 31.903566 41.864613 51.163345 57.812813 64.46228 71.11174 77.089325 85.723351 97.020988 102.79772 112.74682 119.39629 129.36929 138.00331 144.65277 151.30225 157.95171 161.27286 171.24585 177.89532 184.54478 187.86594 194.5154" y="0">UbuntuOpenJDK11onUbuntu20.04</tspan></text>
<text font-size="10.90909" transform="matrix(1.3333333 0 0 1.3333333 179.8479955038 48.1240057542)"><tspan x="0 6.067636 9.098181 15.165817 24.25527 32.74036 40.618904 49.106178 52.136723 58.204357 61.234905 67.302544 72.75927 80.035629 86.103264 92.170898 101.27126 108.54763 112.18035 118.24799 123.70254 129.77017 135.22472 140.67926 146.7469 153.40144 160.67781 166.74544 170.37817 176.4458 182.51344 188.58107 197.68144 203.13599 212.23634 220.11488 222.53889 225.56944 234.65889 240.72653 249.82689 258.31198 260.73599 271.04507 277.1127 283.17596 291.05453 298.33087" y="0">3.30GHzIntelXeonProcessorE3-1225v5with16GiBofRAM</tspan></text>
</g>
<path d="m304.44066-18.94508h105.76103v32.86765h-105.76103z" fill="none" stroke="#000" stroke-miterlimit="10" stroke-width=".3985" transform="matrix(1.3333333 0 0 -1.3333333 96.7973309134 95.0440045812)"/>
<path d="m0-3.88544h9.56429v2.98883h-9.56429zm0 5.97765h7.17326v2.98883h-7.17326z" fill="#1f78b4" stroke="#000" stroke-miterlimit="10" stroke-width=".3985" transform="matrix(1.3333333 0 0 -1.3333333 506.9626539926 88.7653380715)"/>
<text font-family="Arimo,Liberation Sans,Arial,sans-serif" font-size="11.95517" transform="matrix(1.3333333 0 0 1.3333333 531.0599867235 93.345337957)"><tspan x="0 7.302218 11.28329 17.932755 27.891411 34.540878 41.190342 47.839809 50.945763 54.266907 60.916374 64.897446 72.871544" y="0">FramebufferY8</tspan></text>
<path d="m0-3.88544h9.56429v2.98883h-9.56429zm0 5.97765h7.17326v2.98883h-7.17326z" fill="#a6cee3" stroke="#000" stroke-miterlimit="10" stroke-width=".3985" transform="matrix(1.3333333 0 0 -1.3333333 506.9626539926 108.0200042568)"/>
<text font-family="Arimo,Liberation Sans,Arial,sans-serif" font-size="11.95517" transform="matrix(1.3333333 0 0 1.3333333 531.0599867235 112.6000041423)"><tspan x="0 7.302218 11.28329 17.932755 27.891411 34.540878 41.190342 47.839809 50.945763 54.266907 60.916374" y="0">Framebuffer</tspan></text>
</svg>
