<?xml version="1.0" encoding="UTF-8"?>
<svg height="411.62534" viewBox="0 0 685.06 411.62534" width="685.06" xmlns="http://www.w3.org/2000/svg" xmlns:xlink="http://www.w3.org/1999/xlink">
<metadata>
<rdf:RDF xmlns:rdf="http://www.w3.org/1999/02/22-rdf-syntax-ns#" xmlns:cc="http://creativecommons.org/ns#" xmlns:dc="http://purl.org/dc/elements/1.1/" xmlns:xmpRights="http://ns.adobe.com/xap/1.0/rights/">
<rdf:Description>
<cc:attributionName>John Neffenger</cc:attributionName>
<cc:license rdf:resource="http://creativecommons.org/licenses/by-sa/4.0/"/>
<dc:title>JavaFX FramebufferY8 Benchmarks</dc:title>
<xmpRights:Marked>True</xmpRights:Marked>
<xmpRights:UsageTerms>This work is licensed under a Creative Commons Attribution-ShareAlike 4.0 International License.</xmpRights:UsageTerms>
<xmpRights:WebStatement rdf:resource="https://github.com/jgneff/framebufferY8"/>
</rdf:Description>
</rdf:RDF>
</metadata>
<clipPath id="a">
<path d="m0 24.92262h432.00389v-216.00287h-432.00389z"/>
</clipPath>
<g transform="matrix(1.3333333 0 0 -1.3333333 96.7973309134 95.0440045812)">
<path d="m0 24.92262v-4.25206m39.62242 4.25206v-4.25206m39.62244 4.25206v-4.25206m39.62244 4.25206v-4.25206m39.62243 4.25206v-4.25206m39.62244 4.25206v-4.25206m39.62243 4.25206v-4.25206m39.62244 4.25206v-4.25206m39.62244 4.25206v-4.25206m39.62243 4.25206v-4.25206m39.62244 4.25206v-4.25206m-396.22435-211.75081v4.25206m39.62242-4.25206v4.25206m39.62244-4.25206v4.25206m39.62244-4.25206v4.25206m39.62243-4.25206v4.25206m39.62244-4.25206v4.25206m39.62243-4.25206v4.25206m39.62244-4.25206v4.25206m39.62244-4.25206v4.25206m39.62243-4.25206v4.25206m39.62244-4.25206v4.25206" fill="none" stroke="#808080" stroke-miterlimit="10" stroke-width=".19925"/>
<path d="m-4.25206 0h4.25206m-4.25206-33.23152h4.25206m-4.25206-33.23152h4.25206m-4.25206-33.23152h4.25206m-4.25206-33.23153h4.25206m-4.25206-33.23153h4.25206" fill="none" stroke="#808080" stroke-miterlimit="10" stroke-width=".19925"/>
<path d="m0 24.92262v-216.00287h432.00389v216.00287z" fill="none" stroke="#000" stroke-miterlimit="10" stroke-width=".3985"/>
<g font-family="Arimo,Liberation Sans,Arial,sans-serif" font-size="11.95517">
<text transform="matrix(1 0 0 -1 -3.325 -203.61)"><tspan x="0" y="0">0</tspan></text>
<text transform="matrix(1 0 0 -1 29.648 -203.61)"><tspan x="0 6.649466 13.298931" y="0">200</tspan></text>
<text transform="matrix(1 0 0 -1 69.27 -203.61)"><tspan x="0 6.649466 13.298931" y="0">400</tspan></text>
<text transform="matrix(1 0 0 -1 108.892 -203.61)"><tspan x="0 6.649466 13.298931" y="0">600</tspan></text>
<text transform="matrix(1 0 0 -1 148.514 -203.61)"><tspan x="0 6.649466 13.298931" y="0">800</tspan></text>
<text transform="matrix(1 0 0 -1 183.151 -203.61)"><tspan x="0 6.649466 9.970612 16.620077 23.269543" y="0">1,000</tspan></text>
<text transform="matrix(1 0 0 -1 222.773 -203.61)"><tspan x="0 6.649466 9.970612 16.620077 23.269543" y="0">1,200</tspan></text>
<text transform="matrix(1 0 0 -1 262.395 -203.61)"><tspan x="0 6.649466 9.970612 16.620077 23.269543" y="0">1,400</tspan></text>
<text transform="matrix(1 0 0 -1 302.017 -203.61)"><tspan x="0 6.649466 9.970612 16.620077 23.269543" y="0">1,600</tspan></text>
<text transform="matrix(1 0 0 -1 341.638 -203.61)"><tspan x="0 6.649466 9.970612 16.620077 23.269543" y="0">1,800</tspan></text>
<text transform="matrix(1 0 0 -1 381.26 -203.61)"><tspan x="0 6.649466 9.970612 16.620077 23.269543" y="0">2,000</tspan></text>
<text transform="matrix(1 0 0 -1 -59.613 -2.934)"><tspan x="0 5.977585 12.62705 19.276516 25.254101 31.241251 37.878761 44.528225" y="0">copyTo08</tspan></text>
<text transform="matrix(1 0 0 -1 -59.613 -36.165)"><tspan x="0 5.977585 12.62705 19.276516 25.254101 31.241251 37.878761 44.528225" y="0">copyTo16</tspan></text>
<text transform="matrix(1 0 0 -1 -59.613 -69.396)"><tspan x="0 5.977585 12.62705 19.276516 25.254101 31.241251 37.878761 44.528225" y="0">copyTo32</tspan></text>
<text transform="matrix(1 0 0 -1 -59.602 -103.967)"><tspan x="0 8.634024 12.615095 15.271534 18.59268 25.242146 31.229296 37.878761 44.528225" y="0">writeTo08</tspan></text>
<text transform="matrix(1 0 0 -1 -59.602 -137.198)"><tspan x="0 8.634024 12.615095 15.271534 18.59268 25.242146 31.229296 37.878761 44.528225" y="0">writeTo16</tspan></text>
<text transform="matrix(1 0 0 -1 -59.602 -170.429)"><tspan x="0 8.634024 12.615095 15.271534 18.59268 25.242146 31.229296 37.878761 44.528225" y="0">writeTo32</tspan></text>
</g>
<g clip-path="url(#a)" stroke="#000" stroke-miterlimit="10" stroke-width=".3985">
<path d="m0-44.19057h32.385v9.96277h-32.385zm0-33.23152h390.49474v9.96277h-390.49474zm0-66.46304h31.7651v9.96277h-31.7651zm0-33.23154h329.35692v9.96277h-329.35692z" fill="#a6cee3"/>
<path d="m32.385-39.20918h.07052" fill="#a6cee3"/>
<path d="m0 1.99255v-3.9851" fill="none" transform="translate(32.455 -39.209)"/>
<path d="m32.385-39.20918h-.07055" fill="#a6cee3"/>
<path d="m0 1.99255v-3.9851" fill="none" transform="matrix(-1 0 0 -1 32.314 -39.21)"/>
<path d="m390.49474-72.4407h2.2339" fill="#a6cee3"/>
<path d="m0 1.99255v-3.9851" fill="none" transform="translate(392.723 -72.44)"/>
<path d="m390.49474-72.4407h-2.23391" fill="#a6cee3"/>
<path d="m0 1.99255v-3.9851" fill="none" transform="matrix(-1 0 0 -1 388.256 -72.441)"/>
<path d="m31.7651-138.90375h.0048" fill="#a6cee3"/>
<path d="m0 1.99255v-3.9851" fill="none" transform="translate(31.769 -138.902)"/>
<path d="m31.7651-138.90375h-.0047" fill="#a6cee3"/>
<path d="m0 1.99255v-3.9851" fill="none" transform="matrix(-1 0 0 -1 31.76 -138.903)"/>
<path d="m329.35692-172.13528h1.42639" fill="#a6cee3"/>
<path d="m0 1.99255v-3.9851" fill="none" transform="translate(330.779 -172.133)"/>
<path d="m329.35692-172.13528h-1.42638" fill="#a6cee3"/>
<path d="m0 1.99255v-3.9851" fill="none" transform="matrix(-1 0 0 -1 327.926 -172.134)"/>
<path d="m0 .99628h23.50005v9.96277h-23.50005zm0-33.23152h41.64891v9.96277h-41.64891zm0-33.23153h388.413v9.96277h-388.413zm0-33.23152h25.0683v9.96277h-25.0683zm0-33.23152h40.63951v9.96277h-40.63951zm0-33.23154h328.03197v9.96277h-328.03197z" fill="#1f78b4"/>
<path d="m23.50005 5.97766h3.75105" fill="#1f78b4"/>
<path d="m0 1.99255v-3.9851" fill="none" transform="translate(27.25 5.977)"/>
<path d="m23.50005 5.97766h-3.75105" fill="#1f78b4"/>
<path d="m0 1.99255v-3.9851" fill="none" transform="matrix(-1 0 0 -1 19.748 5.978)"/>
<path d="m41.64891-27.25386h.33144" fill="#1f78b4"/>
<path d="m0 1.99255v-3.9851" fill="none" transform="translate(41.98 -27.254)"/>
<path d="m41.64891-27.25386h-.33144" fill="#1f78b4"/>
<path d="m0 1.99255v-3.9851" fill="none" transform="matrix(-1 0 0 -1 41.317 -27.253)"/>
<path d="m388.413-60.48538h1.23658" fill="#1f78b4"/>
<path d="m0 1.99255v-3.9851" fill="none" transform="translate(389.644 -60.485)"/>
<path d="m388.413-60.48538h-1.23662" fill="#1f78b4"/>
<path d="m0 1.99255v-3.9851" fill="none" transform="matrix(-1 0 0 -1 387.171 -60.484)"/>
<path d="m25.0683-93.7169h3.54304" fill="#1f78b4"/>
<path d="m0 1.99255v-3.9851" fill="none" transform="translate(28.611 -93.716)"/>
<path d="m25.0683-93.7169h-3.54302" fill="#1f78b4"/>
<path d="m0 1.99255v-3.9851" fill="none" transform="matrix(-1 0 0 -1 21.525 -93.717)"/>
<path d="m40.63951-126.94843h.14563" fill="#1f78b4"/>
<path d="m0 1.99255v-3.9851" fill="none" transform="translate(40.784 -126.947)"/>
<path d="m40.63951-126.94843h-.1456" fill="#1f78b4"/>
<path d="m0 1.99255v-3.9851" fill="none" transform="matrix(-1 0 0 -1 40.493 -126.948)"/>
<path d="m328.03197-160.17996h2.23428" fill="#1f78b4"/>
<path d="m0 1.99255v-3.9851" fill="none" transform="translate(330.262 -160.178)"/>
<path d="m328.03197-160.17996h-2.2343" fill="#1f78b4"/>
<path d="m0 1.99255v-3.9851" fill="none" transform="matrix(-1 0 0 -1 325.793 -160.179)"/>
</g>
</g>
<g font-family="Arimo,Liberation Sans,Arial,sans-serif">
<text font-size="11.95517" transform="matrix(1.3333333 0 0 1.3333333 270.5013265708 391.0039971822)"><tspan x="0 7.302218 13.951683 17.932755 24.58222 31.231686 37.881153 44.530617 51.180084 57.829548 64.46228 68.443352 71.764496 75.745567 82.395035 92.353691 99.003151 108.30428 114.95374 121.60321 128.90782 134.88541 141.53487 147.51245 154.16191 160.81139 167.46085" y="0">Throughput(framespersecond)</tspan></text>
<text font-size="11.95517" transform="matrix(1.3333333 0 0 1.3333333 252.319993692 28.8626729024)"><tspan x="0 9.298731 13.279803 19.929268 25.906853 28.563292 38.524342 47.823071 54.472538 61.122002 67.771469 73.749054 82.38308 93.68071 100.33018 110.30318 116.95264 126.9137 135.54771 142.19719 148.84665 155.49611 158.81726 168.79027 175.43973 182.08919 185.41034 192.0598" y="0">OracleOpenJDK14onUbuntu20.04</tspan></text>
<text font-size="10.90909" transform="matrix(1.3333333 0 0 1.3333333 179.8493288371 48.1240057542)"><tspan x="0 6.067636 9.098181 15.165817 24.25527 32.74036 40.618904 49.106178 52.136723 58.204357 61.234905 67.302544 72.75927 80.035629 86.103264 92.170898 101.27126 108.54763 112.18035 118.24799 123.70254 129.77017 135.22472 140.67926 146.7469 153.40144 160.67781 166.74544 170.37817 176.4458 182.51344 188.58107 197.68144 203.13599 212.23634 220.11488 222.53889 225.56944 234.65889 240.72653 249.82689 258.31198 260.73599 271.04507 277.1127 283.17596 291.05453 298.33087" y="0">3.30GHzIntelXeonProcessorE3-1225v5with16GiBofRAM</tspan></text>
</g>
<path d="m304.44206-18.94508h105.76103v32.86765h-105.76103z" fill="none" stroke="#000" stroke-miterlimit="10" stroke-width=".3985" transform="matrix(1.3333333 0 0 -1.3333333 96.7973309134 95.0440045812)"/>
<path d="m0-3.88544h9.56429v2.98883h-9.56429zm0 5.97765h7.17326v2.98883h-7.17326z" fill="#1f78b4" stroke="#000" stroke-miterlimit="10" stroke-width=".3985" transform="matrix(1.3333333 0 0 -1.3333333 506.9653206592 88.7653380715)"/>
<text font-family="Arimo,Liberation Sans,Arial,sans-serif" font-size="11.95517" transform="matrix(1.3333333 0 0 1.3333333 531.0613200568 93.345337957)"><tspan x="0 7.302218 11.28329 17.932755 27.891411 34.540878 41.190342 47.839809 50.945763 54.266907 60.916374 64.897446 72.871544" y="0">FramebufferY8</tspan></text>
<path d="m0-3.88544h9.56429v2.98883h-9.56429zm0 5.97765h7.17326v2.98883h-7.17326z" fill="#a6cee3" stroke="#000" stroke-miterlimit="10" stroke-width=".3985" transform="matrix(1.3333333 0 0 -1.3333333 506.9653206592 108.0200042568)"/>
<text font-family="Arimo,Liberation Sans,Arial,sans-serif" font-size="11.95517" transform="matrix(1.3333333 0 0 1.3333333 531.0613200568 112.6000041423)"><tspan x="0 7.302218 11.28329 17.932755 27.891411 34.540878 41.190342 47.839809 50.945763 54.266907 60.916374" y="0">Framebuffer</tspan></text>
</svg>
