<?xml version="1.0" encoding="UTF-8" standalone="no"?>
<svg height="412.34799" viewBox="0 0 685.06 412.34799" width="685.06" xmlns="http://www.w3.org/2000/svg" xmlns:xlink="http://www.w3.org/1999/xlink">
<metadata>
<rdf:RDF xmlns:rdf="http://www.w3.org/1999/02/22-rdf-syntax-ns#" xmlns:cc="http://creativecommons.org/ns#" xmlns:dc="http://purl.org/dc/elements/1.1/" xmlns:xmpRights="http://ns.adobe.com/xap/1.0/rights/">
<rdf:Description>
<cc:attributionName>John Neffenger</cc:attributionName>
<cc:license rdf:resource="http://creativecommons.org/licenses/by-sa/4.0/"/>
<dc:title>JavaFX FramebufferY8 Benchmarks</dc:title>
<xmpRights:Marked>True</xmpRights:Marked>
<xmpRights:UsageTerms>This work is licensed under a Creative Commons Attribution-ShareAlike 4.0 International License.</xmpRights:UsageTerms>
<xmpRights:WebStatement rdf:resource="https://github.com/jgneff/framebufferY8"/>
</rdf:Description>
</rdf:RDF>
</metadata>
<clipPath id="a">
<path d="m0 24.92262h432.00345v-216.00287h-432.00345z"/>
</clipPath>
<g transform="matrix(1.3333333 0 0 -1.3333333 96.7959975801 97.6506745341)">
<path d="m0 24.92262v-4.25206m27.81459 4.25206v-4.25206m27.81461 4.25206v-4.25206m27.8146 4.25206v-4.25206m27.8146 4.25206v-4.25206m27.81461 4.25206v-4.25206m27.81461 4.25206v-4.25206m27.8146 4.25206v-4.25206m27.8146 4.25206v-4.25206m27.8146 4.25206v-4.25206m27.81461 4.25206v-4.25206m27.8146 4.25206v-4.25206m27.81461 4.25206v-4.25206m27.8146 4.25206v-4.25206m27.81461 4.25206v-4.25206m27.81461 4.25206v-4.25206m-417.21906-211.75081v4.25206m27.81459-4.25206v4.25206m27.81461-4.25206v4.25206m27.8146-4.25206v4.25206m27.8146-4.25206v4.25206m27.81461-4.25206v4.25206m27.81461-4.25206v4.25206m27.8146-4.25206v4.25206m27.8146-4.25206v4.25206m27.8146-4.25206v4.25206m27.81461-4.25206v4.25206m27.8146-4.25206v4.25206m27.81461-4.25206v4.25206m27.8146-4.25206v4.25206m27.81461-4.25206v4.25206m27.81461-4.25206v4.25206" fill="none" stroke="#808080" stroke-miterlimit="10" stroke-width=".19925"/>
<path d="m-4.2518 0h4.2518m-4.2518-33.23152h4.2518m-4.2518-33.23152h4.2518m-4.2518-33.23152h4.2518m-4.2518-33.23153h4.2518m-4.2518-33.23153h4.2518" fill="none" stroke="#808080" stroke-miterlimit="10" stroke-width=".19925"/>
<path d="m0 24.92262v-216.00287h432.00345v216.00287z" fill="none" stroke="#000" stroke-miterlimit="10" stroke-width=".3985"/>
<g font-family="Arimo,Liberation Sans,Arial,sans-serif" font-size="11.95517">
<text transform="matrix(1 0 0 -1 -3.324 -203.609)"><tspan x="0" y="0">0</tspan></text>
<text transform="matrix(1 0 0 -1 21.166 -203.609)"><tspan x="0 6.649466" y="0">10</tspan></text>
<text transform="matrix(1 0 0 -1 48.98 -203.609)"><tspan x="0 6.649466" y="0">20</tspan></text>
<text transform="matrix(1 0 0 -1 76.794 -203.609)"><tspan x="0 6.649466" y="0">30</tspan></text>
<text transform="matrix(1 0 0 -1 104.609 -203.609)"><tspan x="0 6.649466" y="0">40</tspan></text>
<text transform="matrix(1 0 0 -1 132.423 -203.609)"><tspan x="0 6.649466" y="0">50</tspan></text>
<text transform="matrix(1 0 0 -1 160.237 -203.609)"><tspan x="0 6.649466" y="0">60</tspan></text>
<text transform="matrix(1 0 0 -1 188.051 -203.609)"><tspan x="0 6.649466" y="0">70</tspan></text>
<text transform="matrix(1 0 0 -1 215.866 -203.609)"><tspan x="0 6.649466" y="0">80</tspan></text>
<text transform="matrix(1 0 0 -1 243.68 -203.609)"><tspan x="0 6.649466" y="0">90</tspan></text>
<text transform="matrix(1 0 0 -1 268.17 -203.609)"><tspan x="0 6.649466 13.298931" y="0">100</tspan></text>
<text transform="matrix(1 0 0 -1 296.427 -203.609)"><tspan x="0 5.764783 12.414248" y="0">110</tspan></text>
<text transform="matrix(1 0 0 -1 323.798 -203.609)"><tspan x="0 6.649466 13.298931" y="0">120</tspan></text>
<text transform="matrix(1 0 0 -1 351.612 -203.609)"><tspan x="0 6.649466 13.298931" y="0">130</tspan></text>
<text transform="matrix(1 0 0 -1 379.427 -203.609)"><tspan x="0 6.649466 13.298931" y="0">140</tspan></text>
<text transform="matrix(1 0 0 -1 407.241 -203.609)"><tspan x="0 6.649466 13.298931" y="0">150</tspan></text>
<text transform="matrix(1 0 0 -1 -59.612 -2.933)"><tspan x="0 5.977585 12.62705 19.276516 25.254101 31.241251 37.878761 44.528225" y="0">copyTo08</tspan></text>
<text transform="matrix(1 0 0 -1 -59.612 -36.165)"><tspan x="0 5.977585 12.62705 19.276516 25.254101 31.241251 37.878761 44.528225" y="0">copyTo16</tspan></text>
<text transform="matrix(1 0 0 -1 -59.612 -69.396)"><tspan x="0 5.977585 12.62705 19.276516 25.254101 31.241251 37.878761 44.528225" y="0">copyTo32</tspan></text>
<text transform="matrix(1 0 0 -1 -59.601 -103.966)"><tspan x="0 8.634024 12.615095 15.271534 18.59268 25.242146 31.229296 37.878761 44.528225" y="0">writeTo08</tspan></text>
<text transform="matrix(1 0 0 -1 -59.601 -137.198)"><tspan x="0 8.634024 12.615095 15.271534 18.59268 25.242146 31.229296 37.878761 44.528225" y="0">writeTo16</tspan></text>
<text transform="matrix(1 0 0 -1 -59.601 -170.429)"><tspan x="0 8.634024 12.615095 15.271534 18.59268 25.242146 31.229296 37.878761 44.528225" y="0">writeTo32</tspan></text>
</g>
<g clip-path="url(#a)" stroke="#000" stroke-miterlimit="10" stroke-width=".3985">
<path d="m0-44.19057h35.98929v9.96277h-35.98929zm0-33.23152h384.32272v9.96277h-384.32272zm0-66.46304h36.2758v9.96277h-36.2758zm0-33.23154h238.49908v9.96277h-238.49908z" fill="#a6cee3"/>
<path d="m35.98929-39.20918h8.29434" fill="#a6cee3"/>
<path d="m0 1.99255v-3.9851" fill="none" transform="translate(44.284 -39.209)"/>
<path d="m35.98929-39.20918h-8.2943" fill="#a6cee3"/>
<path d="m0 1.99255v-3.9851" fill="none" transform="matrix(-1 0 0 -1 27.695 -39.208)"/>
<path d="m384.32272-72.4407h8.40555" fill="#a6cee3"/>
<path d="m0 1.99255v-3.9851" fill="none" transform="translate(392.724 -72.44)"/>
<path d="m384.32272-72.4407h-8.40554" fill="#a6cee3"/>
<path d="m0 1.99255v-3.9851" fill="none" transform="matrix(-1 0 0 -1 375.913 -72.439)"/>
<path d="m36.2758-138.90375h6.00794" fill="#a6cee3"/>
<path d="m0 1.99255v-3.9851" fill="none" transform="translate(42.284 -138.902)"/>
<path d="m36.2758-138.90375h-6.00795" fill="#a6cee3"/>
<path d="m0 1.99255v-3.9851" fill="none" transform="matrix(-1 0 0 -1 30.268 -138.903)"/>
<path d="m238.49908-172.13528h5.39881" fill="#a6cee3"/>
<path d="m0 1.99255v-3.9851" fill="none" transform="translate(243.895 -172.133)"/>
<path d="m238.49908-172.13528h-5.3988" fill="#a6cee3"/>
<path d="m0 1.99255v-3.9851" fill="none" transform="matrix(-1 0 0 -1 233.098 -172.134)"/>
<path d="m0 .99628h14.26053v9.96277h-14.26053zm0-33.23152h50.12192v9.96277h-50.12192zm0-33.23153h382.06139v9.96277h-382.06139zm0-33.23152h16.61368v9.96277h-16.61368zm0-33.23152h40.18651v9.96277h-40.18651zm0-33.23154h221.8854v9.96277h-221.8854z" fill="#1f78b4"/>
<path d="m14.26053 5.97766h1.56874" fill="#1f78b4"/>
<path d="m0 1.99255v-3.9851" fill="none" transform="translate(15.83 5.978)"/>
<path d="m14.26053 5.97766h-1.56873" fill="#1f78b4"/>
<path d="m0 1.99255v-3.9851" fill="none" transform="matrix(-1 0 0 -1 12.692 5.977)"/>
<path d="m50.12192-27.25386h.67863" fill="#1f78b4"/>
<path d="m0 1.99255v-3.9851" fill="none" transform="translate(50.8 -27.254)"/>
<path d="m50.12192-27.25386h-.6787" fill="#1f78b4"/>
<path d="m0 1.99255v-3.9851" fill="none" transform="matrix(-1 0 0 -1 49.443 -27.253)"/>
<path d="m382.06139-60.48538h10.09947" fill="#1f78b4"/>
<path d="m0 1.99255v-3.9851" fill="none" transform="translate(392.156 -60.485)"/>
<path d="m382.06139-60.48538h-10.09948" fill="#1f78b4"/>
<path d="m0 1.99255v-3.9851" fill="none" transform="matrix(-1 0 0 -1 371.958 -60.484)"/>
<path d="m16.61368-93.7169h.05559" fill="#1f78b4"/>
<path d="m0 1.99255v-3.9851" fill="none" transform="translate(16.67 -93.716)"/>
<path d="m16.61368-93.7169h-.05565" fill="#1f78b4"/>
<path d="m0 1.99255v-3.9851" fill="none" transform="matrix(-1 0 0 -1 16.558 -93.715)"/>
<path d="m40.18651-126.94843h7.37366" fill="#1f78b4"/>
<path d="m0 1.99255v-3.9851" fill="none" transform="translate(47.56 -126.947)"/>
<path d="m40.18651-126.94843h-7.37364" fill="#1f78b4"/>
<path d="m0 1.99255v-3.9851" fill="none" transform="matrix(-1 0 0 -1 32.813 -126.946)"/>
<path d="m221.8854-160.17996h2.8872" fill="#1f78b4"/>
<path d="m0 1.99255v-3.9851" fill="none" transform="translate(224.77 -160.178)"/>
<path d="m221.8854-160.17996h-2.88714" fill="#1f78b4"/>
<path d="m0 1.99255v-3.9851" fill="none" transform="matrix(-1 0 0 -1 218.996 -160.177)"/>
</g>
</g>
<g font-family="Arimo,Liberation Sans,Arial,sans-serif">
<text font-size="11.95517" transform="matrix(1.3333333 0 0 1.3333333 270.5013265708 391.7266671822)"><tspan x="0 7.302218 13.951683 17.932755 24.58222 31.231686 37.881153 44.530617 51.180084 57.829548 64.46228 68.443352 71.764496 75.745567 82.395035 92.353691 99.003151 108.30428 114.95374 121.60321 128.90782 134.88541 141.53487 147.51245 154.16191 160.81139 167.46085" y="0">Throughput(framespersecond)</tspan></text>
<text font-size="11.95517" transform="matrix(1.3333333 0 0 1.3333333 250.6853270662 28.8626762538)"><tspan x="0 8.634024 15.283489 21.932955 28.58242 31.903566 41.864613 51.163345 57.812813 64.46228 71.11174 77.089325 85.723351 97.020988 102.78577 112.74682 119.39629 129.36929 138.00331 144.65277 151.30225 157.95171 161.27286 171.24585 177.89532 184.54478 187.86594 194.5154" y="0">UbuntuOpenJDK11onUbuntu20.04</tspan></text>
<text font-size="10.90909" transform="matrix(1.3333333 0 0 1.3333333 189.1773286039 48.1240091056)"><tspan x="0 8.48509 15.761454 24.848724 35.749088 41.816723 45.449451 54.536724 59.991268 66.058907 71.515633 76.970177 79.394173 83.026901 86.057449 92.125084 98.192719 103.64944 112.73672 118.80435 124.2589 130.32654 132.75053 138.81818 147.90762 155.78616 158.21017 161.24071 170.34108 179.44144 187.31998 194.59634 205.50761 211.57526 217.6429 226.73235 235.8327 244.31779 246.74179 257.05087 263.11853 269.18179 277.06033 284.3367" y="0">QEMUarmv7lvirtualmachinewith1CPUand1GiBofRAM</tspan></text>
</g>
<path d="m304.44165-18.94508h105.76103v32.86765h-105.76103z" fill="none" stroke="#000" stroke-miterlimit="10" stroke-width=".3985" transform="matrix(1.3333333 0 0 -1.3333333 96.7959975801 97.6506745341)"/>
<path d="m0-3.88544h9.56429v2.98883h-9.56429zm0 5.97765h7.17326v2.98883h-7.17326z" fill="#1f78b4" stroke="#000" stroke-miterlimit="10" stroke-width=".3985" transform="matrix(1.3333333 0 0 -1.3333333 506.9639873259 91.3720080244)"/>
<text font-family="Arimo,Liberation Sans,Arial,sans-serif" font-size="11.95517" transform="matrix(1.3333333 0 0 1.3333333 531.0599867235 95.9520079099)"><tspan x="0 7.302218 11.28329 17.932755 27.891411 34.540878 41.190342 47.839809 50.945763 54.266907 60.916374 64.897446 72.871544" y="0">FramebufferY8</tspan></text>
<path d="m0-3.88544h9.56429v2.98883h-9.56429zm0 5.97765h7.17326v2.98883h-7.17326z" fill="#a6cee3" stroke="#000" stroke-miterlimit="10" stroke-width=".3985" transform="matrix(1.3333333 0 0 -1.3333333 506.9639873259 110.6266742097)"/>
<text font-family="Arimo,Liberation Sans,Arial,sans-serif" font-size="11.95517" transform="matrix(1.3333333 0 0 1.3333333 531.0599867235 115.2066740952)"><tspan x="0 7.302218 11.28329 17.932755 27.891411 34.540878 41.190342 47.839809 50.945763 54.266907 60.916374" y="0">Framebuffer</tspan></text>
</svg>
