<?xml version="1.0" encoding="UTF-8"?>
<svg height="412.34799" viewBox="0 0 689.06799 412.34799" width="689.06799" xmlns="http://www.w3.org/2000/svg" xmlns:xlink="http://www.w3.org/1999/xlink">
<metadata>
<rdf:RDF xmlns:rdf="http://www.w3.org/1999/02/22-rdf-syntax-ns#" xmlns:cc="http://creativecommons.org/ns#" xmlns:dc="http://purl.org/dc/elements/1.1/" xmlns:xmpRights="http://ns.adobe.com/xap/1.0/rights/">
<rdf:Description>
<cc:attributionName>John Neffenger</cc:attributionName>
<cc:license rdf:resource="http://creativecommons.org/licenses/by-sa/4.0/"/>
<dc:title>JavaFX FramebufferY8 Benchmarks</dc:title>
<xmpRights:Marked>True</xmpRights:Marked>
<xmpRights:UsageTerms>This work is licensed under a Creative Commons Attribution-ShareAlike 4.0 International License.</xmpRights:UsageTerms>
<xmpRights:WebStatement rdf:resource="https://github.com/jgneff/framebufferY8"/>
</rdf:Description>
</rdf:RDF>
</metadata>
<clipPath id="a">
<path d="m0 24.92262h432.0085v-216.00287h-432.0085z"/>
</clipPath>
<g transform="matrix(1.3333333 0 0 -1.3333333 96.7959975801 97.6506745341)">
<path d="m0 24.92262v-4.25206m42.4576 4.25206v-4.25206m42.4576 4.25206v-4.25206m42.4576 4.25206v-4.25206m42.45761 4.25206v-4.25206m42.45761 4.25206v-4.25206m42.4576 4.25206v-4.25206m42.45761 4.25206v-4.25206m42.45761 4.25206v-4.25206m42.4576 4.25206v-4.25206m42.45761 4.25206v-4.25206m-424.57605-211.75081v4.25206m42.4576-4.25206v4.25206m42.4576-4.25206v4.25206m42.4576-4.25206v4.25206m42.45761-4.25206v4.25206m42.45761-4.25206v4.25206m42.4576-4.25206v4.25206m42.45761-4.25206v4.25206m42.45761-4.25206v4.25206m42.4576-4.25206v4.25206m42.45761-4.25206v4.25206" fill="none" stroke="#808080" stroke-miterlimit="10" stroke-width=".19925"/>
<path d="m-4.25171 0h4.25171m-4.25171-33.23152h4.25171m-4.25171-33.23152h4.25171m-4.25171-33.23152h4.25171m-4.25171-33.23153h4.25171m-4.25171-33.23153h4.25171" fill="none" stroke="#808080" stroke-miterlimit="10" stroke-width=".19925"/>
<path d="m0 24.92262v-216.00287h432.0085v216.00287z" fill="none" stroke="#000" stroke-miterlimit="10" stroke-width=".3985"/>
<g font-family="Arimo,Liberation Sans,Arial,sans-serif" font-size="11.95517">
<text transform="matrix(1 0 0 -1 -3.324 -203.609)"><tspan x="0" y="0">0</tspan></text>
<text transform="matrix(1 0 0 -1 39.133 -203.487)"><tspan x="0" y="0">5</tspan></text>
<text transform="matrix(1 0 0 -1 78.266 -203.609)"><tspan x="0 6.649466" y="0">10</tspan></text>
<text transform="matrix(1 0 0 -1 120.723 -203.487)"><tspan x="0 6.649466" y="0">15</tspan></text>
<text transform="matrix(1 0 0 -1 163.18 -203.609)"><tspan x="0 6.649466" y="0">20</tspan></text>
<text transform="matrix(1 0 0 -1 205.637 -203.609)"><tspan x="0 6.649466" y="0">25</tspan></text>
<text transform="matrix(1 0 0 -1 248.094 -203.609)"><tspan x="0 6.649466" y="0">30</tspan></text>
<text transform="matrix(1 0 0 -1 290.551 -203.609)"><tspan x="0 6.649466" y="0">35</tspan></text>
<text transform="matrix(1 0 0 -1 333.008 -203.609)"><tspan x="0 6.649466" y="0">40</tspan></text>
<text transform="matrix(1 0 0 -1 375.465 -203.487)"><tspan x="0 6.649466" y="0">45</tspan></text>
<text transform="matrix(1 0 0 -1 417.922 -203.609)"><tspan x="0 6.649466" y="0">50</tspan></text>
<text transform="matrix(1 0 0 -1 -59.612 -2.933)"><tspan x="0 5.977585 12.62705 19.276516 25.254101 31.241251 37.878761 44.528225" y="0">copyTo08</tspan></text>
<text transform="matrix(1 0 0 -1 -59.612 -36.165)"><tspan x="0 5.977585 12.62705 19.276516 25.254101 31.241251 37.878761 44.528225" y="0">copyTo16</tspan></text>
<text transform="matrix(1 0 0 -1 -59.612 -69.396)"><tspan x="0 5.977585 12.62705 19.276516 25.254101 31.241251 37.878761 44.528225" y="0">copyTo32</tspan></text>
<text transform="matrix(1 0 0 -1 -59.601 -103.966)"><tspan x="0 8.634024 12.615095 15.271534 18.59268 25.242146 31.229296 37.878761 44.528225" y="0">writeTo08</tspan></text>
<text transform="matrix(1 0 0 -1 -59.601 -137.198)"><tspan x="0 8.634024 12.615095 15.271534 18.59268 25.242146 31.229296 37.878761 44.528225" y="0">writeTo16</tspan></text>
<text transform="matrix(1 0 0 -1 -59.601 -170.429)"><tspan x="0 8.634024 12.615095 15.271534 18.59268 25.242146 31.229296 37.878761 44.528225" y="0">writeTo32</tspan></text>
</g>
<g clip-path="url(#a)" stroke="#000" stroke-miterlimit="10" stroke-width=".3985">
<path d="m0-44.19057h35.57945v9.96277h-35.57945zm0-33.23152h385.64241v9.96277h-385.64241zm0-66.46304h21.00801v9.96277h-21.00801zm0-33.23154h199.61018v9.96277h-199.61018z" fill="#a6cee3"/>
<path d="m35.57945-39.20918h6.68283" fill="#a6cee3"/>
<path d="m0 1.99255v-3.9851" fill="none" transform="translate(42.262 -39.209)"/>
<path d="m35.57945-39.20918h-6.68283" fill="#a6cee3"/>
<path d="m0 1.99255v-3.9851" fill="none" transform="matrix(-1 0 0 -1 28.897 -39.208)"/>
<path d="m385.64241-72.4407h4.98451" fill="#a6cee3"/>
<path d="m0 1.99255v-3.9851" fill="none" transform="translate(390.622 -72.44)"/>
<path d="m385.64241-72.4407h-4.98451" fill="#a6cee3"/>
<path d="m0 1.99255v-3.9851" fill="none" transform="matrix(-1 0 0 -1 380.653 -72.439)"/>
<path d="m21.00801-138.90375h3.06543" fill="#a6cee3"/>
<path d="m0 1.99255v-3.9851" fill="none" transform="translate(24.074 -138.902)"/>
<path d="m21.00801-138.90375h-3.06544" fill="#a6cee3"/>
<path d="m0 1.99255v-3.9851" fill="none" transform="matrix(-1 0 0 -1 17.943 -138.903)"/>
<path d="m199.61018-172.13528h3.57492" fill="#a6cee3"/>
<path d="m0 1.99255v-3.9851" fill="none" transform="translate(203.183 -172.133)"/>
<path d="m199.61018-172.13528h-3.57493" fill="#a6cee3"/>
<path d="m0 1.99255v-3.9851" fill="none" transform="matrix(-1 0 0 -1 196.033 -172.134)"/>
<path d="m0 .99628h16.76225v9.96277h-16.76225zm0-33.23152h50.87268v9.96277h-50.87268zm0-33.23153h384.79326v9.96277h-384.79326zm0-33.23152h15.67534v9.96277h-15.67534zm0-33.23152h43.93512v9.96277h-43.93512zm0-33.23154h197.91188v9.96277h-197.91188z" fill="#1f78b4"/>
<path d="m16.76225 5.97766h.12737" fill="#1f78b4"/>
<path d="m0 1.99255v-3.9851" fill="none" transform="translate(16.89 5.978)"/>
<path d="m16.76225 5.97766h-.12738" fill="#1f78b4"/>
<path d="m0 1.99255v-3.9851" fill="none" transform="matrix(-1 0 0 -1 16.635 5.977)"/>
<path d="m50.87268-27.25386h1.42659" fill="#1f78b4"/>
<path d="m0 1.99255v-3.9851" fill="none" transform="translate(52.299 -27.254)"/>
<path d="m50.87268-27.25386h-1.42656" fill="#1f78b4"/>
<path d="m0 1.99255v-3.9851" fill="none" transform="matrix(-1 0 0 -1 49.446 -27.253)"/>
<path d="m384.79326-60.48538h7.93957" fill="#1f78b4"/>
<path d="m0 1.99255v-3.9851" fill="none" transform="translate(392.728 -60.485)"/>
<path d="m384.79326-60.48538h-7.93956" fill="#1f78b4"/>
<path d="m0 1.99255v-3.9851" fill="none" transform="matrix(-1 0 0 -1 376.849 -60.484)"/>
<path d="m15.67534-93.7169h1.29919" fill="#1f78b4"/>
<path d="m0 1.99255v-3.9851" fill="none" transform="translate(16.975 -93.716)"/>
<path d="m15.67534-93.7169h-1.2992" fill="#1f78b4"/>
<path d="m0 1.99255v-3.9851" fill="none" transform="matrix(-1 0 0 -1 14.376 -93.715)"/>
<path d="m43.93512-126.94843h.91708" fill="#1f78b4"/>
<path d="m0 1.99255v-3.9851" fill="none" transform="translate(44.852 -126.947)"/>
<path d="m43.93512-126.94843h-.91708" fill="#1f78b4"/>
<path d="m0 1.99255v-3.9851" fill="none" transform="matrix(-1 0 0 -1 43.018 -126.946)"/>
<path d="m197.91188-160.17996h2.60689" fill="#1f78b4"/>
<path d="m0 1.99255v-3.9851" fill="none" transform="translate(200.517 -160.178)"/>
<path d="m197.91188-160.17996h-2.6069" fill="#1f78b4"/>
<path d="m0 1.99255v-3.9851" fill="none" transform="matrix(-1 0 0 -1 195.303 -160.177)"/>
</g>
</g>
<g font-family="Arimo,Liberation Sans,Arial,sans-serif">
<text font-size="11.95517" transform="matrix(1.3333333 0 0 1.3333333 270.5039932374 391.7266671822)"><tspan x="0 7.302218 13.951683 17.932755 24.58222 31.231686 37.881153 44.530617 51.180084 57.829548 64.46228 68.443352 71.764496 75.745567 82.395035 92.353691 99.003151 108.30428 114.95374 121.60321 128.90782 134.88541 141.53487 147.51245 154.16191 160.81139 167.46085" y="0">Throughput(framespersecond)</tspan></text>
<text font-size="11.95517" transform="matrix(1.3333333 0 0 1.3333333 278.0119930497 28.8626762538)"><tspan x="0 9.298731 15.948196 22.597662 29.247128 35.224712 43.858738 55.144417 61.793884 71.766884 78.416351 88.389351 97.023376 103.67284 110.32231 116.97177 120.29292 130.25397 136.90343 143.5529 146.87404 153.52351" y="0">OpenJDK14onUbuntu20.04</tspan></text>
<text font-size="10.90909" transform="matrix(1.3333333 0 0 1.3333333 189.1799952705 48.1240091056)"><tspan x="0 8.48509 15.761454 24.848724 35.749088 41.816723 45.449451 54.536724 59.991268 66.058907 71.515633 76.970177 79.394173 83.026901 86.057449 92.125084 98.192719 103.64944 112.73672 118.80435 124.2589 130.32654 132.75053 138.81818 147.90762 155.78616 158.21017 161.24071 170.34108 179.44144 187.31998 194.59634 205.50761 211.57526 217.6429 226.73235 235.8327 244.31779 246.74179 257.05087 263.11853 269.18179 277.06033 284.3367" y="0">QEMUarmv7lvirtualmachinewith1CPUand1GiBofRAM</tspan></text>
</g>
<path d="m304.44644-18.94508h105.76103v32.86765h-105.76103z" fill="none" stroke="#000" stroke-miterlimit="10" stroke-width=".3985" transform="matrix(1.3333333 0 0 -1.3333333 96.7959975801 97.6506745341)"/>
<path d="m0-3.88544h9.56429v2.98883h-9.56429zm0 5.97765h7.17326v2.98883h-7.17326z" fill="#1f78b4" stroke="#000" stroke-miterlimit="10" stroke-width=".3985" transform="matrix(1.3333333 0 0 -1.3333333 506.9706539924 91.3720080244)"/>
<text font-family="Arimo,Liberation Sans,Arial,sans-serif" font-size="11.95517" transform="matrix(1.3333333 0 0 1.3333333 531.06665339 95.9520079099)"><tspan x="0 7.302218 11.28329 17.932755 27.891411 34.540878 41.190342 47.839809 50.945763 54.266907 60.916374 64.897446 72.871544" y="0">FramebufferY8</tspan></text>
<path d="m0-3.88544h9.56429v2.98883h-9.56429zm0 5.97765h7.17326v2.98883h-7.17326z" fill="#a6cee3" stroke="#000" stroke-miterlimit="10" stroke-width=".3985" transform="matrix(1.3333333 0 0 -1.3333333 506.9706539924 110.6266742097)"/>
<text font-family="Arimo,Liberation Sans,Arial,sans-serif" font-size="11.95517" transform="matrix(1.3333333 0 0 1.3333333 531.06665339 115.2066740952)"><tspan x="0 7.302218 11.28329 17.932755 27.891411 34.540878 41.190342 47.839809 50.945763 54.266907 60.916374" y="0">Framebuffer</tspan></text>
</svg>
