<?xml version="1.0" encoding="UTF-8" standalone="no"?>
<svg height="409.74133" viewBox="0 0 685.41602 409.74133" width="685.41602" xmlns="http://www.w3.org/2000/svg" xmlns:xlink="http://www.w3.org/1999/xlink">
<metadata>
<rdf:RDF xmlns:rdf="http://www.w3.org/1999/02/22-rdf-syntax-ns#" xmlns:cc="http://creativecommons.org/ns#" xmlns:dc="http://purl.org/dc/elements/1.1/" xmlns:xmpRights="http://ns.adobe.com/xap/1.0/rights/">
<rdf:Description>
<cc:attributionName>John Neffenger</cc:attributionName>
<cc:license rdf:resource="http://creativecommons.org/licenses/by-sa/4.0/"/>
<dc:title>JavaFX FramebufferY8 Benchmarks</dc:title>
<xmpRights:Marked>True</xmpRights:Marked>
<xmpRights:UsageTerms>This work is licensed under a Creative Commons Attribution-ShareAlike 4.0 International License.</xmpRights:UsageTerms>
<xmpRights:WebStatement rdf:resource="https://github.com/jgneff/framebufferY8"/>
</rdf:Description>
</rdf:RDF>
</metadata>
<clipPath id="a">
<path d="m0 24.92262h432.00438v-216.00287h-432.00438z"/>
</clipPath>
<g transform="matrix(1.3333333 0 0 -1.3333333 96.7973309134 95.0440045341)">
<path d="m0 24.92262v-4.25206m22.20187 4.25206v-4.25206m22.20188 4.25206v-4.25206m22.20189 4.25206v-4.25206m22.20187 4.25206v-4.25206m22.20189 4.25206v-4.25206m22.20187 4.25206v-4.25206m22.20189 4.25206v-4.25206m22.20188 4.25206v-4.25206m22.20189 4.25206v-4.25206m22.20187 4.25206v-4.25206m22.20189 4.25206v-4.25206m22.20187 4.25206v-4.25206m22.20189 4.25206v-4.25206m22.20187 4.25206v-4.25206m22.20189 4.25206v-4.25206m22.20188 4.25206v-4.25206m22.20189 4.25206v-4.25206m22.20187 4.25206v-4.25206m22.20189 4.25206v-4.25206m-421.83574-211.75081v4.25206m22.20187-4.25206v4.25206m22.20188-4.25206v4.25206m22.20189-4.25206v4.25206m22.20187-4.25206v4.25206m22.20189-4.25206v4.25206m22.20187-4.25206v4.25206m22.20189-4.25206v4.25206m22.20188-4.25206v4.25206m22.20189-4.25206v4.25206m22.20187-4.25206v4.25206m22.20189-4.25206v4.25206m22.20187-4.25206v4.25206m22.20189-4.25206v4.25206m22.20187-4.25206v4.25206m22.20189-4.25206v4.25206m22.20188-4.25206v4.25206m22.20189-4.25206v4.25206m22.20187-4.25206v4.25206m22.20189-4.25206v4.25206" fill="none" stroke="#808080" stroke-miterlimit="10" stroke-width=".19925"/>
<path d="m-4.25249 0h4.25249m-4.25249-33.23152h4.25249m-4.25249-33.23152h4.25249m-4.25249-33.23152h4.25249m-4.25249-33.23153h4.25249m-4.25249-33.23153h4.25249" fill="none" stroke="#808080" stroke-miterlimit="10" stroke-width=".19925"/>
<path d="m0 24.92262v-216.00287h432.00438v216.00287z" fill="none" stroke="#000" stroke-miterlimit="10" stroke-width=".3985"/>
<g font-family="Arimo,Liberation Sans,Arial,sans-serif" font-size="11.95517">
<text transform="matrix(1 0 0 -1 -3.324 -203.609)"><tspan x="0" y="0">0</tspan></text>
<text transform="matrix(1 0 0 -1 18.877 -203.609)"><tspan x="0" y="0">2</tspan></text>
<text transform="matrix(1 0 0 -1 41.079 -203.487)"><tspan x="0" y="0">4</tspan></text>
<text transform="matrix(1 0 0 -1 63.28 -203.609)"><tspan x="0" y="0">6</tspan></text>
<text transform="matrix(1 0 0 -1 85.482 -203.609)"><tspan x="0" y="0">8</tspan></text>
<text transform="matrix(1 0 0 -1 104.359 -203.609)"><tspan x="0 6.649466" y="0">10</tspan></text>
<text transform="matrix(1 0 0 -1 126.561 -203.609)"><tspan x="0 6.649466" y="0">12</tspan></text>
<text transform="matrix(1 0 0 -1 148.762 -203.487)"><tspan x="0 6.649466" y="0">14</tspan></text>
<text transform="matrix(1 0 0 -1 170.964 -203.609)"><tspan x="0 6.649466" y="0">16</tspan></text>
<text transform="matrix(1 0 0 -1 193.166 -203.609)"><tspan x="0 6.649466" y="0">18</tspan></text>
<text transform="matrix(1 0 0 -1 215.367 -203.609)"><tspan x="0 6.649466" y="0">20</tspan></text>
<text transform="matrix(1 0 0 -1 237.569 -203.609)"><tspan x="0 6.649466" y="0">22</tspan></text>
<text transform="matrix(1 0 0 -1 259.77 -203.609)"><tspan x="0 6.649466" y="0">24</tspan></text>
<text transform="matrix(1 0 0 -1 281.972 -203.609)"><tspan x="0 6.649466" y="0">26</tspan></text>
<text transform="matrix(1 0 0 -1 304.174 -203.609)"><tspan x="0 6.649466" y="0">28</tspan></text>
<text transform="matrix(1 0 0 -1 326.375 -203.609)"><tspan x="0 6.649466" y="0">30</tspan></text>
<text transform="matrix(1 0 0 -1 348.577 -203.609)"><tspan x="0 6.649466" y="0">32</tspan></text>
<text transform="matrix(1 0 0 -1 370.778 -203.609)"><tspan x="0 6.649466" y="0">34</tspan></text>
<text transform="matrix(1 0 0 -1 392.98 -203.609)"><tspan x="0 6.649466" y="0">36</tspan></text>
<text transform="matrix(1 0 0 -1 415.182 -203.609)"><tspan x="0 6.649466" y="0">38</tspan></text>
<text transform="matrix(1 0 0 -1 -59.613 -2.933)"><tspan x="0 5.977585 12.62705 19.276516 25.254101 31.241251 37.878761 44.528225" y="0">copyTo08</tspan></text>
<text transform="matrix(1 0 0 -1 -59.613 -36.165)"><tspan x="0 5.977585 12.62705 19.276516 25.254101 31.241251 37.878761 44.528225" y="0">copyTo16</tspan></text>
<text transform="matrix(1 0 0 -1 -59.613 -69.396)"><tspan x="0 5.977585 12.62705 19.276516 25.254101 31.241251 37.878761 44.528225" y="0">copyTo32</tspan></text>
<text transform="matrix(1 0 0 -1 -59.602 -103.966)"><tspan x="0 8.634024 12.615095 15.271534 18.59268 25.242146 31.229296 37.878761 44.528225" y="0">writeTo08</tspan></text>
<text transform="matrix(1 0 0 -1 -59.602 -137.198)"><tspan x="0 8.634024 12.615095 15.271534 18.59268 25.242146 31.229296 37.878761 44.528225" y="0">writeTo16</tspan></text>
<text transform="matrix(1 0 0 -1 -59.602 -170.429)"><tspan x="0 8.634024 12.615095 15.271534 18.59268 25.242146 31.229296 37.878761 44.528225" y="0">writeTo32</tspan></text>
</g>
<g clip-path="url(#a)" stroke="#000" stroke-miterlimit="10" stroke-width=".3985">
<path d="m0-44.19057h37.38795v9.96277h-37.38795zm0-33.23152h329.3538v9.96277h-329.3538zm0-66.46304h35.15666v9.96277h-35.15666zm0-33.23154h328.08829v9.96277h-328.08829z" fill="#a6cee3"/>
<path d="m37.38795-39.20918h.34414" fill="#a6cee3"/>
<path d="m0 1.99255v-3.9851" fill="none" transform="translate(37.732 -39.209)"/>
<path d="m37.38795-39.20918h-.34413" fill="#a6cee3"/>
<path d="m0 1.99255v-3.9851" fill="none" transform="matrix(-1 0 0 -1 37.044 -39.208)"/>
<path d="m329.3538-72.4407h8.20359" fill="#a6cee3"/>
<path d="m0 1.99255v-3.9851" fill="none" transform="translate(337.553 -72.44)"/>
<path d="m329.3538-72.4407h-8.2036" fill="#a6cee3"/>
<path d="m0 1.99255v-3.9851" fill="none" transform="matrix(-1 0 0 -1 321.146 -72.439)"/>
<path d="m35.15666-138.90375h.92139" fill="#a6cee3"/>
<path d="m0 1.99255v-3.9851" fill="none" transform="translate(36.078 -138.902)"/>
<path d="m35.15666-138.90375h-.92137" fill="#a6cee3"/>
<path d="m0 1.99255v-3.9851" fill="none" transform="matrix(-1 0 0 -1 34.235 -138.903)"/>
<path d="m328.08829-172.13528h1.98706" fill="#a6cee3"/>
<path d="m0 1.99255v-3.9851" fill="none" transform="translate(330.071 -172.133)"/>
<path d="m328.08829-172.13528h-1.98706" fill="#a6cee3"/>
<path d="m0 1.99255v-3.9851" fill="none" transform="matrix(-1 0 0 -1 326.097 -172.134)"/>
<path d="m0 .99628h35.6784v9.96277h-35.6784zm0-33.23152h44.78117v9.96277h-44.78117zm0-33.23153h369.628v9.96277h-369.628zm0-33.23152h33.51373v9.96277h-33.51373zm0-33.23152h47.34549v9.96277h-47.34549zm0-33.23154h328.33252v9.96277h-328.33252z" fill="#1f78b4"/>
<path d="m35.6784 5.97766h.04441" fill="#1f78b4"/>
<path d="m0 1.99255v-3.9851" fill="none" transform="translate(35.722 5.978)"/>
<path d="m35.6784 5.97766h-.0444" fill="#1f78b4"/>
<path d="m0 1.99255v-3.9851" fill="none" transform="matrix(-1 0 0 -1 35.634 5.977)"/>
<path d="m44.78117-27.25386h.04442" fill="#1f78b4"/>
<path d="m0 1.99255v-3.9851" fill="none" transform="translate(44.825 -27.254)"/>
<path d="m44.78117-27.25386h-.04438" fill="#1f78b4"/>
<path d="m0 1.99255v-3.9851" fill="none" transform="matrix(-1 0 0 -1 44.736 -27.253)"/>
<path d="m369.628-60.48538h23.10106" fill="#1f78b4"/>
<path d="m0 1.99255v-3.9851" fill="none" transform="translate(392.724 -60.485)"/>
<path d="m369.628-60.48538h-23.10105" fill="#1f78b4"/>
<path d="m0 1.99255v-3.9851" fill="none" transform="matrix(-1 0 0 -1 346.523 -60.484)"/>
<path d="m33.51373-93.7169h1.47643" fill="#1f78b4"/>
<path d="m0 1.99255v-3.9851" fill="none" transform="translate(34.99 -93.716)"/>
<path d="m33.51373-93.7169h-1.47643" fill="#1f78b4"/>
<path d="m0 1.99255v-3.9851" fill="none" transform="matrix(-1 0 0 -1 32.037 -93.715)"/>
<path d="m47.34549-126.94843h.0555" fill="#1f78b4"/>
<path d="m0 1.99255v-3.9851" fill="none" transform="translate(47.401 -126.947)"/>
<path d="m47.34549-126.94843h-.05548" fill="#1f78b4"/>
<path d="m0 1.99255v-3.9851" fill="none" transform="matrix(-1 0 0 -1 47.29 -126.946)"/>
<path d="m328.33252-160.17996h1.16559" fill="#1f78b4"/>
<path d="m0 1.99255v-3.9851" fill="none" transform="translate(329.494 -160.178)"/>
<path d="m328.33252-160.17996h-1.1656" fill="#1f78b4"/>
<path d="m0 1.99255v-3.9851" fill="none" transform="matrix(-1 0 0 -1 327.163 -160.177)"/>
</g>
</g>
<g font-family="Arimo,Liberation Sans,Arial,sans-serif">
<text font-size="11.95517" transform="matrix(1.3333333 0 0 1.3333333 270.5026599041 389.1199971822)"><tspan x="0 7.302218 13.951683 17.932755 24.58222 31.231686 37.881153 44.530617 51.180084 57.829548 64.46228 68.443352 71.764496 75.745567 82.395035 92.353691 99.003151 108.30428 114.95374 121.60321 128.90782 134.88541 141.53487 147.51245 154.16191 160.81139 167.46085" y="0">Throughput(framespersecond)</tspan></text>
<text font-size="11.95517" transform="matrix(1.3333333 0 0 1.3333333 257.1813269038 28.8626728553)"><tspan x="0 7.974098 14.623564 21.273029 27.922495 31.243641 40.542374 47.191837 53.841305 60.490768 66.468353 75.102379 86.388062 93.037521 103.01053 109.66 119.633 128.26701 134.91649 141.56595 148.21541 151.53656 161.4976 168.14708 174.79654 178.11769 184.76715" y="0">AdoptOpenJDK13onUbuntu20.04</tspan></text>
<text font-size="10.90909" transform="matrix(1.3333333 0 0 1.3333333 202.3786616072 48.1240057071)"><tspan x="0 6.067636 9.098181 18.187635 26.672726 34.55127 43.038544 45.462543 48.493088 57.58036 64.85672 70.924355 78.200722 84.268356 92.365082 99.641449 107.51999 119.62908 127.50763 133.57526 137.20799 140.23854 146.30617 151.76071 155.39345 162.6698 171.77017 179.64871 182.07271 185.10326 194.20361 200.27126 206.3389 215.42834 224.51562 226.93962 237.2487 243.31635 249.37961 257.25815 264.53452" y="0">1.0GHzi.MX6SLLARMCortex-A9with512MiBofRAM</tspan></text>
</g>
<path d="m304.44254-18.94508h105.76103v32.86765h-105.76103z" fill="none" stroke="#000" stroke-miterlimit="10" stroke-width=".3985" transform="matrix(1.3333333 0 0 -1.3333333 96.7973309134 95.0440045341)"/>
<path d="m0-3.88544h9.56429v2.98883h-9.56429zm0 5.97765h7.17326v2.98883h-7.17326z" fill="#1f78b4" stroke="#000" stroke-miterlimit="10" stroke-width=".3985" transform="matrix(1.3333333 0 0 -1.3333333 506.9666539925 88.7653380244)"/>
<text font-family="Arimo,Liberation Sans,Arial,sans-serif" font-size="11.95517" transform="matrix(1.3333333 0 0 1.3333333 531.0626533901 93.3453379099)"><tspan x="0 7.302218 11.28329 17.932755 27.891411 34.540878 41.190342 47.839809 50.945763 54.266907 60.916374 64.897446 72.871544" y="0">FramebufferY8</tspan></text>
<path d="m0-3.88544h9.56429v2.98883h-9.56429zm0 5.97765h7.17326v2.98883h-7.17326z" fill="#a6cee3" stroke="#000" stroke-miterlimit="10" stroke-width=".3985" transform="matrix(1.3333333 0 0 -1.3333333 506.9666539925 108.0200042097)"/>
<text font-family="Arimo,Liberation Sans,Arial,sans-serif" font-size="11.95517" transform="matrix(1.3333333 0 0 1.3333333 531.0626533901 112.6000040952)"><tspan x="0 7.302218 11.28329 17.932755 27.891411 34.540878 41.190342 47.839809 50.945763 54.266907 60.916374" y="0">Framebuffer</tspan></text>
</svg>
