<?xml version="1.0" encoding="UTF-8"?>
<svg height="409.74133" viewBox="0 0 685.06268 409.74133" width="685.06268" xmlns="http://www.w3.org/2000/svg" xmlns:xlink="http://www.w3.org/1999/xlink">
<metadata>
<rdf:RDF xmlns:rdf="http://www.w3.org/1999/02/22-rdf-syntax-ns#" xmlns:cc="http://creativecommons.org/ns#" xmlns:dc="http://purl.org/dc/elements/1.1/" xmlns:xmpRights="http://ns.adobe.com/xap/1.0/rights/">
<rdf:Description>
<cc:attributionName>John Neffenger</cc:attributionName>
<cc:license rdf:resource="http://creativecommons.org/licenses/by-sa/4.0/"/>
<dc:title>JavaFX FramebufferY8 Benchmarks</dc:title>
<xmpRights:Marked>True</xmpRights:Marked>
<xmpRights:UsageTerms>This work is licensed under a Creative Commons Attribution-ShareAlike 4.0 International License.</xmpRights:UsageTerms>
<xmpRights:WebStatement rdf:resource="https://github.com/jgneff/framebufferY8"/>
</rdf:Description>
</rdf:RDF>
</metadata>
<clipPath id="a">
<path d="m0 24.92262h432.0055v-216.00287h-432.0055z"/>
</clipPath>
<g transform="matrix(1.3333333 0 0 -1.3333333 96.7959975801 95.0440045341)">
<path d="m0 24.92262v-4.25206m39.55782 4.25206v-4.25206m39.55783 4.25206v-4.25206m39.55783 4.25206v-4.25206m39.55783 4.25206v-4.25206m39.55783 4.25206v-4.25206m39.55781 4.25206v-4.25206m39.55784 4.25206v-4.25206m39.55783 4.25206v-4.25206m39.55783 4.25206v-4.25206m39.55783 4.25206v-4.25206m-395.57828-211.75081v4.25206m39.55782-4.25206v4.25206m39.55783-4.25206v4.25206m39.55783-4.25206v4.25206m39.55783-4.25206v4.25206m39.55783-4.25206v4.25206m39.55781-4.25206v4.25206m39.55784-4.25206v4.25206m39.55783-4.25206v4.25206m39.55783-4.25206v4.25206m39.55783-4.25206v4.25206" fill="none" stroke="#808080" stroke-miterlimit="10" stroke-width=".19925"/>
<path d="m-4.25182 0h4.25182m-4.25182-33.23152h4.25182m-4.25182-33.23152h4.25182m-4.25182-33.23152h4.25182m-4.25182-33.23153h4.25182m-4.25182-33.23153h4.25182" fill="none" stroke="#808080" stroke-miterlimit="10" stroke-width=".19925"/>
<path d="m0 24.92262v-216.00287h432.0055v216.00287z" fill="none" stroke="#000" stroke-miterlimit="10" stroke-width=".3985"/>
<g font-family="Arimo,Liberation Sans,Arial,sans-serif" font-size="11.9552">
<text transform="matrix(1 0 0 -1 -3.324 -203.609)"><tspan x="0" y="0">0</tspan></text>
<text transform="matrix(1 0 0 -1 36.233 -203.487)"><tspan x="0" y="0">5</tspan></text>
<text transform="matrix(1 0 0 -1 72.466 -203.609)"><tspan x="0 6.649466" y="0">10</tspan></text>
<text transform="matrix(1 0 0 -1 112.024 -203.487)"><tspan x="0 6.649466" y="0">15</tspan></text>
<text transform="matrix(1 0 0 -1 151.581 -203.609)"><tspan x="0 6.649466" y="0">20</tspan></text>
<text transform="matrix(1 0 0 -1 191.138 -203.609)"><tspan x="0 6.649466" y="0">25</tspan></text>
<text transform="matrix(1 0 0 -1 230.695 -203.609)"><tspan x="0 6.649466" y="0">30</tspan></text>
<text transform="matrix(1 0 0 -1 270.253 -203.609)"><tspan x="0 6.649466" y="0">35</tspan></text>
<text transform="matrix(1 0 0 -1 309.81 -203.609)"><tspan x="0 6.649466" y="0">40</tspan></text>
<text transform="matrix(1 0 0 -1 349.367 -203.487)"><tspan x="0 6.649466" y="0">45</tspan></text>
<text transform="matrix(1 0 0 -1 388.925 -203.609)"><tspan x="0 6.649466" y="0">50</tspan></text>
<text transform="matrix(1 0 0 -1 -59.612 -2.933)"><tspan x="0 5.977585 12.62705 19.276516 25.254101 31.241251 37.878761 44.528225" y="0">copyTo08</tspan></text>
<text transform="matrix(1 0 0 -1 -59.612 -36.165)"><tspan x="0 5.977585 12.62705 19.276516 25.254101 31.241251 37.878761 44.528225" y="0">copyTo16</tspan></text>
<text transform="matrix(1 0 0 -1 -59.612 -69.396)"><tspan x="0 5.977585 12.62705 19.276516 25.254101 31.241251 37.878761 44.528225" y="0">copyTo32</tspan></text>
<text transform="matrix(1 0 0 -1 -59.601 -103.966)"><tspan x="0 8.634024 12.615095 15.271534 18.59268 25.242146 31.229296 37.878761 44.528225" y="0">writeTo08</tspan></text>
<text transform="matrix(1 0 0 -1 -59.601 -137.198)"><tspan x="0 8.634024 12.615095 15.271534 18.59268 25.242146 31.229296 37.878761 44.528225" y="0">writeTo16</tspan></text>
<text transform="matrix(1 0 0 -1 -59.601 -170.429)"><tspan x="0 8.634024 12.615095 15.271534 18.59268 25.242146 31.229296 37.878761 44.528225" y="0">writeTo32</tspan></text>
</g>
<g clip-path="url(#a)" stroke="#000" stroke-miterlimit="10" stroke-width=".3985">
<path d="m0-44.19057h28.44998v9.96277h-28.44998zm0-33.23152h380.24565v9.96277h-380.24565zm0-66.46304h26.77272v9.96277h-26.77272zm0-33.23154h235.14754v9.96277h-235.14754z" fill="#a6cee3"/>
<path d="m28.44998-39.20918h1.78801" fill="#a6cee3"/>
<path d="m0 1.99255v-3.9851" fill="none" transform="translate(30.238 -39.209)"/>
<path d="m28.44998-39.20918h-1.78802" fill="#a6cee3"/>
<path d="m0 1.99255v-3.9851" fill="none" transform="matrix(-1 0 0 -1 26.662 -39.208)"/>
<path d="m380.24565-72.4407h4.28015" fill="#a6cee3"/>
<path d="m0 1.99255v-3.9851" fill="none" transform="translate(384.521 -72.44)"/>
<path d="m380.24565-72.4407h-4.28015" fill="#a6cee3"/>
<path d="m0 1.99255v-3.9851" fill="none" transform="matrix(-1 0 0 -1 375.961 -72.439)"/>
<path d="m26.77272-138.90375h1.33705" fill="#a6cee3"/>
<path d="m0 1.99255v-3.9851" fill="none" transform="translate(28.11 -138.902)"/>
<path d="m26.77272-138.90375h-1.33705" fill="#a6cee3"/>
<path d="m0 1.99255v-3.9851" fill="none" transform="matrix(-1 0 0 -1 25.436 -138.903)"/>
<path d="m235.14754-172.13528h1.3766" fill="#a6cee3"/>
<path d="m0 1.99255v-3.9851" fill="none" transform="translate(236.522 -172.133)"/>
<path d="m235.14754-172.13528h-1.3766" fill="#a6cee3"/>
<path d="m0 1.99255v-3.9851" fill="none" transform="matrix(-1 0 0 -1 233.768 -172.134)"/>
<path d="m0 .99628h23.34702v9.96277h-23.34702zm0-33.23152h31.90733v9.96277h-31.90733zm0-33.23153h370.43532v9.96277h-370.43532zm0-33.23152h24.47044v9.96277h-24.47044zm0-33.23152h33.85356v9.96277h-33.85356zm0-33.23154h235.07634v9.96277h-235.07634z" fill="#1f78b4"/>
<path d="m23.34702 5.97766h1.34497" fill="#1f78b4"/>
<path d="m0 1.99255v-3.9851" fill="none" transform="translate(24.692 5.978)"/>
<path d="m23.34702 5.97766h-1.34498" fill="#1f78b4"/>
<path d="m0 1.99255v-3.9851" fill="none" transform="matrix(-1 0 0 -1 22.002 5.977)"/>
<path d="m31.90733-27.25386h.03163" fill="#1f78b4"/>
<path d="m0 1.99255v-3.9851" fill="none" transform="translate(31.939 -27.254)"/>
<path d="m31.90733-27.25386h-.03164" fill="#1f78b4"/>
<path d="m0 1.99255v-3.9851" fill="none" transform="matrix(-1 0 0 -1 31.876 -27.253)"/>
<path d="m370.43532-60.48538h22.29477" fill="#1f78b4"/>
<path d="m0 1.99255v-3.9851" fill="none" transform="translate(392.726 -60.485)"/>
<path d="m370.43532-60.48538h-22.29479" fill="#1f78b4"/>
<path d="m0 1.99255v-3.9851" fill="none" transform="matrix(-1 0 0 -1 348.137 -60.484)"/>
<path d="m24.47044-93.7169h1.06017" fill="#1f78b4"/>
<path d="m0 1.99255v-3.9851" fill="none" transform="translate(25.531 -93.716)"/>
<path d="m24.47044-93.7169h-1.06013" fill="#1f78b4"/>
<path d="m0 1.99255v-3.9851" fill="none" transform="matrix(-1 0 0 -1 23.41 -93.715)"/>
<path d="m33.85356-126.94843h.03166" fill="#1f78b4"/>
<path d="m0 1.99255v-3.9851" fill="none" transform="translate(33.885 -126.947)"/>
<path d="m33.85356-126.94843h-.03163" fill="#1f78b4"/>
<path d="m0 1.99255v-3.9851" fill="none" transform="matrix(-1 0 0 -1 33.822 -126.946)"/>
<path d="m235.07634-160.17996h1.34496" fill="#1f78b4"/>
<path d="m0 1.99255v-3.9851" fill="none" transform="translate(236.419 -160.178)"/>
<path d="m235.07634-160.17996h-1.34497" fill="#1f78b4"/>
<path d="m0 1.99255v-3.9851" fill="none" transform="matrix(-1 0 0 -1 233.729 -160.177)"/>
</g>
</g>
<g font-family="Arimo,Liberation Sans,Arial,sans-serif">
<text font-size="11.9552" transform="matrix(1.3333333 0 0 1.3333333 270.5026599041 389.1199971822)"><tspan x="0 7.302218 13.951683 17.932755 24.58222 31.231686 37.881153 44.530617 51.180084 57.829548 64.46228 68.443352 71.764496 75.745567 82.395035 92.353691 99.003151 108.30428 114.95374 121.60321 128.90782 134.88541 141.53487 147.51245 154.16191 160.81139 167.46085" y="0">Throughput(framespersecond)</tspan></text>
<text font-size="11.9552" transform="matrix(1.3333333 0 0 1.3333333 250.0946604143 28.8626728553)"><tspan x="0 8.634024 15.283489 21.932955 28.58242 31.903566 41.864613 51.163345 57.812813 64.46228 71.11174 77.089325 85.723351 97.020988 103.67046 113.64346 120.29292 130.25397 138.88799 145.53746 152.18692 158.8364 162.15753 172.13054 178.78 185.42947 188.75061 195.40009" y="0">UbuntuOpenJDK14onUbuntu20.04</tspan></text>
<text font-size="10.9091" transform="matrix(1.3333333 0 0 1.3333333 201.706661624 48.1240057071)"><tspan x="0 6.067636 9.098181 18.187635 26.672726 34.55127 43.038544 45.462543 48.493088 57.58036 64.85672 70.924355 78.200722 84.268356 93.368721 100.64508 108.52363 120.64362 128.52217 134.58981 138.22253 141.25308 147.32071 152.77525 156.40799 163.68436 172.7738 180.65234 183.07635 186.10689 195.20726 201.27489 207.34253 216.44289 225.53017 227.95416 238.26326 244.33089 250.38326 258.26181 265.53815" y="0">1.0GHzi.MX6SLLARMCortex-A9with512MiBofRAM</tspan></text>
</g>
<path d="m304.4436-18.94508h105.76103v32.86765h-105.76103z" fill="none" stroke="#000" stroke-miterlimit="10" stroke-width=".3985" transform="matrix(1.3333333 0 0 -1.3333333 96.7959975801 95.0440045341)"/>
<path d="m0-3.88544h9.56429v2.98883h-9.56429zm0 5.97765h7.17326v2.98883h-7.17326z" fill="#1f78b4" stroke="#000" stroke-miterlimit="10" stroke-width=".3985" transform="matrix(1.3333333 0 0 -1.3333333 506.9666539925 88.7653380244)"/>
<text font-family="Arimo,Liberation Sans,Arial,sans-serif" font-size="11.9552" transform="matrix(1.3333333 0 0 1.3333333 531.0626533901 93.3453379099)"><tspan x="0 7.302218 11.28329 17.932755 27.891411 34.540878 41.190342 47.839809 50.945763 54.266907 60.916374 64.897446 72.871544" y="0">FramebufferY8</tspan></text>
<path d="m0-3.88544h9.56429v2.98883h-9.56429zm0 5.97765h7.17326v2.98883h-7.17326z" fill="#a6cee3" stroke="#000" stroke-miterlimit="10" stroke-width=".3985" transform="matrix(1.3333333 0 0 -1.3333333 506.9666539925 108.0200042097)"/>
<text font-family="Arimo,Liberation Sans,Arial,sans-serif" font-size="11.9552" transform="matrix(1.3333333 0 0 1.3333333 531.0626533901 112.6000040952)"><tspan x="0 7.302218 11.28329 17.932755 27.891411 34.540878 41.190342 47.839809 50.945763 54.266907 60.916374" y="0">Framebuffer</tspan></text>
</svg>
