<?xml version="1.0" encoding="UTF-8"?>
<svg height="409.74133" viewBox="0 0 687.99469 409.74133" width="687.99469" xmlns="http://www.w3.org/2000/svg" xmlns:xlink="http://www.w3.org/1999/xlink">
<metadata>
<rdf:RDF xmlns:rdf="http://www.w3.org/1999/02/22-rdf-syntax-ns#" xmlns:cc="http://creativecommons.org/ns#" xmlns:dc="http://purl.org/dc/elements/1.1/" xmlns:xmpRights="http://ns.adobe.com/xap/1.0/rights/">
<rdf:Description>
<cc:attributionName>John Neffenger</cc:attributionName>
<cc:license rdf:resource="http://creativecommons.org/licenses/by-sa/4.0/"/>
<dc:title>JavaFX FramebufferY8 Benchmarks</dc:title>
<xmpRights:Marked>True</xmpRights:Marked>
<xmpRights:UsageTerms>This work is licensed under a Creative Commons Attribution-ShareAlike 4.0 International License.</xmpRights:UsageTerms>
<xmpRights:WebStatement rdf:resource="https://github.com/jgneff/framebufferY8"/>
</rdf:Description>
</rdf:RDF>
</metadata>
<clipPath id="a">
<path d="m0 24.92262h432.00444v-216.00287h-432.00444z"/>
</clipPath>
<g transform="matrix(1.3333333 0 0 -1.3333333 96.7973309134 95.0440045341)">
<path d="m0 24.92262v-4.25206m21.1885 4.25206v-4.25206m21.18853 4.25206v-4.25206m21.18852 4.25206v-4.25206m21.18851 4.25206v-4.25206m21.18852 4.25206v-4.25206m21.18852 4.25206v-4.25206m21.18851 4.25206v-4.25206m21.18852 4.25206v-4.25206m21.18853 4.25206v-4.25206m21.1885 4.25206v-4.25206m21.18852 4.25206v-4.25206m21.18852 4.25206v-4.25206m21.18851 4.25206v-4.25206m21.18853 4.25206v-4.25206m21.18852 4.25206v-4.25206m21.18851 4.25206v-4.25206m21.18852 4.25206v-4.25206m21.18852 4.25206v-4.25206m21.18851 4.25206v-4.25206m21.18852 4.25206v-4.25206m-423.77034-211.75081v4.25206m21.1885-4.25206v4.25206m21.18853-4.25206v4.25206m21.18852-4.25206v4.25206m21.18851-4.25206v4.25206m21.18852-4.25206v4.25206m21.18852-4.25206v4.25206m21.18851-4.25206v4.25206m21.18852-4.25206v4.25206m21.18853-4.25206v4.25206m21.1885-4.25206v4.25206m21.18852-4.25206v4.25206m21.18852-4.25206v4.25206m21.18851-4.25206v4.25206m21.18853-4.25206v4.25206m21.18852-4.25206v4.25206m21.18851-4.25206v4.25206m21.18852-4.25206v4.25206m21.18852-4.25206v4.25206m21.18851-4.25206v4.25206m21.18852-4.25206v4.25206" fill="none" stroke="#808080" stroke-miterlimit="10" stroke-width=".19925"/>
<path d="m-4.2524 0h4.2524m-4.2524-33.23152h4.2524m-4.2524-33.23152h4.2524m-4.2524-33.23152h4.2524m-4.2524-33.23153h4.2524m-4.2524-33.23153h4.2524" fill="none" stroke="#808080" stroke-miterlimit="10" stroke-width=".19925"/>
<path d="m0 24.92262v-216.00287h432.00444v216.00287z" fill="none" stroke="#000" stroke-miterlimit="10" stroke-width=".3985"/>
<g font-family="Arimo,Liberation Sans,Arial,sans-serif" font-size="11.95517">
<text transform="matrix(1 0 0 -1 -3.324 -203.609)"><tspan x="0" y="0">0</tspan></text>
<text transform="matrix(1 0 0 -1 17.864 -203.609)"><tspan x="0" y="0">2</tspan></text>
<text transform="matrix(1 0 0 -1 39.052 -203.487)"><tspan x="0" y="0">4</tspan></text>
<text transform="matrix(1 0 0 -1 60.24 -203.609)"><tspan x="0" y="0">6</tspan></text>
<text transform="matrix(1 0 0 -1 81.429 -203.609)"><tspan x="0" y="0">8</tspan></text>
<text transform="matrix(1 0 0 -1 99.292 -203.609)"><tspan x="0 6.649466" y="0">10</tspan></text>
<text transform="matrix(1 0 0 -1 120.481 -203.609)"><tspan x="0 6.649466" y="0">12</tspan></text>
<text transform="matrix(1 0 0 -1 141.669 -203.487)"><tspan x="0 6.649466" y="0">14</tspan></text>
<text transform="matrix(1 0 0 -1 162.857 -203.609)"><tspan x="0 6.649466" y="0">16</tspan></text>
<text transform="matrix(1 0 0 -1 184.045 -203.609)"><tspan x="0 6.649466" y="0">18</tspan></text>
<text transform="matrix(1 0 0 -1 205.234 -203.609)"><tspan x="0 6.649466" y="0">20</tspan></text>
<text transform="matrix(1 0 0 -1 226.422 -203.609)"><tspan x="0 6.649466" y="0">22</tspan></text>
<text transform="matrix(1 0 0 -1 247.61 -203.609)"><tspan x="0 6.649466" y="0">24</tspan></text>
<text transform="matrix(1 0 0 -1 268.798 -203.609)"><tspan x="0 6.649466" y="0">26</tspan></text>
<text transform="matrix(1 0 0 -1 289.987 -203.609)"><tspan x="0 6.649466" y="0">28</tspan></text>
<text transform="matrix(1 0 0 -1 311.175 -203.609)"><tspan x="0 6.649466" y="0">30</tspan></text>
<text transform="matrix(1 0 0 -1 332.363 -203.609)"><tspan x="0 6.649466" y="0">32</tspan></text>
<text transform="matrix(1 0 0 -1 353.551 -203.609)"><tspan x="0 6.649466" y="0">34</tspan></text>
<text transform="matrix(1 0 0 -1 374.74 -203.609)"><tspan x="0 6.649466" y="0">36</tspan></text>
<text transform="matrix(1 0 0 -1 395.928 -203.609)"><tspan x="0 6.649466" y="0">38</tspan></text>
<text transform="matrix(1 0 0 -1 417.116 -203.609)"><tspan x="0 6.649466" y="0">40</tspan></text>
<text transform="matrix(1 0 0 -1 -59.613 -2.933)"><tspan x="0 5.977585 12.62705 19.276516 25.254101 31.241251 37.878761 44.528225" y="0">copyTo08</tspan></text>
<text transform="matrix(1 0 0 -1 -59.613 -36.165)"><tspan x="0 5.977585 12.62705 19.276516 25.254101 31.241251 37.878761 44.528225" y="0">copyTo16</tspan></text>
<text transform="matrix(1 0 0 -1 -59.613 -69.396)"><tspan x="0 5.977585 12.62705 19.276516 25.254101 31.241251 37.878761 44.528225" y="0">copyTo32</tspan></text>
<text transform="matrix(1 0 0 -1 -59.602 -103.966)"><tspan x="0 8.634024 12.615095 15.271534 18.59268 25.242146 31.229296 37.878761 44.528225" y="0">writeTo08</tspan></text>
<text transform="matrix(1 0 0 -1 -59.602 -137.198)"><tspan x="0 8.634024 12.615095 15.271534 18.59268 25.242146 31.229296 37.878761 44.528225" y="0">writeTo16</tspan></text>
<text transform="matrix(1 0 0 -1 -59.602 -170.429)"><tspan x="0 8.634024 12.615095 15.271534 18.59268 25.242146 31.229296 37.878761 44.528225" y="0">writeTo32</tspan></text>
</g>
<g clip-path="url(#a)" stroke="#000" stroke-miterlimit="10" stroke-width=".3985">
<path d="m0-44.19057h35.87215v9.96277h-35.87215zm0-33.23152h369.24168v9.96277h-369.24168zm0-66.46304h35.17291v9.96277h-35.17291zm0-33.23154h315.79366v9.96277h-315.79366z" fill="#a6cee3"/>
<path d="m35.87215-39.20918h.24365" fill="#a6cee3"/>
<path d="m0 1.99255v-3.9851" fill="none" transform="translate(36.115 -39.209)"/>
<path d="m35.87215-39.20918h-.24365" fill="#a6cee3"/>
<path d="m0 1.99255v-3.9851" fill="none" transform="matrix(-1 0 0 -1 35.628 -39.208)"/>
<path d="m369.24168-72.4407h23.48746" fill="#a6cee3"/>
<path d="m0 1.99255v-3.9851" fill="none" transform="translate(392.724 -72.44)"/>
<path d="m369.24168-72.4407h-23.48747" fill="#a6cee3"/>
<path d="m0 1.99255v-3.9851" fill="none" transform="matrix(-1 0 0 -1 345.75 -72.439)"/>
<path d="m35.17291-138.90375h.22251" fill="#a6cee3"/>
<path d="m0 1.99255v-3.9851" fill="none" transform="translate(35.395 -138.902)"/>
<path d="m35.17291-138.90375h-.22246" fill="#a6cee3"/>
<path d="m0 1.99255v-3.9851" fill="none" transform="matrix(-1 0 0 -1 34.95 -138.903)"/>
<path d="m315.79366-172.13528h2.74391" fill="#a6cee3"/>
<path d="m0 1.99255v-3.9851" fill="none" transform="translate(318.534 -172.133)"/>
<path d="m315.79366-172.13528h-2.74392" fill="#a6cee3"/>
<path d="m0 1.99255v-3.9851" fill="none" transform="matrix(-1 0 0 -1 313.046 -172.134)"/>
<path d="m0 .99628h33.12823v9.96277h-33.12823zm0-33.23152h42.73723v9.96277h-42.73723zm0-33.23153h346.80304v9.96277h-346.80304zm0-33.23152h30.49026v9.96277h-30.49026zm0-33.23152h45.31163v9.96277h-45.31163zm0-33.23154h314.38461v9.96277h-314.38461z" fill="#1f78b4"/>
<path d="m33.12823 5.97766h1.45142" fill="#1f78b4"/>
<path d="m0 1.99255v-3.9851" fill="none" transform="translate(34.579 5.978)"/>
<path d="m33.12823 5.97766h-1.45143" fill="#1f78b4"/>
<path d="m0 1.99255v-3.9851" fill="none" transform="matrix(-1 0 0 -1 31.676 5.977)"/>
<path d="m42.73723-27.25386h.05297" fill="#1f78b4"/>
<path d="m0 1.99255v-3.9851" fill="none" transform="translate(42.79 -27.254)"/>
<path d="m42.73723-27.25386h-.05298" fill="#1f78b4"/>
<path d="m0 1.99255v-3.9851" fill="none" transform="matrix(-1 0 0 -1 42.684 -27.253)"/>
<path d="m346.80304-60.48538h12.86143" fill="#1f78b4"/>
<path d="m0 1.99255v-3.9851" fill="none" transform="translate(359.66 -60.485)"/>
<path d="m346.80304-60.48538h-12.86142" fill="#1f78b4"/>
<path d="m0 1.99255v-3.9851" fill="none" transform="matrix(-1 0 0 -1 333.937 -60.484)"/>
<path d="m30.49026-93.7169h.03177" fill="#1f78b4"/>
<path d="m0 1.99255v-3.9851" fill="none" transform="translate(30.522 -93.716)"/>
<path d="m30.49026-93.7169h-.03178" fill="#1f78b4"/>
<path d="m0 1.99255v-3.9851" fill="none" transform="matrix(-1 0 0 -1 30.458 -93.715)"/>
<path d="m45.31163-126.94843h.03178" fill="#1f78b4"/>
<path d="m0 1.99255v-3.9851" fill="none" transform="translate(45.343 -126.947)"/>
<path d="m45.31163-126.94843h-.03178" fill="#1f78b4"/>
<path d="m0 1.99255v-3.9851" fill="none" transform="matrix(-1 0 0 -1 45.279 -126.946)"/>
<path d="m314.38461-160.17996h1.4408" fill="#1f78b4"/>
<path d="m0 1.99255v-3.9851" fill="none" transform="translate(315.821 -160.178)"/>
<path d="m314.38461-160.17996h-1.44079" fill="#1f78b4"/>
<path d="m0 1.99255v-3.9851" fill="none" transform="matrix(-1 0 0 -1 312.94 -160.177)"/>
</g>
</g>
<g font-family="Arimo,Liberation Sans,Arial,sans-serif">
<text font-size="11.95517" transform="matrix(1.3333333 0 0 1.3333333 270.5026599041 389.1199971822)"><tspan x="0 7.302218 13.951683 17.932755 24.58222 31.231686 37.881153 44.530617 51.180084 57.829548 64.46228 68.443352 71.764496 75.745567 82.395035 92.353691 99.003151 108.30428 114.95374 121.60321 128.90782 134.88541 141.53487 147.51245 154.16191 160.81139 167.46085" y="0">Throughput(framespersecond)</tspan></text>
<text font-size="11.95517" transform="matrix(1.3333333 0 0 1.3333333 278.0093263831 28.8626728553)"><tspan x="0 9.298731 15.948196 22.597662 29.247128 35.224712 43.858738 55.144417 61.793884 71.766884 78.416351 88.389351 97.023376 103.67284 110.32231 116.97177 120.29292 130.25397 136.90343 143.5529 146.87404 153.52351" y="0">OpenJDK13onUbuntu20.04</tspan></text>
<text font-size="10.90909" transform="matrix(1.3333333 0 0 1.3333333 201.706661624 48.1240057071)"><tspan x="0 6.067636 9.098181 18.187635 26.672726 34.55127 43.038544 45.462543 48.493088 57.58036 64.85672 70.924355 78.200722 84.268356 93.368721 100.64508 108.52363 120.64362 128.52217 134.58981 138.22253 141.25308 147.32071 152.77525 156.40799 163.68436 172.7738 180.65234 183.07635 186.10689 195.20726 201.27489 207.34253 216.44289 225.53017 227.95416 238.26326 244.33089 250.38326 258.26181 265.53815" y="0">1.0GHzi.MX6SLLARMCortex-A9with512MiBofRAM</tspan></text>
</g>
<path d="m304.4426-18.94508h105.76103v32.86765h-105.76103z" fill="none" stroke="#000" stroke-miterlimit="10" stroke-width=".3985" transform="matrix(1.3333333 0 0 -1.3333333 96.7973309134 95.0440045341)"/>
<path d="m0-3.88544h9.56429v2.98883h-9.56429zm0 5.97765h7.17326v2.98883h-7.17326z" fill="#1f78b4" stroke="#000" stroke-miterlimit="10" stroke-width=".3985" transform="matrix(1.3333333 0 0 -1.3333333 506.9666539925 88.7653380244)"/>
<text font-family="Arimo,Liberation Sans,Arial,sans-serif" font-size="11.95517" transform="matrix(1.3333333 0 0 1.3333333 531.0626533901 93.3453379099)"><tspan x="0 7.302218 11.28329 17.932755 27.891411 34.540878 41.190342 47.839809 50.945763 54.266907 60.916374 64.897446 72.871544" y="0">FramebufferY8</tspan></text>
<path d="m0-3.88544h9.56429v2.98883h-9.56429zm0 5.97765h7.17326v2.98883h-7.17326z" fill="#a6cee3" stroke="#000" stroke-miterlimit="10" stroke-width=".3985" transform="matrix(1.3333333 0 0 -1.3333333 506.9666539925 108.0200042097)"/>
<text font-family="Arimo,Liberation Sans,Arial,sans-serif" font-size="11.95517" transform="matrix(1.3333333 0 0 1.3333333 531.0626533901 112.6000040952)"><tspan x="0 7.302218 11.28329 17.932755 27.891411 34.540878 41.190342 47.839809 50.945763 54.266907 60.916374" y="0">Framebuffer</tspan></text>
</svg>
