<?xml version="1.0" encoding="UTF-8" standalone="no"?>
<svg height="412.34799" viewBox="0 0 687.38666 412.34799" width="687.38666" xmlns="http://www.w3.org/2000/svg" xmlns:xlink="http://www.w3.org/1999/xlink">
<metadata>
<rdf:RDF xmlns:rdf="http://www.w3.org/1999/02/22-rdf-syntax-ns#" xmlns:cc="http://creativecommons.org/ns#" xmlns:dc="http://purl.org/dc/elements/1.1/" xmlns:xmpRights="http://ns.adobe.com/xap/1.0/rights/">
<rdf:Description>
<cc:attributionName>John Neffenger</cc:attributionName>
<cc:license rdf:resource="http://creativecommons.org/licenses/by-sa/4.0/"/>
<dc:title>JavaFX FramebufferY8 Benchmarks</dc:title>
<xmpRights:Marked>True</xmpRights:Marked>
<xmpRights:UsageTerms>This work is licensed under a Creative Commons Attribution-ShareAlike 4.0 International License.</xmpRights:UsageTerms>
<xmpRights:WebStatement rdf:resource="https://github.com/jgneff/framebufferY8"/>
</rdf:Description>
</rdf:RDF>
</metadata>
<clipPath id="a">
<path d="m0 24.92262h432.00984v-216.00287h-432.00984z"/>
</clipPath>
<g transform="matrix(1.3333333 0 0 -1.3333333 96.7959975801 97.6506745341)">
<path d="m0 24.92262v-4.25206m42.33142 4.25206v-4.25206m42.33144 4.25206v-4.25206m42.33142 4.25206v-4.25206m42.33143 4.25206v-4.25206m42.33143 4.25206v-4.25206m42.33143 4.25206v-4.25206m42.33142 4.25206v-4.25206m42.33144 4.25206v-4.25206m42.33142 4.25206v-4.25206m42.33144 4.25206v-4.25206m-423.31429-211.75081v4.25206m42.33142-4.25206v4.25206m42.33144-4.25206v4.25206m42.33142-4.25206v4.25206m42.33143-4.25206v4.25206m42.33143-4.25206v4.25206m42.33143-4.25206v4.25206m42.33142-4.25206v4.25206m42.33144-4.25206v4.25206m42.33142-4.25206v4.25206m42.33144-4.25206v4.25206" fill="none" stroke="#808080" stroke-miterlimit="10" stroke-width=".19925"/>
<path d="m-4.25177 0h4.25177m-4.25177-33.23152h4.25177m-4.25177-33.23152h4.25177m-4.25177-33.23152h4.25177m-4.25177-33.23153h4.25177m-4.25177-33.23153h4.25177" fill="none" stroke="#808080" stroke-miterlimit="10" stroke-width=".19925"/>
<path d="m0 24.92262v-216.00287h432.00984v216.00287z" fill="none" stroke="#000" stroke-miterlimit="10" stroke-width=".3985"/>
<g font-family="Arimo,Liberation Sans,Arial,sans-serif" font-size="11.95517">
<text transform="matrix(1 0 0 -1 -3.324 -203.609)"><tspan x="0" y="0">0</tspan></text>
<text transform="matrix(1 0 0 -1 39.007 -203.487)"><tspan x="0" y="0">5</tspan></text>
<text transform="matrix(1 0 0 -1 78.013 -203.609)"><tspan x="0 6.649466" y="0">10</tspan></text>
<text transform="matrix(1 0 0 -1 120.344 -203.487)"><tspan x="0 6.649466" y="0">15</tspan></text>
<text transform="matrix(1 0 0 -1 162.675 -203.609)"><tspan x="0 6.649466" y="0">20</tspan></text>
<text transform="matrix(1 0 0 -1 205.006 -203.609)"><tspan x="0 6.649466" y="0">25</tspan></text>
<text transform="matrix(1 0 0 -1 247.337 -203.609)"><tspan x="0 6.649466" y="0">30</tspan></text>
<text transform="matrix(1 0 0 -1 289.668 -203.609)"><tspan x="0 6.649466" y="0">35</tspan></text>
<text transform="matrix(1 0 0 -1 331.999 -203.609)"><tspan x="0 6.649466" y="0">40</tspan></text>
<text transform="matrix(1 0 0 -1 374.329 -203.487)"><tspan x="0 6.649466" y="0">45</tspan></text>
<text transform="matrix(1 0 0 -1 416.66 -203.609)"><tspan x="0 6.649466" y="0">50</tspan></text>
<text transform="matrix(1 0 0 -1 -59.612 -2.933)"><tspan x="0 5.977585 12.62705 19.276516 25.254101 31.241251 37.878761 44.528225" y="0">copyTo08</tspan></text>
<text transform="matrix(1 0 0 -1 -59.612 -36.165)"><tspan x="0 5.977585 12.62705 19.276516 25.254101 31.241251 37.878761 44.528225" y="0">copyTo16</tspan></text>
<text transform="matrix(1 0 0 -1 -59.612 -69.396)"><tspan x="0 5.977585 12.62705 19.276516 25.254101 31.241251 37.878761 44.528225" y="0">copyTo32</tspan></text>
<text transform="matrix(1 0 0 -1 -59.601 -103.966)"><tspan x="0 8.634024 12.615095 15.271534 18.59268 25.242146 31.229296 37.878761 44.528225" y="0">writeTo08</tspan></text>
<text transform="matrix(1 0 0 -1 -59.601 -137.198)"><tspan x="0 8.634024 12.615095 15.271534 18.59268 25.242146 31.229296 37.878761 44.528225" y="0">writeTo16</tspan></text>
<text transform="matrix(1 0 0 -1 -59.601 -170.429)"><tspan x="0 8.634024 12.615095 15.271534 18.59268 25.242146 31.229296 37.878761 44.528225" y="0">writeTo32</tspan></text>
</g>
<g clip-path="url(#a)" stroke="#000" stroke-miterlimit="10" stroke-width=".3985">
<path d="m0-44.19057h33.12009v9.96277h-33.12009zm0-33.23152h388.93268v9.96277h-388.93268zm0-66.46304h29.40338v9.96277h-29.40338zm0-33.23154h186.79166v9.96277h-186.79166z" fill="#a6cee3"/>
<path d="m33.12009-39.20918h6.25659" fill="#a6cee3"/>
<path d="m0 1.99255v-3.9851" fill="none" transform="translate(39.377 -39.209)"/>
<path d="m33.12009-39.20918h-6.25659" fill="#a6cee3"/>
<path d="m0 1.99255v-3.9851" fill="none" transform="matrix(-1 0 0 -1 26.864 -39.208)"/>
<path d="m388.93268-72.4407h3.80136" fill="#a6cee3"/>
<path d="m0 1.99255v-3.9851" fill="none" transform="translate(392.729 -72.44)"/>
<path d="m388.93268-72.4407h-3.80135" fill="#a6cee3"/>
<path d="m0 1.99255v-3.9851" fill="none" transform="matrix(-1 0 0 -1 385.127 -72.439)"/>
<path d="m29.40338-138.90375h6.78998" fill="#a6cee3"/>
<path d="m0 1.99255v-3.9851" fill="none" transform="translate(36.193 -138.902)"/>
<path d="m29.40338-138.90375h-6.78995" fill="#a6cee3"/>
<path d="m0 1.99255v-3.9851" fill="none" transform="matrix(-1 0 0 -1 22.614 -138.903)"/>
<path d="m186.79166-172.13528h6.54443" fill="#a6cee3"/>
<path d="m0 1.99255v-3.9851" fill="none" transform="translate(193.334 -172.133)"/>
<path d="m186.79166-172.13528h-6.54444" fill="#a6cee3"/>
<path d="m0 1.99255v-3.9851" fill="none" transform="matrix(-1 0 0 -1 180.245 -172.134)"/>
<path d="m0 .99628h13.96936v9.96277h-13.96936zm0-33.23152h45.65019v9.96277h-45.65019zm0-33.23153h381.74481v9.96277h-381.74481zm0-33.23152h16.46692v9.96277h-16.46692zm0-33.23152h41.28159v9.96277h-41.28159zm0-33.23154h192.98897v9.96277h-192.98897z" fill="#1f78b4"/>
<path d="m13.96936 5.97766h1.78639" fill="#1f78b4"/>
<path d="m0 1.99255v-3.9851" fill="none" transform="translate(15.756 5.978)"/>
<path d="m13.96936 5.97766h-1.78639" fill="#1f78b4"/>
<path d="m0 1.99255v-3.9851" fill="none" transform="matrix(-1 0 0 -1 12.183 5.977)"/>
<path d="m45.65019-27.25386h7.65352" fill="#1f78b4"/>
<path d="m0 1.99255v-3.9851" fill="none" transform="translate(53.303 -27.254)"/>
<path d="m45.65019-27.25386h-7.6535" fill="#1f78b4"/>
<path d="m0 1.99255v-3.9851" fill="none" transform="matrix(-1 0 0 -1 37.997 -27.253)"/>
<path d="m381.74481-60.48538h7.39107" fill="#1f78b4"/>
<path d="m0 1.99255v-3.9851" fill="none" transform="translate(389.131 -60.485)"/>
<path d="m381.74481-60.48538h-7.39107" fill="#1f78b4"/>
<path d="m0 1.99255v-3.9851" fill="none" transform="matrix(-1 0 0 -1 374.349 -60.484)"/>
<path d="m16.46692-93.7169h.05078" fill="#1f78b4"/>
<path d="m0 1.99255v-3.9851" fill="none" transform="translate(16.518 -93.716)"/>
<path d="m16.46692-93.7169h-.05082" fill="#1f78b4"/>
<path d="m0 1.99255v-3.9851" fill="none" transform="matrix(-1 0 0 -1 16.416 -93.715)"/>
<path d="m41.28159-126.94843h4.77499" fill="#1f78b4"/>
<path d="m0 1.99255v-3.9851" fill="none" transform="translate(46.056 -126.947)"/>
<path d="m41.28159-126.94843h-4.77499" fill="#1f78b4"/>
<path d="m0 1.99255v-3.9851" fill="none" transform="matrix(-1 0 0 -1 36.507 -126.946)"/>
<path d="m192.98897-160.17996h7.04394" fill="#1f78b4"/>
<path d="m0 1.99255v-3.9851" fill="none" transform="translate(200.031 -160.178)"/>
<path d="m192.98897-160.17996h-7.04395" fill="#1f78b4"/>
<path d="m0 1.99255v-3.9851" fill="none" transform="matrix(-1 0 0 -1 185.943 -160.177)"/>
</g>
</g>
<g font-family="Arimo,Liberation Sans,Arial,sans-serif">
<text font-size="11.95517" transform="matrix(1.3333333 0 0 1.3333333 270.5053265707 391.7266671822)"><tspan x="0 7.302218 13.951683 17.932755 24.58222 31.231686 37.881153 44.530617 51.180084 57.829548 64.46228 68.443352 71.764496 75.745567 82.395035 92.353691 99.003151 108.30428 114.95374 121.60321 128.90782 134.88541 141.53487 147.51245 154.16191 160.81139 167.46085" y="0">Throughput(framespersecond)</tspan></text>
<text font-size="11.95517" transform="matrix(1.3333333 0 0 1.3333333 257.1839935704 28.8626762538)"><tspan x="0 7.974098 14.623564 21.273029 27.922495 31.243641 40.542374 47.191837 53.841305 60.490768 66.468353 75.102379 86.388062 93.037521 103.01053 109.66 119.633 128.26701 134.91649 141.56595 148.21541 151.53656 161.4976 168.14708 174.79654 178.11769 184.76715" y="0">AdoptOpenJDK13onUbuntu20.04</tspan></text>
<text font-size="10.90909" transform="matrix(1.3333333 0 0 1.3333333 189.1813286038 48.1240091056)"><tspan x="0 8.48509 15.761454 24.848724 35.749088 41.816723 45.449451 54.536724 59.991268 66.058907 71.515633 76.970177 79.394173 83.026901 86.057449 92.125084 98.192719 103.64944 112.73672 118.80435 124.2589 130.32654 132.75053 138.81818 147.90762 155.78616 158.21017 161.24071 170.34108 179.44144 187.31998 194.59634 205.50761 211.57526 217.6429 226.73235 235.8327 244.31779 246.74179 257.05087 263.11853 269.18179 277.06033 284.3367" y="0">QEMUarmv7lvirtualmachinewith1CPUand1GiBofRAM</tspan></text>
</g>
<path d="m304.44774-18.94508h105.76103v32.86765h-105.76103z" fill="none" stroke="#000" stroke-miterlimit="10" stroke-width=".3985" transform="matrix(1.3333333 0 0 -1.3333333 96.7959975801 97.6506745341)"/>
<path d="m0-3.88544h9.56429v2.98883h-9.56429zm0 5.97765h7.17326v2.98883h-7.17326z" fill="#1f78b4" stroke="#000" stroke-miterlimit="10" stroke-width=".3985" transform="matrix(1.3333333 0 0 -1.3333333 506.9719873257 91.3720080244)"/>
<text font-family="Arimo,Liberation Sans,Arial,sans-serif" font-size="11.95517" transform="matrix(1.3333333 0 0 1.3333333 531.0679867233 95.9520079099)"><tspan x="0 7.302218 11.28329 17.932755 27.891411 34.540878 41.190342 47.839809 50.945763 54.266907 60.916374 64.897446 72.871544" y="0">FramebufferY8</tspan></text>
<path d="m0-3.88544h9.56429v2.98883h-9.56429zm0 5.97765h7.17326v2.98883h-7.17326z" fill="#a6cee3" stroke="#000" stroke-miterlimit="10" stroke-width=".3985" transform="matrix(1.3333333 0 0 -1.3333333 506.9719873257 110.6266742097)"/>
<text font-family="Arimo,Liberation Sans,Arial,sans-serif" font-size="11.95517" transform="matrix(1.3333333 0 0 1.3333333 531.0679867233 115.2066740952)"><tspan x="0 7.302218 11.28329 17.932755 27.891411 34.540878 41.190342 47.839809 50.945763 54.266907 60.916374" y="0">Framebuffer</tspan></text>
</svg>
