<?xml version="1.0" encoding="UTF-8" standalone="no"?>
<svg height="409.74133" viewBox="0 0 685.06 409.74133" width="685.06" xmlns="http://www.w3.org/2000/svg" xmlns:xlink="http://www.w3.org/1999/xlink">
<metadata>
<rdf:RDF xmlns:rdf="http://www.w3.org/1999/02/22-rdf-syntax-ns#" xmlns:cc="http://creativecommons.org/ns#" xmlns:dc="http://purl.org/dc/elements/1.1/" xmlns:xmpRights="http://ns.adobe.com/xap/1.0/rights/">
<rdf:Description>
<cc:attributionName>John Neffenger</cc:attributionName>
<cc:license rdf:resource="http://creativecommons.org/licenses/by-sa/4.0/"/>
<dc:title>JavaFX FramebufferY8 Benchmarks</dc:title>
<xmpRights:Marked>True</xmpRights:Marked>
<xmpRights:UsageTerms>This work is licensed under a Creative Commons Attribution-ShareAlike 4.0 International License.</xmpRights:UsageTerms>
<xmpRights:WebStatement rdf:resource="https://github.com/jgneff/framebufferY8"/>
</rdf:Description>
</rdf:RDF>
</metadata>
<clipPath id="a">
<path d="m0 24.92262h432.0044v-216.00287h-432.0044z"/>
</clipPath>
<g transform="matrix(1.3333333 0 0 -1.3333333 96.7959975801 95.0440045341)">
<path d="m0 24.92262v-4.25206m36.22829 4.25206v-4.25206m36.22828 4.25206v-4.25206m36.22829 4.25206v-4.25206m36.2283 4.25206v-4.25206m36.22829 4.25206v-4.25206m36.22829 4.25206v-4.25206m36.22828 4.25206v-4.25206m36.2283 4.25206v-4.25206m36.22829 4.25206v-4.25206m36.22829 4.25206v-4.25206m36.22828 4.25206v-4.25206m-398.51118-211.75081v4.25206m36.22829-4.25206v4.25206m36.22828-4.25206v4.25206m36.22829-4.25206v4.25206m36.2283-4.25206v4.25206m36.22829-4.25206v4.25206m36.22829-4.25206v4.25206m36.22828-4.25206v4.25206m36.2283-4.25206v4.25206m36.22829-4.25206v4.25206m36.22829-4.25206v4.25206m36.22828-4.25206v4.25206" fill="none" stroke="#808080" stroke-miterlimit="10" stroke-width=".19925"/>
<path d="m-4.25124 0h4.25124m-4.25124-33.23152h4.25124m-4.25124-33.23152h4.25124m-4.25124-33.23152h4.25124m-4.25124-33.23153h4.25124m-4.25124-33.23153h4.25124" fill="none" stroke="#808080" stroke-miterlimit="10" stroke-width=".19925"/>
<path d="m0 24.92262v-216.00287h432.0044v216.00287z" fill="none" stroke="#000" stroke-miterlimit="10" stroke-width=".3985"/>
<g font-family="Arimo,Liberation Sans,Arial,sans-serif" font-size="11.95517">
<text transform="matrix(1 0 0 -1 -3.325 -203.609)"><tspan x="0" y="0">0</tspan></text>
<text transform="matrix(1 0 0 -1 29.579 -203.609)"><tspan x="0 6.649466" y="0">10</tspan></text>
<text transform="matrix(1 0 0 -1 65.807 -203.609)"><tspan x="0 6.649466" y="0">20</tspan></text>
<text transform="matrix(1 0 0 -1 102.034 -203.609)"><tspan x="0 6.649466" y="0">30</tspan></text>
<text transform="matrix(1 0 0 -1 138.262 -203.609)"><tspan x="0 6.649466" y="0">40</tspan></text>
<text transform="matrix(1 0 0 -1 174.49 -203.609)"><tspan x="0 6.649466" y="0">50</tspan></text>
<text transform="matrix(1 0 0 -1 210.718 -203.609)"><tspan x="0 6.649466" y="0">60</tspan></text>
<text transform="matrix(1 0 0 -1 246.946 -203.609)"><tspan x="0 6.649466" y="0">70</tspan></text>
<text transform="matrix(1 0 0 -1 283.174 -203.609)"><tspan x="0 6.649466" y="0">80</tspan></text>
<text transform="matrix(1 0 0 -1 319.401 -203.609)"><tspan x="0 6.649466" y="0">90</tspan></text>
<text transform="matrix(1 0 0 -1 352.305 -203.609)"><tspan x="0 6.649466 13.298931" y="0">100</tspan></text>
<text transform="matrix(1 0 0 -1 388.976 -203.609)"><tspan x="0 5.764783 12.414248" y="0">110</tspan></text>
<text transform="matrix(1 0 0 -1 -59.612 -2.933)"><tspan x="0 5.977585 12.62705 19.276516 25.254101 31.241251 37.878761 44.528225" y="0">copyTo08</tspan></text>
<text transform="matrix(1 0 0 -1 -59.612 -36.165)"><tspan x="0 5.977585 12.62705 19.276516 25.254101 31.241251 37.878761 44.528225" y="0">copyTo16</tspan></text>
<text transform="matrix(1 0 0 -1 -59.612 -69.396)"><tspan x="0 5.977585 12.62705 19.276516 25.254101 31.241251 37.878761 44.528225" y="0">copyTo32</tspan></text>
<text transform="matrix(1 0 0 -1 -59.601 -103.966)"><tspan x="0 8.634024 12.615095 15.271534 18.59268 25.242146 31.229296 37.878761 44.528225" y="0">writeTo08</tspan></text>
<text transform="matrix(1 0 0 -1 -59.601 -137.198)"><tspan x="0 8.634024 12.615095 15.271534 18.59268 25.242146 31.229296 37.878761 44.528225" y="0">writeTo16</tspan></text>
<text transform="matrix(1 0 0 -1 -59.601 -170.429)"><tspan x="0 8.634024 12.615095 15.271534 18.59268 25.242146 31.229296 37.878761 44.528225" y="0">writeTo32</tspan></text>
</g>
<g clip-path="url(#a)" stroke="#000" stroke-miterlimit="10" stroke-width=".3985">
<path d="m0-44.19057h36.67389v9.96277h-36.67389zm0-33.23152h362.54376v9.96277h-362.54376zm0-66.46304h35.79713v9.96277h-35.79713zm0-33.23154h344.73752v9.96277h-344.73752z" fill="#a6cee3"/>
<path d="m36.67389-39.20918h.32605" fill="#a6cee3"/>
<path d="m0 1.99255v-3.9851" fill="none" transform="translate(36.999 -39.209)"/>
<path d="m36.67389-39.20918h-.32605" fill="#a6cee3"/>
<path d="m0 1.99255v-3.9851" fill="none" transform="matrix(-1 0 0 -1 36.347 -39.208)"/>
<path d="m362.54376-72.4407h30.18535" fill="#a6cee3"/>
<path d="m0 1.99255v-3.9851" fill="none" transform="translate(392.724 -72.44)"/>
<path d="m362.54376-72.4407h-30.18536" fill="#a6cee3"/>
<path d="m0 1.99255v-3.9851" fill="none" transform="matrix(-1 0 0 -1 332.354 -72.439)"/>
<path d="m35.79713-138.90375h.29349" fill="#a6cee3"/>
<path d="m0 1.99255v-3.9851" fill="none" transform="translate(36.09 -138.902)"/>
<path d="m35.79713-138.90375h-.29341" fill="#a6cee3"/>
<path d="m0 1.99255v-3.9851" fill="none" transform="matrix(-1 0 0 -1 35.503 -138.903)"/>
<path d="m344.73752-172.13528h.5507" fill="#a6cee3"/>
<path d="m0 1.99255v-3.9851" fill="none" transform="translate(345.284 -172.133)"/>
<path d="m344.73752-172.13528h-.55065" fill="#a6cee3"/>
<path d="m0 1.99255v-3.9851" fill="none" transform="matrix(-1 0 0 -1 344.182 -172.134)"/>
<path d="m0 .99628h34.98204v9.96277h-34.98204zm0-33.23152h46.41566v9.96277h-46.41566zm0-33.23153h355.83426v9.96277h-355.83426zm0-33.23152h31.57292v9.96277h-31.57292zm0-33.23152h50.57106v9.96277h-50.57106zm0-33.23154h345.75916v9.96277h-345.75916z" fill="#1f78b4"/>
<path d="m34.98204 5.97766h.07606" fill="#1f78b4"/>
<path d="m0 1.99255v-3.9851" fill="none" transform="translate(35.058 5.978)"/>
<path d="m34.98204 5.97766h-.07611" fill="#1f78b4"/>
<path d="m0 1.99255v-3.9851" fill="none" transform="matrix(-1 0 0 -1 34.905 5.977)"/>
<path d="m46.41566-27.25386h3.99961" fill="#1f78b4"/>
<path d="m0 1.99255v-3.9851" fill="none" transform="translate(50.415 -27.254)"/>
<path d="m46.41566-27.25386h-3.99963" fill="#1f78b4"/>
<path d="m0 1.99255v-3.9851" fill="none" transform="matrix(-1 0 0 -1 42.415 -27.253)"/>
<path d="m355.83426-60.48538h36.14499" fill="#1f78b4"/>
<path d="m0 1.99255v-3.9851" fill="none" transform="translate(391.974 -60.485)"/>
<path d="m355.83426-60.48538h-36.14497" fill="#1f78b4"/>
<path d="m0 1.99255v-3.9851" fill="none" transform="matrix(-1 0 0 -1 319.685 -60.484)"/>
<path d="m31.57292-93.7169h.02175" fill="#1f78b4"/>
<path d="m0 1.99255v-3.9851" fill="none" transform="translate(31.594 -93.716)"/>
<path d="m31.57292-93.7169h-.02172" fill="#1f78b4"/>
<path d="m0 1.99255v-3.9851" fill="none" transform="matrix(-1 0 0 -1 31.551 -93.715)"/>
<path d="m50.57106-126.94843h.05075" fill="#1f78b4"/>
<path d="m0 1.99255v-3.9851" fill="none" transform="translate(50.621 -126.947)"/>
<path d="m50.57106-126.94843h-.0507" fill="#1f78b4"/>
<path d="m0 1.99255v-3.9851" fill="none" transform="matrix(-1 0 0 -1 50.52 -126.946)"/>
<path d="m345.75916-160.17996h.92749" fill="#1f78b4"/>
<path d="m0 1.99255v-3.9851" fill="none" transform="translate(346.682 -160.178)"/>
<path d="m345.75916-160.17996h-.92745" fill="#1f78b4"/>
<path d="m0 1.99255v-3.9851" fill="none" transform="matrix(-1 0 0 -1 344.827 -160.177)"/>
</g>
</g>
<g font-family="Arimo,Liberation Sans,Arial,sans-serif">
<text font-size="11.95517" transform="matrix(1.3333333 0 0 1.3333333 270.5013265708 389.1199971822)"><tspan x="0 7.302218 13.951683 17.932755 24.58222 31.231686 37.881153 44.530617 51.180084 57.829548 64.46228 68.443352 71.764496 75.745567 82.395035 92.353691 99.003151 108.30428 114.95374 121.60321 128.90782 134.88541 141.53487 147.51245 154.16191 160.81139 167.46085" y="0">Throughput(framespersecond)</tspan></text>
<text font-size="11.95517" transform="matrix(1.3333333 0 0 1.3333333 250.6853270662 28.8626728553)"><tspan x="0 8.634024 15.283489 21.932955 28.58242 31.903566 41.864613 51.163345 57.812813 64.46228 71.11174 77.089325 85.723351 97.020988 102.78577 112.74682 119.39629 129.36929 138.00331 144.65277 151.30225 157.95171 161.27286 171.24585 177.89532 184.54478 187.86594 194.5154" y="0">UbuntuOpenJDK11onUbuntu20.04</tspan></text>
<text font-size="10.90909" transform="matrix(1.3333333 0 0 1.3333333 202.3773282739 48.1240057071)"><tspan x="0 6.067636 9.098181 18.187635 26.672726 34.55127 43.038544 45.462543 48.493088 57.58036 64.85672 70.924355 78.200722 84.268356 92.365082 99.641449 107.51999 119.62908 127.50763 133.57526 137.20799 140.23854 146.30617 151.76071 155.39345 162.6698 171.77017 179.64871 182.07271 185.10326 194.20361 200.27126 206.3389 215.42834 224.51562 226.93962 237.2487 243.31635 249.37961 257.25815 264.53452" y="0">1.0GHzi.MX6SLLARMCortex-A9with512MiBofRAM</tspan></text>
</g>
<path d="m304.44255-18.94508h105.76103v32.86765h-105.76103z" fill="none" stroke="#000" stroke-miterlimit="10" stroke-width=".3985" transform="matrix(1.3333333 0 0 -1.3333333 96.7959975801 95.0440045341)"/>
<path d="m0-3.88544h9.56429v2.98883h-9.56429zm0 5.97765h7.17326v2.98883h-7.17326z" fill="#1f78b4" stroke="#000" stroke-miterlimit="10" stroke-width=".3985" transform="matrix(1.3333333 0 0 -1.3333333 506.9653206592 88.7653380244)"/>
<text font-family="Arimo,Liberation Sans,Arial,sans-serif" font-size="11.95517" transform="matrix(1.3333333 0 0 1.3333333 531.0613200568 93.3453379099)"><tspan x="0 7.302218 11.28329 17.932755 27.891411 34.540878 41.190342 47.839809 50.945763 54.266907 60.916374 64.897446 72.871544" y="0">FramebufferY8</tspan></text>
<path d="m0-3.88544h9.56429v2.98883h-9.56429zm0 5.97765h7.17326v2.98883h-7.17326z" fill="#a6cee3" stroke="#000" stroke-miterlimit="10" stroke-width=".3985" transform="matrix(1.3333333 0 0 -1.3333333 506.9653206592 108.0200042097)"/>
<text font-family="Arimo,Liberation Sans,Arial,sans-serif" font-size="11.95517" transform="matrix(1.3333333 0 0 1.3333333 531.0613200568 112.6000040952)"><tspan x="0 7.302218 11.28329 17.932755 27.891411 34.540878 41.190342 47.839809 50.945763 54.266907 60.916374" y="0">Framebuffer</tspan></text>
</svg>
