<?xml version="1.0" encoding="UTF-8"?>
<svg height="409.74133" viewBox="0 0 703.45599 409.74133" width="703.45599" xmlns="http://www.w3.org/2000/svg" xmlns:xlink="http://www.w3.org/1999/xlink">
<metadata>
<rdf:RDF xmlns:rdf="http://www.w3.org/1999/02/22-rdf-syntax-ns#" xmlns:cc="http://creativecommons.org/ns#" xmlns:dc="http://purl.org/dc/elements/1.1/" xmlns:xmpRights="http://ns.adobe.com/xap/1.0/rights/">
<rdf:Description>
<cc:attributionName>John Neffenger</cc:attributionName>
<cc:license rdf:resource="http://creativecommons.org/licenses/by-sa/4.0/"/>
<dc:title>JavaFX FramebufferY8 Benchmarks</dc:title>
<xmpRights:Marked>True</xmpRights:Marked>
<xmpRights:UsageTerms>This work is licensed under a Creative Commons Attribution-ShareAlike 4.0 International License.</xmpRights:UsageTerms>
<xmpRights:WebStatement rdf:resource="https://github.com/jgneff/framebufferY8"/>
</rdf:Description>
</rdf:RDF>
</metadata>
<clipPath id="a">
<path d="m0 24.92262h432.0045v-216.00287h-432.0045z"/>
</clipPath>
<g transform="matrix(1.3333333 0 0 -1.3333333 96.7973309134 95.0440045341)">
<path d="m0 24.92262v-4.25206m36.00345 4.25206v-4.25206m36.00345 4.25206v-4.25206m36.00345 4.25206v-4.25206m36.00346 4.25206v-4.25206m36.00345 4.25206v-4.25206m36.00344 4.25206v-4.25206m36.00347 4.25206v-4.25206m36.00345 4.25206v-4.25206m36.00345 4.25206v-4.25206m36.00346 4.25206v-4.25206m36.00345 4.25206v-4.25206m36.00345 4.25206v-4.25206m-432.04143-211.75081v4.25206m36.00345-4.25206v4.25206m36.00345-4.25206v4.25206m36.00345-4.25206v4.25206m36.00346-4.25206v4.25206m36.00345-4.25206v4.25206m36.00344-4.25206v4.25206m36.00347-4.25206v4.25206m36.00345-4.25206v4.25206m36.00345-4.25206v4.25206m36.00346-4.25206v4.25206m36.00345-4.25206v4.25206m36.00345-4.25206v4.25206" fill="none" stroke="#808080" stroke-miterlimit="10" stroke-width=".19925"/>
<path d="m-4.25255 0h4.25255m-4.25255-33.23152h4.25255m-4.25255-33.23152h4.25255m-4.25255-33.23152h4.25255m-4.25255-33.23153h4.25255m-4.25255-33.23153h4.25255" fill="none" stroke="#808080" stroke-miterlimit="10" stroke-width=".19925"/>
<path d="m0 24.92262v-216.00287h432.0045v216.00287z" fill="none" stroke="#000" stroke-miterlimit="10" stroke-width=".3985"/>
<g font-family="Arimo,Liberation Sans,Arial,sans-serif" font-size="11.9552">
<text transform="matrix(1 0 0 -1 -3.324 -203.609)"><tspan x="0" y="0">0</tspan></text>
<text transform="matrix(1 0 0 -1 29.354 -203.609)"><tspan x="0 6.649466" y="0">10</tspan></text>
<text transform="matrix(1 0 0 -1 65.357 -203.609)"><tspan x="0 6.649466" y="0">20</tspan></text>
<text transform="matrix(1 0 0 -1 101.36 -203.609)"><tspan x="0 6.649466" y="0">30</tspan></text>
<text transform="matrix(1 0 0 -1 137.363 -203.609)"><tspan x="0 6.649466" y="0">40</tspan></text>
<text transform="matrix(1 0 0 -1 173.366 -203.609)"><tspan x="0 6.649466" y="0">50</tspan></text>
<text transform="matrix(1 0 0 -1 209.369 -203.609)"><tspan x="0 6.649466" y="0">60</tspan></text>
<text transform="matrix(1 0 0 -1 245.372 -203.609)"><tspan x="0 6.649466" y="0">70</tspan></text>
<text transform="matrix(1 0 0 -1 281.375 -203.609)"><tspan x="0 6.649466" y="0">80</tspan></text>
<text transform="matrix(1 0 0 -1 317.378 -203.609)"><tspan x="0 6.649466" y="0">90</tspan></text>
<text transform="matrix(1 0 0 -1 350.057 -203.609)"><tspan x="0 6.649466 13.298931" y="0">100</tspan></text>
<text transform="matrix(1 0 0 -1 386.503 -203.609)"><tspan x="0 5.764783 12.414248" y="0">110</tspan></text>
<text transform="matrix(1 0 0 -1 422.063 -203.609)"><tspan x="0 6.649466 13.298931" y="0">120</tspan></text>
<text transform="matrix(1 0 0 -1 -59.613 -2.933)"><tspan x="0 5.977585 12.62705 19.276516 25.254101 31.241251 37.878761 44.528225" y="0">copyTo08</tspan></text>
<text transform="matrix(1 0 0 -1 -59.613 -36.165)"><tspan x="0 5.977585 12.62705 19.276516 25.254101 31.241251 37.878761 44.528225" y="0">copyTo16</tspan></text>
<text transform="matrix(1 0 0 -1 -59.613 -69.396)"><tspan x="0 5.977585 12.62705 19.276516 25.254101 31.241251 37.878761 44.528225" y="0">copyTo32</tspan></text>
<text transform="matrix(1 0 0 -1 -59.602 -103.966)"><tspan x="0 8.634024 12.615095 15.271534 18.59268 25.242146 31.229296 37.878761 44.528225" y="0">writeTo08</tspan></text>
<text transform="matrix(1 0 0 -1 -59.602 -137.198)"><tspan x="0 8.634024 12.615095 15.271534 18.59268 25.242146 31.229296 37.878761 44.528225" y="0">writeTo16</tspan></text>
<text transform="matrix(1 0 0 -1 -59.602 -170.429)"><tspan x="0 8.634024 12.615095 15.271534 18.59268 25.242146 31.229296 37.878761 44.528225" y="0">writeTo32</tspan></text>
</g>
<g clip-path="url(#a)" stroke="#000" stroke-miterlimit="10" stroke-width=".3985">
<path d="m0-44.19057h35.93861v9.96277h-35.93861zm0-33.23152h364.62857v9.96277h-364.62857zm0-66.46304h35.49576v9.96277h-35.49576zm0-33.23154h339.71056v9.96277h-339.71056z" fill="#a6cee3"/>
<path d="m35.93861-39.20918h.0468" fill="#a6cee3"/>
<path d="m0 1.99255v-3.9851" fill="none" transform="translate(35.985 -39.209)"/>
<path d="m35.93861-39.20918h-.04681" fill="#a6cee3"/>
<path d="m0 1.99255v-3.9851" fill="none" transform="matrix(-1 0 0 -1 35.892 -39.208)"/>
<path d="m364.62857-72.4407h28.10066" fill="#a6cee3"/>
<path d="m0 1.99255v-3.9851" fill="none" transform="translate(392.724 -72.44)"/>
<path d="m364.62857-72.4407h-28.10067" fill="#a6cee3"/>
<path d="m0 1.99255v-3.9851" fill="none" transform="matrix(-1 0 0 -1 336.524 -72.439)"/>
<path d="m35.49576-138.90375h.19444" fill="#a6cee3"/>
<path d="m0 1.99255v-3.9851" fill="none" transform="translate(35.69 -138.902)"/>
<path d="m35.49576-138.90375h-.19441" fill="#a6cee3"/>
<path d="m0 1.99255v-3.9851" fill="none" transform="matrix(-1 0 0 -1 35.301 -138.903)"/>
<path d="m339.71056-172.13528h.61567" fill="#a6cee3"/>
<path d="m0 1.99255v-3.9851" fill="none" transform="translate(340.322 -172.133)"/>
<path d="m339.71056-172.13528h-.61564" fill="#a6cee3"/>
<path d="m0 1.99255v-3.9851" fill="none" transform="matrix(-1 0 0 -1 339.091 -172.134)"/>
<path d="m0 .99628h32.80995v9.96277h-32.80995zm0-33.23152h43.53534v9.96277h-43.53534zm0-33.23153h348.27577v9.96277h-348.27577zm0-33.23152h31.3698v9.96277h-31.3698zm0-33.23152h50.31122v9.96277h-50.31122zm0-33.23154h343.02649v9.96277h-343.02649z" fill="#1f78b4"/>
<path d="m32.80995 5.97766h1.81815" fill="#1f78b4"/>
<path d="m0 1.99255v-3.9851" fill="none" transform="translate(34.628 5.978)"/>
<path d="m32.80995 5.97766h-1.81819" fill="#1f78b4"/>
<path d="m0 1.99255v-3.9851" fill="none" transform="matrix(-1 0 0 -1 30.992 5.977)"/>
<path d="m43.53534-27.25386h.03604" fill="#1f78b4"/>
<path d="m0 1.99255v-3.9851" fill="none" transform="translate(43.571 -27.254)"/>
<path d="m43.53534-27.25386h-.03598" fill="#1f78b4"/>
<path d="m0 1.99255v-3.9851" fill="none" transform="matrix(-1 0 0 -1 43.499 -27.253)"/>
<path d="m348.27577-60.48538h5.82897" fill="#1f78b4"/>
<path d="m0 1.99255v-3.9851" fill="none" transform="translate(354.1 -60.485)"/>
<path d="m348.27577-60.48538h-5.82892" fill="#1f78b4"/>
<path d="m0 1.99255v-3.9851" fill="none" transform="matrix(-1 0 0 -1 342.443 -60.484)"/>
<path d="m31.3698-93.7169h.02519" fill="#1f78b4"/>
<path d="m0 1.99255v-3.9851" fill="none" transform="translate(31.395 -93.716)"/>
<path d="m31.3698-93.7169h-.02523" fill="#1f78b4"/>
<path d="m0 1.99255v-3.9851" fill="none" transform="matrix(-1 0 0 -1 31.344 -93.715)"/>
<path d="m50.31122-126.94843h.072" fill="#1f78b4"/>
<path d="m0 1.99255v-3.9851" fill="none" transform="translate(50.383 -126.947)"/>
<path d="m50.31122-126.94843h-.07204" fill="#1f78b4"/>
<path d="m0 1.99255v-3.9851" fill="none" transform="matrix(-1 0 0 -1 50.239 -126.946)"/>
<path d="m343.02649-160.17996h.90366" fill="#1f78b4"/>
<path d="m0 1.99255v-3.9851" fill="none" transform="translate(343.926 -160.178)"/>
<path d="m343.02649-160.17996h-.9037" fill="#1f78b4"/>
<path d="m0 1.99255v-3.9851" fill="none" transform="matrix(-1 0 0 -1 342.119 -160.177)"/>
</g>
</g>
<g font-family="Arimo,Liberation Sans,Arial,sans-serif">
<text font-size="11.9552" transform="matrix(1.3333333 0 0 1.3333333 270.5026599041 389.1199971822)"><tspan x="0 7.302218 13.951683 17.932755 24.58222 31.231686 37.881153 44.530617 51.180084 57.829548 64.46228 68.443352 71.764496 75.745567 82.395035 92.353691 99.003151 108.30428 114.95374 121.60321 128.90782 134.88541 141.53487 147.51245 154.16191 160.81139 167.46085" y="0">Throughput(framespersecond)</tspan></text>
<text font-size="11.9552" transform="matrix(1.3333333 0 0 1.3333333 257.773326889 28.8626728553)"><tspan x="0 7.974098 14.623564 21.273029 27.922495 31.243641 40.542374 47.191837 53.841305 60.490768 66.468353 75.102379 86.388062 92.164795 102.12585 108.77531 118.73636 127.37038 134.01985 140.66931 147.31877 150.63992 160.61293 167.26239 173.91187 177.233 183.88248" y="0">AdoptOpenJDK11onUbuntu20.04</tspan></text>
<text font-size="10.9091" transform="matrix(1.3333333 0 0 1.3333333 201.7079949573 48.1240057071)"><tspan x="0 6.067636 9.098181 18.187635 26.672726 34.55127 43.038544 45.462543 48.493088 57.58036 64.85672 70.924355 78.200722 84.268356 93.368721 100.64508 108.52363 120.64362 128.52217 134.58981 138.22253 141.25308 147.32071 152.77525 156.40799 163.68436 172.7738 180.65234 183.07635 186.10689 195.20726 201.27489 207.34253 216.44289 225.53017 227.95416 238.26326 244.33089 250.38326 258.26181 265.53815" y="0">1.0GHzi.MX6SLLARMCortex-A9with512MiBofRAM</tspan></text>
</g>
<path d="m304.44266-18.94508h105.76103v32.86765h-105.76103z" fill="none" stroke="#000" stroke-miterlimit="10" stroke-width=".3985" transform="matrix(1.3333333 0 0 -1.3333333 96.7973309134 95.0440045341)"/>
<path d="m0-3.88544h9.56429v2.98883h-9.56429zm0 5.97765h7.17326v2.98883h-7.17326z" fill="#1f78b4" stroke="#000" stroke-miterlimit="10" stroke-width=".3985" transform="matrix(1.3333333 0 0 -1.3333333 506.9666539925 88.7653380244)"/>
<text font-family="Arimo,Liberation Sans,Arial,sans-serif" font-size="11.9552" transform="matrix(1.3333333 0 0 1.3333333 531.0626533901 93.3453379099)"><tspan x="0 7.302218 11.28329 17.932755 27.891411 34.540878 41.190342 47.839809 50.945763 54.266907 60.916374 64.897446 72.871544" y="0">FramebufferY8</tspan></text>
<path d="m0-3.88544h9.56429v2.98883h-9.56429zm0 5.97765h7.17326v2.98883h-7.17326z" fill="#a6cee3" stroke="#000" stroke-miterlimit="10" stroke-width=".3985" transform="matrix(1.3333333 0 0 -1.3333333 506.9666539925 108.0200042097)"/>
<text font-family="Arimo,Liberation Sans,Arial,sans-serif" font-size="11.9552" transform="matrix(1.3333333 0 0 1.3333333 531.0626533901 112.6000040952)"><tspan x="0 7.302218 11.28329 17.932755 27.891411 34.540878 41.190342 47.839809 50.945763 54.266907 60.916374" y="0">Framebuffer</tspan></text>
</svg>
