<?xml version="1.0" encoding="UTF-8" standalone="no"?>
<svg height="409.74133" viewBox="0 0 685.06403 409.74133" width="685.06403" xmlns="http://www.w3.org/2000/svg" xmlns:xlink="http://www.w3.org/1999/xlink">
<metadata>
<rdf:RDF xmlns:rdf="http://www.w3.org/1999/02/22-rdf-syntax-ns#" xmlns:cc="http://creativecommons.org/ns#" xmlns:dc="http://purl.org/dc/elements/1.1/" xmlns:xmpRights="http://ns.adobe.com/xap/1.0/rights/">
<rdf:Description>
<cc:attributionName>John Neffenger</cc:attributionName>
<cc:license rdf:resource="http://creativecommons.org/licenses/by-sa/4.0/"/>
<dc:title>JavaFX FramebufferY8 Benchmarks</dc:title>
<xmpRights:Marked>True</xmpRights:Marked>
<xmpRights:UsageTerms>This work is licensed under a Creative Commons Attribution-ShareAlike 4.0 International License.</xmpRights:UsageTerms>
<xmpRights:WebStatement rdf:resource="https://github.com/jgneff/framebufferY8"/>
</rdf:Description>
</rdf:RDF>
</metadata>
<clipPath id="a">
<path d="m0 24.92262h432.00616v-216.00287h-432.00616z"/>
</clipPath>
<g transform="matrix(1.3333333 0 0 -1.3333333 96.7973309134 95.0440045341)">
<path d="m0 24.92262v-4.25206m27.08992 4.25206v-4.25206m27.08992 4.25206v-4.25206m27.08994 4.25206v-4.25206m27.08992 4.25206v-4.25206m27.08992 4.25206v-4.25206m27.08993 4.25206v-4.25206m27.08992 4.25206v-4.25206m27.08992 4.25206v-4.25206m27.08994 4.25206v-4.25206m27.08992 4.25206v-4.25206m27.08992 4.25206v-4.25206m27.08993 4.25206v-4.25206m27.08992 4.25206v-4.25206m27.08992 4.25206v-4.25206m27.08994 4.25206v-4.25206m-406.34888-211.75081v4.25206m27.08992-4.25206v4.25206m27.08992-4.25206v4.25206m27.08994-4.25206v4.25206m27.08992-4.25206v4.25206m27.08992-4.25206v4.25206m27.08993-4.25206v4.25206m27.08992-4.25206v4.25206m27.08992-4.25206v4.25206m27.08994-4.25206v4.25206m27.08992-4.25206v4.25206m27.08992-4.25206v4.25206m27.08993-4.25206v4.25206m27.08992-4.25206v4.25206m27.08992-4.25206v4.25206m27.08994-4.25206v4.25206" fill="none" stroke="#808080" stroke-miterlimit="10" stroke-width=".19925"/>
<path d="m-4.252 0h4.252m-4.252-33.23152h4.252m-4.252-33.23152h4.252m-4.252-33.23152h4.252m-4.252-33.23153h4.252m-4.252-33.23153h4.252" fill="none" stroke="#808080" stroke-miterlimit="10" stroke-width=".19925"/>
<path d="m0 24.92262v-216.00287h432.00616v216.00287z" fill="none" stroke="#000" stroke-miterlimit="10" stroke-width=".3985"/>
<g font-family="Arimo,Liberation Sans,Arial,sans-serif" font-size="11.95517">
<text transform="matrix(1 0 0 -1 -3.325 -203.609)"><tspan x="0" y="0">0</tspan></text>
<text transform="matrix(1 0 0 -1 20.44 -203.609)"><tspan x="0 6.649466" y="0">10</tspan></text>
<text transform="matrix(1 0 0 -1 47.53 -203.609)"><tspan x="0 6.649466" y="0">20</tspan></text>
<text transform="matrix(1 0 0 -1 74.619 -203.609)"><tspan x="0 6.649466" y="0">30</tspan></text>
<text transform="matrix(1 0 0 -1 101.709 -203.609)"><tspan x="0 6.649466" y="0">40</tspan></text>
<text transform="matrix(1 0 0 -1 128.799 -203.609)"><tspan x="0 6.649466" y="0">50</tspan></text>
<text transform="matrix(1 0 0 -1 155.888 -203.609)"><tspan x="0 6.649466" y="0">60</tspan></text>
<text transform="matrix(1 0 0 -1 182.978 -203.609)"><tspan x="0 6.649466" y="0">70</tspan></text>
<text transform="matrix(1 0 0 -1 210.067 -203.609)"><tspan x="0 6.649466" y="0">80</tspan></text>
<text transform="matrix(1 0 0 -1 237.157 -203.609)"><tspan x="0 6.649466" y="0">90</tspan></text>
<text transform="matrix(1 0 0 -1 260.922 -203.609)"><tspan x="0 6.649466 13.298931" y="0">100</tspan></text>
<text transform="matrix(1 0 0 -1 288.455 -203.609)"><tspan x="0 5.764783 12.414248" y="0">110</tspan></text>
<text transform="matrix(1 0 0 -1 315.101 -203.609)"><tspan x="0 6.649466 13.298931" y="0">120</tspan></text>
<text transform="matrix(1 0 0 -1 342.191 -203.609)"><tspan x="0 6.649466 13.298931" y="0">130</tspan></text>
<text transform="matrix(1 0 0 -1 369.28 -203.609)"><tspan x="0 6.649466 13.298931" y="0">140</tspan></text>
<text transform="matrix(1 0 0 -1 396.37 -203.609)"><tspan x="0 6.649466 13.298931" y="0">150</tspan></text>
<text transform="matrix(1 0 0 -1 -59.613 -2.933)"><tspan x="0 5.977585 12.62705 19.276516 25.254101 31.241251 37.878761 44.528225" y="0">copyTo08</tspan></text>
<text transform="matrix(1 0 0 -1 -59.613 -36.165)"><tspan x="0 5.977585 12.62705 19.276516 25.254101 31.241251 37.878761 44.528225" y="0">copyTo16</tspan></text>
<text transform="matrix(1 0 0 -1 -59.613 -69.396)"><tspan x="0 5.977585 12.62705 19.276516 25.254101 31.241251 37.878761 44.528225" y="0">copyTo32</tspan></text>
<text transform="matrix(1 0 0 -1 -59.602 -103.966)"><tspan x="0 8.634024 12.615095 15.271534 18.59268 25.242146 31.229296 37.878761 44.528225" y="0">writeTo08</tspan></text>
<text transform="matrix(1 0 0 -1 -59.602 -137.198)"><tspan x="0 8.634024 12.615095 15.271534 18.59268 25.242146 31.229296 37.878761 44.528225" y="0">writeTo16</tspan></text>
<text transform="matrix(1 0 0 -1 -59.602 -170.429)"><tspan x="0 8.634024 12.615095 15.271534 18.59268 25.242146 31.229296 37.878761 44.528225" y="0">writeTo32</tspan></text>
</g>
<g clip-path="url(#a)" stroke="#000" stroke-miterlimit="10" stroke-width=".3985">
<path d="m0-44.19057h26.30159v9.96277h-26.30159zm0-33.23152h386.52989v9.96277h-386.52989zm0-66.46304h26.80006v9.96277h-26.80006zm0-33.23154h244.86314v9.96277h-244.86314z" fill="#a6cee3"/>
<path d="m26.30159-39.20918h.50389" fill="#a6cee3"/>
<path d="m0 1.99255v-3.9851" fill="none" transform="translate(26.805 -39.209)"/>
<path d="m26.30159-39.20918h-.50389" fill="#a6cee3"/>
<path d="m0 1.99255v-3.9851" fill="none" transform="matrix(-1 0 0 -1 25.797 -39.208)"/>
<path d="m386.52989-72.4407h5.40711" fill="#a6cee3"/>
<path d="m0 1.99255v-3.9851" fill="none" transform="translate(391.932 -72.44)"/>
<path d="m386.52989-72.4407h-5.40712" fill="#a6cee3"/>
<path d="m0 1.99255v-3.9851" fill="none" transform="matrix(-1 0 0 -1 381.118 -72.439)"/>
<path d="m26.80006-138.90375h1.37885" fill="#a6cee3"/>
<path d="m0 1.99255v-3.9851" fill="none" transform="translate(28.178 -138.902)"/>
<path d="m26.80006-138.90375h-1.37887" fill="#a6cee3"/>
<path d="m0 1.99255v-3.9851" fill="none" transform="matrix(-1 0 0 -1 25.421 -138.903)"/>
<path d="m244.86314-172.13528h1.14586" fill="#a6cee3"/>
<path d="m0 1.99255v-3.9851" fill="none" transform="translate(246.006 -172.133)"/>
<path d="m244.86314-172.13528h-1.14593" fill="#a6cee3"/>
<path d="m0 1.99255v-3.9851" fill="none" transform="matrix(-1 0 0 -1 243.714 -172.134)"/>
<path d="m0 .99628h25.84108v9.96277h-25.84108zm0-33.23152h30.16461v9.96277h-30.16461zm0-33.23153h387.71098v9.96277h-387.71098zm0-33.23152h25.41304v9.96277h-25.41304zm0-33.23152h30.67932v9.96277h-30.67932zm0-33.23154h243.81204v9.96277h-243.81204z" fill="#1f78b4"/>
<path d="m25.84108 5.97766h.29256" fill="#1f78b4"/>
<path d="m0 1.99255v-3.9851" fill="none" transform="translate(26.133 5.978)"/>
<path d="m25.84108 5.97766h-.29258" fill="#1f78b4"/>
<path d="m0 1.99255v-3.9851" fill="none" transform="matrix(-1 0 0 -1 25.548 5.977)"/>
<path d="m30.16461-27.25386h.02439" fill="#1f78b4"/>
<path d="m0 1.99255v-3.9851" fill="none" transform="translate(30.188 -27.254)"/>
<path d="m30.16461-27.25386h-.02435" fill="#1f78b4"/>
<path d="m0 1.99255v-3.9851" fill="none" transform="matrix(-1 0 0 -1 30.14 -27.253)"/>
<path d="m387.71098-60.48538h5.01976" fill="#1f78b4"/>
<path d="m0 1.99255v-3.9851" fill="none" transform="translate(392.725 -60.485)"/>
<path d="m387.71098-60.48538h-5.01974" fill="#1f78b4"/>
<path d="m0 1.99255v-3.9851" fill="none" transform="matrix(-1 0 0 -1 382.686 -60.484)"/>
<path d="m25.41304-93.7169h.2655" fill="#1f78b4"/>
<path d="m0 1.99255v-3.9851" fill="none" transform="translate(25.678 -93.716)"/>
<path d="m25.41304-93.7169h-.26546" fill="#1f78b4"/>
<path d="m0 1.99255v-3.9851" fill="none" transform="matrix(-1 0 0 -1 25.147 -93.715)"/>
<path d="m30.67932-126.94843h.48763" fill="#1f78b4"/>
<path d="m0 1.99255v-3.9851" fill="none" transform="translate(31.166 -126.947)"/>
<path d="m30.67932-126.94843h-.48761" fill="#1f78b4"/>
<path d="m0 1.99255v-3.9851" fill="none" transform="matrix(-1 0 0 -1 30.191 -126.946)"/>
<path d="m243.81204-160.17996h1.15943" fill="#1f78b4"/>
<path d="m0 1.99255v-3.9851" fill="none" transform="translate(244.968 -160.178)"/>
<path d="m243.81204-160.17996h-1.15947" fill="#1f78b4"/>
<path d="m0 1.99255v-3.9851" fill="none" transform="matrix(-1 0 0 -1 242.649 -160.177)"/>
</g>
</g>
<g font-family="Arimo,Liberation Sans,Arial,sans-serif">
<text font-size="11.95517" transform="matrix(1.3333333 0 0 1.3333333 270.5026599041 389.1199971822)"><tspan x="0 7.302218 13.951683 17.932755 24.58222 31.231686 37.881153 44.530617 51.180084 57.829548 64.46228 68.443352 71.764496 75.745567 82.395035 92.353691 99.003151 108.30428 114.95374 121.60321 128.90782 134.88541 141.53487 147.51245 154.16191 160.81139 167.46085" y="0">Throughput(framespersecond)</tspan></text>
<text font-size="11.95517" transform="matrix(1.3333333 0 0 1.3333333 250.0959937476 28.8626728553)"><tspan x="0 8.634024 15.283489 21.932955 28.58242 31.903566 41.864613 51.163345 57.812813 64.46228 71.11174 77.089325 85.723351 97.020988 103.67046 113.64346 120.29292 130.25397 138.88799 145.53746 152.18692 158.8364 162.15753 172.13054 178.78 185.42947 188.75061 195.40009" y="0">UbuntuOpenJDK14onUbuntu20.04</tspan></text>
<text font-size="10.90909" transform="matrix(1.3333333 0 0 1.3333333 202.3786616072 48.1240057071)"><tspan x="0 6.067636 9.098181 18.187635 26.672726 34.55127 43.038544 45.462543 48.493088 57.58036 64.85672 70.924355 78.200722 84.268356 92.365082 99.641449 107.51999 119.62908 127.50763 133.57526 137.20799 140.23854 146.30617 151.76071 155.39345 162.6698 171.77017 179.64871 182.07271 185.10326 194.20361 200.27126 206.3389 215.43925 224.52652 226.95053 237.2487 243.31635 249.37961 257.25815 264.53452" y="0">1.0GHzi.MX6SLLARMCortex-A9with512MiBofRAM</tspan></text>
</g>
<path d="m304.44423-18.94508h105.76103v32.86765h-105.76103z" fill="none" stroke="#000" stroke-miterlimit="10" stroke-width=".3985" transform="matrix(1.3333333 0 0 -1.3333333 96.7973309134 95.0440045341)"/>
<path d="m0-3.88544h9.56429v2.98883h-9.56429zm0 5.97765h7.17326v2.98883h-7.17326z" fill="#1f78b4" stroke="#000" stroke-miterlimit="10" stroke-width=".3985" transform="matrix(1.3333333 0 0 -1.3333333 506.9679873258 88.7653380244)"/>
<text font-family="Arimo,Liberation Sans,Arial,sans-serif" font-size="11.95517" transform="matrix(1.3333333 0 0 1.3333333 531.0639867234 93.3453379099)"><tspan x="0 7.302218 11.28329 17.932755 27.891411 34.540878 41.190342 47.839809 50.945763 54.266907 60.916374 64.897446 72.871544" y="0">FramebufferY8</tspan></text>
<path d="m0-3.88544h9.56429v2.98883h-9.56429zm0 5.97765h7.17326v2.98883h-7.17326z" fill="#a6cee3" stroke="#000" stroke-miterlimit="10" stroke-width=".3985" transform="matrix(1.3333333 0 0 -1.3333333 506.9679873258 108.0200042097)"/>
<text font-family="Arimo,Liberation Sans,Arial,sans-serif" font-size="11.95517" transform="matrix(1.3333333 0 0 1.3333333 531.0639867234 112.6000040952)"><tspan x="0 7.302218 11.28329 17.932755 27.891411 34.540878 41.190342 47.839809 50.945763 54.266907 60.916374" y="0">Framebuffer</tspan></text>
</svg>
