<?xml version="1.0" encoding="UTF-8" standalone="no"?>
<svg height="409.74133" viewBox="0 0 734.216 409.74133" width="734.216" xmlns="http://www.w3.org/2000/svg" xmlns:xlink="http://www.w3.org/1999/xlink">
<metadata>
<rdf:RDF xmlns:rdf="http://www.w3.org/1999/02/22-rdf-syntax-ns#" xmlns:cc="http://creativecommons.org/ns#" xmlns:dc="http://purl.org/dc/elements/1.1/" xmlns:xmpRights="http://ns.adobe.com/xap/1.0/rights/">
<rdf:Description>
<cc:attributionName>John Neffenger</cc:attributionName>
<cc:license rdf:resource="http://creativecommons.org/licenses/by-sa/4.0/"/>
<dc:title>JavaFX FramebufferY8 Benchmarks</dc:title>
<xmpRights:Marked>True</xmpRights:Marked>
<xmpRights:UsageTerms>This work is licensed under a Creative Commons Attribution-ShareAlike 4.0 International License.</xmpRights:UsageTerms>
<xmpRights:WebStatement rdf:resource="https://github.com/jgneff/framebufferY8"/>
</rdf:Description>
</rdf:RDF>
</metadata>
<clipPath id="a">
<path d="m0 24.92262h432.00653v-216.00287h-432.00653z"/>
</clipPath>
<g transform="matrix(1.3333333 0 0 -1.3333333 127.8053301382 95.0440045341)">
<path d="m0 24.92262v-4.25206m35.98795 4.25206v-4.25206m35.98794 4.25206v-4.25206m35.98795 4.25206v-4.25206m35.98794 4.25206v-4.25206m35.98795 4.25206v-4.25206m35.98794 4.25206v-4.25206m35.98795 4.25206v-4.25206m35.98796 4.25206v-4.25206m35.98795 4.25206v-4.25206m35.98794 4.25206v-4.25206m35.98795 4.25206v-4.25206m35.98794 4.25206v-4.25206m-431.85536-211.75081v4.25206m35.98795-4.25206v4.25206m35.98794-4.25206v4.25206m35.98795-4.25206v4.25206m35.98794-4.25206v4.25206m35.98795-4.25206v4.25206m35.98794-4.25206v4.25206m35.98795-4.25206v4.25206m35.98796-4.25206v4.25206m35.98795-4.25206v4.25206m35.98794-4.25206v4.25206m35.98795-4.25206v4.25206m35.98794-4.25206v4.25206" fill="none" stroke="#808080" stroke-miterlimit="10" stroke-width=".19925"/>
<path d="m-4.25221 0h4.25221m-4.25221-33.23152h4.25221m-4.25221-33.23152h4.25221m-4.25221-33.23152h4.25221m-4.25221-33.23153h4.25221m-4.25221-33.23153h4.25221" fill="none" stroke="#808080" stroke-miterlimit="10" stroke-width=".19925"/>
<path d="m0 24.92262v-216.00287h432.00653v216.00287z" fill="none" stroke="#000" stroke-miterlimit="10" stroke-width=".3985"/>
<g font-family="Arimo,Liberation Sans,Arial,sans-serif" font-size="11.95517">
<text transform="matrix(1 0 0 -1 -3.324 -203.609)"><tspan x="0" y="0">0</tspan></text>
<text transform="matrix(1 0 0 -1 29.339 -203.609)"><tspan x="0 6.649466" y="0">20</tspan></text>
<text transform="matrix(1 0 0 -1 65.326 -203.609)"><tspan x="0 6.649466" y="0">40</tspan></text>
<text transform="matrix(1 0 0 -1 101.314 -203.609)"><tspan x="0 6.649466" y="0">60</tspan></text>
<text transform="matrix(1 0 0 -1 137.301 -203.609)"><tspan x="0 6.649466" y="0">80</tspan></text>
<text transform="matrix(1 0 0 -1 169.964 -203.609)"><tspan x="0 6.649466 13.298931" y="0">100</tspan></text>
<text transform="matrix(1 0 0 -1 205.952 -203.609)"><tspan x="0 6.649466 13.298931" y="0">120</tspan></text>
<text transform="matrix(1 0 0 -1 241.939 -203.609)"><tspan x="0 6.649466 13.298931" y="0">140</tspan></text>
<text transform="matrix(1 0 0 -1 277.927 -203.609)"><tspan x="0 6.649466 13.298931" y="0">160</tspan></text>
<text transform="matrix(1 0 0 -1 313.914 -203.609)"><tspan x="0 6.649466 13.298931" y="0">180</tspan></text>
<text transform="matrix(1 0 0 -1 349.902 -203.609)"><tspan x="0 6.649466 13.298931" y="0">200</tspan></text>
<text transform="matrix(1 0 0 -1 385.889 -203.609)"><tspan x="0 6.649466 13.298931" y="0">220</tspan></text>
<text transform="matrix(1 0 0 -1 421.877 -203.609)"><tspan x="0 6.649466 13.298931" y="0">240</tspan></text>
<text transform="matrix(1 0 0 -1 -81.982 -4.273)"><tspan x="0 8.634024 15.283489 21.932955 28.58242 31.903566 38.553032 44.530617 53.164642 61.138741 66.903519" y="0">UbuntuJDK11</tspan></text>
<text transform="matrix(1 0 0 -1 -74.674 -36.322)"><tspan x="0 7.974098 14.623564 21.273029 27.922495 31.243641 37.221226 45.855251 53.82935 59.594131" y="0">AdoptJDK11</tspan></text>
<text transform="matrix(1 0 0 -1 -82.869 -70.735)"><tspan x="0 8.634024 15.283489 21.932955 28.58242 31.903566 38.553032 44.530617 53.164642 61.138741 67.788208" y="0">UbuntuJDK13</tspan></text>
<text transform="matrix(1 0 0 -1 -75.561 -102.784)"><tspan x="0 7.974098 14.623564 21.273029 27.922495 31.243641 37.221226 45.855251 53.82935 60.478813" y="0">AdoptJDK13</tspan></text>
<text transform="matrix(1 0 0 -1 -82.869 -137.198)"><tspan x="0 8.634024 15.283489 21.932955 28.58242 31.903566 38.553032 44.530617 53.164642 61.138741 67.788208" y="0">UbuntuJDK14</tspan></text>
<text transform="matrix(1 0 0 -1 -75.561 -169.247)"><tspan x="0 7.974098 14.623564 21.273029 27.922495 31.243641 37.221226 45.855251 53.82935 60.478813" y="0">AdoptJDK14</tspan></text>
</g>
<g clip-path="url(#a)" stroke="#000" stroke-miterlimit="10" stroke-width=".3985">
<path d="m0-10.95905h223.33757v9.96277h-223.33757zm0-66.46304h225.76317v9.96277h-225.76317zm0-66.46304h294.49115v9.96277h-294.49115zm0 99.69456h228.6188v9.96277h-228.6188zm0-66.46304h225.702v9.96277h-225.702zm0-66.46306h294.45158v9.96277h-294.45158z" fill="#b2df8a"/>
<path d="m223.33757-5.97766h.045" fill="#b2df8a"/>
<path d="m0 1.99255v-3.9851" fill="none" transform="translate(223.38 -5.978)"/>
<path d="m223.33757-5.97766h-.045" fill="#b2df8a"/>
<path d="m0 1.99255v-3.9851" fill="none" transform="matrix(-1 0 0 -1 223.29 -5.977)"/>
<path d="m225.76317-72.4407h.0684" fill="#b2df8a"/>
<path d="m0 1.99255v-3.9851" fill="none" transform="translate(225.829 -72.44)"/>
<path d="m225.76317-72.4407h-.0684" fill="#b2df8a"/>
<path d="m0 1.99255v-3.9851" fill="none" transform="matrix(-1 0 0 -1 225.692 -72.439)"/>
<path d="m294.49115-138.90375h.56319" fill="#b2df8a"/>
<path d="m0 1.99255v-3.9851" fill="none" transform="translate(295.051 -138.902)"/>
<path d="m294.49115-138.90375h-.56319" fill="#b2df8a"/>
<path d="m0 1.99255v-3.9851" fill="none" transform="matrix(-1 0 0 -1 293.925 -138.903)"/>
<path d="m228.6188-39.20918h.0648" fill="#b2df8a"/>
<path d="m0 1.99255v-3.9851" fill="none" transform="translate(228.681 -39.209)"/>
<path d="m228.6188-39.20918h-.0648" fill="#b2df8a"/>
<path d="m0 1.99255v-3.9851" fill="none" transform="matrix(-1 0 0 -1 228.552 -39.208)"/>
<path d="m225.702-105.67223h.0432" fill="#b2df8a"/>
<path d="m0 1.99255v-3.9851" fill="none" transform="translate(225.743 -105.671)"/>
<path d="m225.702-105.67223h-.0432" fill="#b2df8a"/>
<path d="m0 1.99255v-3.9851" fill="none" transform="matrix(-1 0 0 -1 225.656 -105.67)"/>
<path d="m294.45158-172.13528h.49662" fill="#b2df8a"/>
<path d="m0 1.99255v-3.9851" fill="none" transform="translate(294.945 -172.133)"/>
<path d="m294.45158-172.13528h-.49661" fill="#b2df8a"/>
<path d="m0 1.99255v-3.9851" fill="none" transform="matrix(-1 0 0 -1 293.952 -172.134)"/>
<path d="m0 .99628h238.56229v9.96277h-238.56229zm0-66.46305h239.81465v9.96277h-239.81465zm0-66.46304h387.5254v9.96277h-387.5254zm0 99.69457h238.13763v9.96277h-238.13763zm0-66.46305h239.44942v9.96277h-239.44942zm0-66.46306h376.52388v9.96277h-376.52388z" fill="#33a02c"/>
<path d="m238.56229 5.97766h.32206" fill="#33a02c"/>
<path d="m0 1.99255v-3.9851" fill="none" transform="translate(238.882 5.978)"/>
<path d="m238.56229 5.97766h-.32207" fill="#33a02c"/>
<path d="m0 1.99255v-3.9851" fill="none" transform="matrix(-1 0 0 -1 238.238 5.977)"/>
<path d="m239.81465-60.48538h1.08144" fill="#33a02c"/>
<path d="m0 1.99255v-3.9851" fill="none" transform="translate(240.893 -60.485)"/>
<path d="m239.81465-60.48538h-1.08142" fill="#33a02c"/>
<path d="m0 1.99255v-3.9851" fill="none" transform="matrix(-1 0 0 -1 238.731 -60.484)"/>
<path d="m387.5254-126.94843h5.20563" fill="#33a02c"/>
<path d="m0 1.99255v-3.9851" fill="none" transform="translate(392.726 -126.947)"/>
<path d="m387.5254-126.94843h-5.20564" fill="#33a02c"/>
<path d="m0 1.99255v-3.9851" fill="none" transform="matrix(-1 0 0 -1 382.315 -126.946)"/>
<path d="m238.13763-27.25386h.18894" fill="#33a02c"/>
<path d="m0 1.99255v-3.9851" fill="none" transform="translate(238.324 -27.254)"/>
<path d="m238.13763-27.25386h-.18893" fill="#33a02c"/>
<path d="m0 1.99255v-3.9851" fill="none" transform="matrix(-1 0 0 -1 237.946 -27.253)"/>
<path d="m239.44942-93.7169h.0629" fill="#33a02c"/>
<path d="m0 1.99255v-3.9851" fill="none" transform="translate(239.51 -93.716)"/>
<path d="m239.44942-93.7169h-.063" fill="#33a02c"/>
<path d="m0 1.99255v-3.9851" fill="none" transform="matrix(-1 0 0 -1 239.384 -93.715)"/>
<path d="m376.52388-160.17996h3.21552" fill="#33a02c"/>
<path d="m0 1.99255v-3.9851" fill="none" transform="translate(379.735 -160.178)"/>
<path d="m376.52388-160.17996h-3.2155" fill="#33a02c"/>
<path d="m0 1.99255v-3.9851" fill="none" transform="matrix(-1 0 0 -1 373.304 -160.177)"/>
</g>
</g>
<g font-family="Arimo,Liberation Sans,Arial,sans-serif">
<text font-size="11.95517" transform="matrix(1.3333333 0 0 1.3333333 301.5119924622 389.1199971822)"><tspan x="0 7.302218 13.951683 17.932755 24.58222 31.231686 37.881153 44.530617 51.180084 57.829548 64.46228 68.443352 71.764496 75.745567 82.395035 92.353691 99.003151 108.30428 114.95374 121.60321 128.90782 134.88541 141.53487 147.51245 154.16191 160.81139 167.46085" y="0">Throughput(framespersecond)</tspan></text>
<text font-size="11.95517" transform="matrix(1.3333333 0 0 1.3333333 248.3559937911 28.8626728553)"><tspan x="0 5.977585 12.62705 19.276516 25.254101 31.241251 37.890717 44.528225 51.177692 59.811714 66.461182 75.095207 78.416351 87.71508 90.371521 100.33257 106.98203 113.6315 117.61257 124.26204 126.91847 133.56316 137.54424 145.51833 154.15236 163.45108 171.42519 178.07465 188.04765 191.36879 201.32985 209.96387 219.2626 227.23669 233.88617 240.53563 247.18509" y="0">copyTo16New/Old16-bit(ARGB32toRGB565)</tspan></text>
<text font-size="10.90909" transform="matrix(1.3333333 0 0 1.3333333 210.8599947285 48.1240057071)"><tspan x="0 6.067636 9.098181 15.165817 24.25527 32.74036 40.618904 49.106178 52.136723 58.204357 61.234905 67.302544 72.75927 80.035629 86.103264 92.170898 101.27126 108.54763 112.18035 118.24799 123.70254 129.77017 135.22472 140.67926 146.7469 153.40144 160.67781 166.74544 170.37817 176.4458 182.51344 188.58107 197.68144 203.13599 212.23634 220.11488 222.53889 225.56944 234.65889 240.72653 249.82689 258.31198 260.73599 271.04507 277.1127 283.17596 291.05453 298.33087" y="0">3.30GHzIntelXeonProcessorE3-1225v5with16GiBofRAM</tspan></text>
</g>
<path d="m304.44458-18.94508h105.76103v32.86765h-105.76103z" fill="none" stroke="#000" stroke-miterlimit="10" stroke-width=".3985" transform="matrix(1.3333333 0 0 -1.3333333 127.8053301382 95.0440045341)"/>
<path d="m0-3.88544h9.56429v2.98883h-9.56429zm0 5.97765h7.17326v2.98883h-7.17326z" fill="#33a02c" stroke="#000" stroke-miterlimit="10" stroke-width=".3985" transform="matrix(1.3333333 0 0 -1.3333333 537.9773198839 88.7653380244)"/>
<text font-family="Arimo,Liberation Sans,Arial,sans-serif" font-size="11.95517" transform="matrix(1.3333333 0 0 1.3333333 562.0733192815 93.3453379099)"><tspan x="0 7.302218 11.28329 17.932755 27.891411 34.540878 41.190342 47.839809 50.945763 54.266907 60.916374 64.897446 72.871544" y="0">FramebufferY8</tspan></text>
<path d="m0-3.88544h9.56429v2.98883h-9.56429zm0 5.97765h7.17326v2.98883h-7.17326z" fill="#b2df8a" stroke="#000" stroke-miterlimit="10" stroke-width=".3985" transform="matrix(1.3333333 0 0 -1.3333333 537.9773198839 108.0200042097)"/>
<text font-family="Arimo,Liberation Sans,Arial,sans-serif" font-size="11.95517" transform="matrix(1.3333333 0 0 1.3333333 562.0733192815 112.6000040952)"><tspan x="0 7.302218 11.28329 17.932755 27.891411 34.540878 41.190342 47.839809 50.945763 54.266907 60.916374" y="0">Framebuffer</tspan></text>
</svg>
