<?xml version="1.0" encoding="UTF-8"?>
<svg height="411.62534" viewBox="0 0 685.06268 411.62534" width="685.06268" xmlns="http://www.w3.org/2000/svg" xmlns:xlink="http://www.w3.org/1999/xlink">
<metadata>
<rdf:RDF xmlns:rdf="http://www.w3.org/1999/02/22-rdf-syntax-ns#" xmlns:cc="http://creativecommons.org/ns#" xmlns:dc="http://purl.org/dc/elements/1.1/" xmlns:xmpRights="http://ns.adobe.com/xap/1.0/rights/">
<rdf:Description>
<cc:attributionName>John Neffenger</cc:attributionName>
<cc:license rdf:resource="http://creativecommons.org/licenses/by-sa/4.0/"/>
<dc:title>JavaFX FramebufferY8 Benchmarks</dc:title>
<xmpRights:Marked>True</xmpRights:Marked>
<xmpRights:UsageTerms>This work is licensed under a Creative Commons Attribution-ShareAlike 4.0 International License.</xmpRights:UsageTerms>
<xmpRights:WebStatement rdf:resource="https://github.com/jgneff/framebufferY8"/>
</rdf:Description>
</rdf:RDF>
</metadata>
<clipPath id="a">
<path d="m0 24.92262h432.00594v-216.00287h-432.00594z"/>
</clipPath>
<g transform="matrix(1.3333333 0 0 -1.3333333 96.7973309134 95.0440045812)">
<path d="m0 24.92262v-4.25206m39.67899 4.25206v-4.25206m39.67898 4.25206v-4.25206m39.67899 4.25206v-4.25206m39.67898 4.25206v-4.25206m39.67899 4.25206v-4.25206m39.67898 4.25206v-4.25206m39.679 4.25206v-4.25206m39.67899 4.25206v-4.25206m39.67899 4.25206v-4.25206m39.67898 4.25206v-4.25206m-396.78987-211.75081v4.25206m39.67899-4.25206v4.25206m39.67898-4.25206v4.25206m39.67899-4.25206v4.25206m39.67898-4.25206v4.25206m39.67899-4.25206v4.25206m39.67898-4.25206v4.25206m39.679-4.25206v4.25206m39.67899-4.25206v4.25206m39.67899-4.25206v4.25206m39.67898-4.25206v4.25206" fill="none" stroke="#808080" stroke-miterlimit="10" stroke-width=".19925"/>
<path d="m-4.25217 0h4.25217m-4.25217-33.23152h4.25217m-4.25217-33.23152h4.25217m-4.25217-33.23152h4.25217m-4.25217-33.23153h4.25217m-4.25217-33.23153h4.25217" fill="none" stroke="#808080" stroke-miterlimit="10" stroke-width=".19925"/>
<path d="m0 24.92262v-216.00287h432.00594v216.00287z" fill="none" stroke="#000" stroke-miterlimit="10" stroke-width=".3985"/>
<g font-family="Arimo,Liberation Sans,Arial,sans-serif" font-size="11.9552">
<text transform="matrix(1 0 0 -1 -3.325 -203.61)"><tspan x="0" y="0">0</tspan></text>
<text transform="matrix(1 0 0 -1 29.705 -203.61)"><tspan x="0 6.649466 13.298931" y="0">200</tspan></text>
<text transform="matrix(1 0 0 -1 69.383 -203.61)"><tspan x="0 6.649466 13.298931" y="0">400</tspan></text>
<text transform="matrix(1 0 0 -1 109.062 -203.61)"><tspan x="0 6.649466 13.298931" y="0">600</tspan></text>
<text transform="matrix(1 0 0 -1 148.74 -203.61)"><tspan x="0 6.649466 13.298931" y="0">800</tspan></text>
<text transform="matrix(1 0 0 -1 183.434 -203.61)"><tspan x="0 6.649466 9.970612 16.620077 23.269543" y="0">1,000</tspan></text>
<text transform="matrix(1 0 0 -1 223.112 -203.61)"><tspan x="0 6.649466 9.970612 16.620077 23.269543" y="0">1,200</tspan></text>
<text transform="matrix(1 0 0 -1 262.791 -203.61)"><tspan x="0 6.649466 9.970612 16.620077 23.269543" y="0">1,400</tspan></text>
<text transform="matrix(1 0 0 -1 302.469 -203.61)"><tspan x="0 6.649466 9.970612 16.620077 23.269543" y="0">1,600</tspan></text>
<text transform="matrix(1 0 0 -1 342.148 -203.61)"><tspan x="0 6.649466 9.970612 16.620077 23.269543" y="0">1,800</tspan></text>
<text transform="matrix(1 0 0 -1 381.826 -203.61)"><tspan x="0 6.649466 9.970612 16.620077 23.269543" y="0">2,000</tspan></text>
<text transform="matrix(1 0 0 -1 -59.613 -2.934)"><tspan x="0 5.977585 12.62705 19.276516 25.254101 31.241251 37.878761 44.528225" y="0">copyTo08</tspan></text>
<text transform="matrix(1 0 0 -1 -59.613 -36.165)"><tspan x="0 5.977585 12.62705 19.276516 25.254101 31.241251 37.878761 44.528225" y="0">copyTo16</tspan></text>
<text transform="matrix(1 0 0 -1 -59.613 -69.396)"><tspan x="0 5.977585 12.62705 19.276516 25.254101 31.241251 37.878761 44.528225" y="0">copyTo32</tspan></text>
<text transform="matrix(1 0 0 -1 -59.602 -103.967)"><tspan x="0 8.634024 12.615095 15.271534 18.59268 25.242146 31.229296 37.878761 44.528225" y="0">writeTo08</tspan></text>
<text transform="matrix(1 0 0 -1 -59.602 -137.198)"><tspan x="0 8.634024 12.615095 15.271534 18.59268 25.242146 31.229296 37.878761 44.528225" y="0">writeTo16</tspan></text>
<text transform="matrix(1 0 0 -1 -59.602 -170.429)"><tspan x="0 8.634024 12.615095 15.271534 18.59268 25.242146 31.229296 37.878761 44.528225" y="0">writeTo32</tspan></text>
</g>
<g clip-path="url(#a)" stroke="#000" stroke-miterlimit="10" stroke-width=".3985">
<path d="m0-44.19057h32.4695v9.96277h-32.4695zm0-33.23152h387.88252v9.96277h-387.88252zm0-66.46304h31.7382v9.96277h-31.7382zm0-33.23154h322.73717v9.96277h-322.73717z" fill="#a6cee3"/>
<path d="m32.4695-39.20918h.0621" fill="#a6cee3"/>
<path d="m0 1.99255v-3.9851" fill="none" transform="translate(32.531 -39.209)"/>
<path d="m32.4695-39.20918h-.0621" fill="#a6cee3"/>
<path d="m0 1.99255v-3.9851" fill="none" transform="matrix(-1 0 0 -1 32.407 -39.21)"/>
<path d="m387.88252-72.4407h2.46962" fill="#a6cee3"/>
<path d="m0 1.99255v-3.9851" fill="none" transform="translate(390.347 -72.44)"/>
<path d="m387.88252-72.4407h-2.46962" fill="#a6cee3"/>
<path d="m0 1.99255v-3.9851" fill="none" transform="matrix(-1 0 0 -1 385.408 -72.441)"/>
<path d="m31.7382-138.90375h.01766" fill="#a6cee3"/>
<path d="m0 1.99255v-3.9851" fill="none" transform="translate(31.755 -138.902)"/>
<path d="m31.7382-138.90375h-.01763" fill="#a6cee3"/>
<path d="m0 1.99255v-3.9851" fill="none" transform="matrix(-1 0 0 -1 31.72 -138.903)"/>
<path d="m322.73717-172.13528h1.33059" fill="#a6cee3"/>
<path d="m0 1.99255v-3.9851" fill="none" transform="translate(324.063 -172.133)"/>
<path d="m322.73717-172.13528h-1.3306" fill="#a6cee3"/>
<path d="m0 1.99255v-3.9851" fill="none" transform="matrix(-1 0 0 -1 321.402 -172.134)"/>
<path d="m0 .99628h21.52525v9.96277h-21.52525zm0-33.23152h42.72713v9.96277h-42.72713zm0-33.23153h389.58714v9.96277h-389.58714zm0-33.23152h27.11243v9.96277h-27.11243zm0-33.23152h40.02002v9.96277h-40.02002zm0-33.23154h326.3541v9.96277h-326.3541z" fill="#1f78b4"/>
<path d="m21.52525 5.97766h3.0783" fill="#1f78b4"/>
<path d="m0 1.99255v-3.9851" fill="none" transform="translate(24.603 5.977)"/>
<path d="m21.52525 5.97766h-3.0783" fill="#1f78b4"/>
<path d="m0 1.99255v-3.9851" fill="none" transform="matrix(-1 0 0 -1 18.447 5.978)"/>
<path d="m42.72713-27.25386h.57394" fill="#1f78b4"/>
<path d="m0 1.99255v-3.9851" fill="none" transform="translate(43.3 -27.254)"/>
<path d="m42.72713-27.25386h-.57396" fill="#1f78b4"/>
<path d="m0 1.99255v-3.9851" fill="none" transform="matrix(-1 0 0 -1 42.152 -27.253)"/>
<path d="m389.58714-60.48538h3.14337" fill="#1f78b4"/>
<path d="m0 1.99255v-3.9851" fill="none" transform="translate(392.725 -60.485)"/>
<path d="m389.58714-60.48538h-3.14335" fill="#1f78b4"/>
<path d="m0 1.99255v-3.9851" fill="none" transform="matrix(-1 0 0 -1 386.439 -60.484)"/>
<path d="m27.11243-93.7169h2.94281" fill="#1f78b4"/>
<path d="m0 1.99255v-3.9851" fill="none" transform="translate(30.055 -93.716)"/>
<path d="m27.11243-93.7169h-2.94278" fill="#1f78b4"/>
<path d="m0 1.99255v-3.9851" fill="none" transform="matrix(-1 0 0 -1 24.169 -93.717)"/>
<path d="m40.02002-126.94843h.49243" fill="#1f78b4"/>
<path d="m0 1.99255v-3.9851" fill="none" transform="translate(40.512 -126.947)"/>
<path d="m40.02002-126.94843h-.4924" fill="#1f78b4"/>
<path d="m0 1.99255v-3.9851" fill="none" transform="matrix(-1 0 0 -1 39.527 -126.948)"/>
<path d="m326.3541-160.17996h2.88125" fill="#1f78b4"/>
<path d="m0 1.99255v-3.9851" fill="none" transform="translate(329.231 -160.178)"/>
<path d="m326.3541-160.17996h-2.88128" fill="#1f78b4"/>
<path d="m0 1.99255v-3.9851" fill="none" transform="matrix(-1 0 0 -1 323.468 -160.179)"/>
</g>
</g>
<g font-family="Arimo,Liberation Sans,Arial,sans-serif">
<text font-size="11.9552" transform="matrix(1.3333333 0 0 1.3333333 270.5026599041 391.0039971822)"><tspan x="0 7.302218 13.951683 17.932755 24.58222 31.231686 37.881153 44.530617 51.180084 57.829548 64.46228 68.443352 71.764496 75.745567 82.395035 92.353691 99.003151 108.30428 114.95374 121.60321 128.90782 134.88541 141.53487 147.51245 154.16191 160.81139 167.46085" y="0">Throughput(framespersecond)</tspan></text>
<text font-size="11.9552" transform="matrix(1.3333333 0 0 1.3333333 250.0959937476 28.8626729024)"><tspan x="0 8.634024 15.283489 21.932955 28.58242 31.903566 41.864613 51.163345 57.812813 64.46228 71.11174 77.089325 85.723351 97.020988 103.67046 113.64346 120.29292 130.25397 138.88799 145.53746 152.18692 158.8364 162.15753 172.13054 178.78 185.42947 188.75061 195.40009" y="0">UbuntuOpenJDK14onUbuntu20.04</tspan></text>
<text font-size="10.9091" transform="matrix(1.3333333 0 0 1.3333333 179.8506621704 48.1240057542)"><tspan x="0 6.067636 9.098181 15.165817 24.25527 32.74036 40.618904 49.106178 52.136723 58.204357 61.234905 67.302544 72.75927 80.035629 86.103264 92.170898 101.27126 108.54763 112.18035 118.24799 123.70254 129.77017 135.22472 140.67926 146.7469 153.40144 160.67781 166.74544 170.37817 176.4458 182.51344 188.58107 197.68144 203.13599 212.23634 220.11488 222.53889 225.56944 234.65889 240.72653 249.82689 258.31198 260.73599 271.04507 277.1127 283.17596 291.05453 298.33087" y="0">3.30GHzIntelXeonProcessorE3-1225v5with16GiBofRAM</tspan></text>
</g>
<path d="m304.44403-18.94508h105.76103v32.86765h-105.76103z" fill="none" stroke="#000" stroke-miterlimit="10" stroke-width=".3985" transform="matrix(1.3333333 0 0 -1.3333333 96.7973309134 95.0440045812)"/>
<path d="m0-3.88544h9.56429v2.98883h-9.56429zm0 5.97765h7.17326v2.98883h-7.17326z" fill="#1f78b4" stroke="#000" stroke-miterlimit="10" stroke-width=".3985" transform="matrix(1.3333333 0 0 -1.3333333 506.9679873258 88.7653380715)"/>
<text font-family="Arimo,Liberation Sans,Arial,sans-serif" font-size="11.9552" transform="matrix(1.3333333 0 0 1.3333333 531.0639867234 93.345337957)"><tspan x="0 7.302218 11.28329 17.932755 27.891411 34.540878 41.190342 47.839809 50.945763 54.266907 60.916374 64.897446 72.871544" y="0">FramebufferY8</tspan></text>
<path d="m0-3.88544h9.56429v2.98883h-9.56429zm0 5.97765h7.17326v2.98883h-7.17326z" fill="#a6cee3" stroke="#000" stroke-miterlimit="10" stroke-width=".3985" transform="matrix(1.3333333 0 0 -1.3333333 506.9679873258 108.0200042568)"/>
<text font-family="Arimo,Liberation Sans,Arial,sans-serif" font-size="11.9552" transform="matrix(1.3333333 0 0 1.3333333 531.0639867234 112.6000041423)"><tspan x="0 7.302218 11.28329 17.932755 27.891411 34.540878 41.190342 47.839809 50.945763 54.266907 60.916374" y="0">Framebuffer</tspan></text>
</svg>
