<?xml version="1.0" encoding="UTF-8"?>
<svg height="409.74133" viewBox="0 0 716.07068 409.74133" width="716.07068" xmlns="http://www.w3.org/2000/svg" xmlns:xlink="http://www.w3.org/1999/xlink">
<metadata>
<rdf:RDF xmlns:rdf="http://www.w3.org/1999/02/22-rdf-syntax-ns#" xmlns:cc="http://creativecommons.org/ns#" xmlns:dc="http://purl.org/dc/elements/1.1/" xmlns:xmpRights="http://ns.adobe.com/xap/1.0/rights/">
<rdf:Description>
<cc:attributionName>John Neffenger</cc:attributionName>
<cc:license rdf:resource="http://creativecommons.org/licenses/by-sa/4.0/"/>
<dc:title>JavaFX FramebufferY8 Benchmarks</dc:title>
<xmpRights:Marked>True</xmpRights:Marked>
<xmpRights:UsageTerms>This work is licensed under a Creative Commons Attribution-ShareAlike 4.0 International License.</xmpRights:UsageTerms>
<xmpRights:WebStatement rdf:resource="https://github.com/jgneff/framebufferY8"/>
</rdf:Description>
</rdf:RDF>
</metadata>
<clipPath id="a">
<path d="m0 24.92262h432.00485v-216.00287h-432.00485z"/>
</clipPath>
<g transform="matrix(1.3333333 0 0 -1.3333333 127.8066634715 95.0440045341)">
<path d="m0 24.92262v-4.25206m37.96451 4.25206v-4.25206m37.96451 4.25206v-4.25206m37.9645 4.25206v-4.25206m37.96451 4.25206v-4.25206m37.96451 4.25206v-4.25206m37.96451 4.25206v-4.25206m37.96451 4.25206v-4.25206m37.9645 4.25206v-4.25206m37.96451 4.25206v-4.25206m37.96451 4.25206v-4.25206m37.96451 4.25206v-4.25206m-417.60959-211.75081v4.25206m37.96451-4.25206v4.25206m37.96451-4.25206v4.25206m37.9645-4.25206v4.25206m37.96451-4.25206v4.25206m37.96451-4.25206v4.25206m37.96451-4.25206v4.25206m37.96451-4.25206v4.25206m37.9645-4.25206v4.25206m37.96451-4.25206v4.25206m37.96451-4.25206v4.25206m37.96451-4.25206v4.25206" fill="none" stroke="#808080" stroke-miterlimit="10" stroke-width=".19925"/>
<path d="m-4.2524 0h4.2524m-4.2524-33.23152h4.2524m-4.2524-33.23152h4.2524m-4.2524-33.23152h4.2524m-4.2524-33.23153h4.2524m-4.2524-33.23153h4.2524" fill="none" stroke="#808080" stroke-miterlimit="10" stroke-width=".19925"/>
<path d="m0 24.92262v-216.00287h432.00485v216.00287z" fill="none" stroke="#000" stroke-miterlimit="10" stroke-width=".3985"/>
<g font-family="Arimo,Liberation Sans,Arial,sans-serif" font-size="11.9552">
<text transform="matrix(1 0 0 -1 -3.325 -203.609)"><tspan x="0" y="0">0</tspan></text>
<text transform="matrix(1 0 0 -1 31.315 -203.609)"><tspan x="0 6.649466" y="0">20</tspan></text>
<text transform="matrix(1 0 0 -1 69.279 -203.609)"><tspan x="0 6.649466" y="0">40</tspan></text>
<text transform="matrix(1 0 0 -1 107.243 -203.609)"><tspan x="0 6.649466" y="0">60</tspan></text>
<text transform="matrix(1 0 0 -1 145.207 -203.609)"><tspan x="0 6.649466" y="0">80</tspan></text>
<text transform="matrix(1 0 0 -1 179.846 -203.609)"><tspan x="0 6.649466 13.298931" y="0">100</tspan></text>
<text transform="matrix(1 0 0 -1 217.81 -203.609)"><tspan x="0 6.649466 13.298931" y="0">120</tspan></text>
<text transform="matrix(1 0 0 -1 255.774 -203.609)"><tspan x="0 6.649466 13.298931" y="0">140</tspan></text>
<text transform="matrix(1 0 0 -1 293.738 -203.609)"><tspan x="0 6.649466 13.298931" y="0">160</tspan></text>
<text transform="matrix(1 0 0 -1 331.702 -203.609)"><tspan x="0 6.649466 13.298931" y="0">180</tspan></text>
<text transform="matrix(1 0 0 -1 369.666 -203.609)"><tspan x="0 6.649466 13.298931" y="0">200</tspan></text>
<text transform="matrix(1 0 0 -1 407.63 -203.609)"><tspan x="0 6.649466 13.298931" y="0">220</tspan></text>
<text transform="matrix(1 0 0 -1 -81.983 -4.273)"><tspan x="0 8.634024 15.283489 21.932955 28.58242 31.903566 38.553032 44.530617 53.164642 61.138741 66.903519" y="0">UbuntuJDK11</tspan></text>
<text transform="matrix(1 0 0 -1 -74.675 -36.322)"><tspan x="0 7.974098 14.623564 21.273029 27.922495 31.243641 37.221226 45.855251 53.82935 59.594131" y="0">AdoptJDK11</tspan></text>
<text transform="matrix(1 0 0 -1 -82.87 -70.735)"><tspan x="0 8.634024 15.283489 21.932955 28.58242 31.903566 38.553032 44.530617 53.164642 61.138741 67.788208" y="0">UbuntuJDK13</tspan></text>
<text transform="matrix(1 0 0 -1 -75.562 -102.784)"><tspan x="0 7.974098 14.623564 21.273029 27.922495 31.243641 37.221226 45.855251 53.82935 60.478813" y="0">AdoptJDK13</tspan></text>
<text transform="matrix(1 0 0 -1 -82.87 -137.198)"><tspan x="0 8.634024 15.283489 21.932955 28.58242 31.903566 38.553032 44.530617 53.164642 61.138741 67.788208" y="0">UbuntuJDK14</tspan></text>
<text transform="matrix(1 0 0 -1 -75.562 -169.247)"><tspan x="0 7.974098 14.623564 21.273029 27.922495 31.243641 37.221226 45.855251 53.82935 60.478813" y="0">AdoptJDK14</tspan></text>
</g>
<g clip-path="url(#a)" stroke="#000" stroke-miterlimit="10" stroke-width=".3985">
<path d="m0-10.95905h218.04155v9.96277h-218.04155zm0-66.46304h236.76942v9.96277h-236.76942zm0-66.46304h303.66861v9.96277h-303.66861zm0 99.69456h221.34068v9.96277h-221.34068zm0-66.46304h236.85867v9.96277h-236.85867zm0-66.46306h300.29546v9.96277h-300.29546z" fill="#b2df8a"/>
<path d="m218.04155-5.97766h.10631" fill="#b2df8a"/>
<path d="m0 1.99255v-3.9851" fill="none" transform="translate(218.145 -5.978)"/>
<path d="m218.04155-5.97766h-.10631" fill="#b2df8a"/>
<path d="m0 1.99255v-3.9851" fill="none" transform="matrix(-1 0 0 -1 217.932 -5.977)"/>
<path d="m236.76942-72.4407h.17464" fill="#b2df8a"/>
<path d="m0 1.99255v-3.9851" fill="none" transform="translate(236.941 -72.44)"/>
<path d="m236.76942-72.4407h-.17462" fill="#b2df8a"/>
<path d="m0 1.99255v-3.9851" fill="none" transform="matrix(-1 0 0 -1 236.591 -72.439)"/>
<path d="m303.66861-138.90375h.16891" fill="#b2df8a"/>
<path d="m0 1.99255v-3.9851" fill="none" transform="translate(303.833 -138.902)"/>
<path d="m303.66861-138.90375h-.16891" fill="#b2df8a"/>
<path d="m0 1.99255v-3.9851" fill="none" transform="matrix(-1 0 0 -1 303.495 -138.903)"/>
<path d="m221.34068-39.20918h4.66772" fill="#b2df8a"/>
<path d="m0 1.99255v-3.9851" fill="none" transform="translate(226.005 -39.209)"/>
<path d="m221.34068-39.20918h-4.66774" fill="#b2df8a"/>
<path d="m0 1.99255v-3.9851" fill="none" transform="matrix(-1 0 0 -1 216.67 -39.208)"/>
<path d="m236.85867-105.67223h.2126" fill="#b2df8a"/>
<path d="m0 1.99255v-3.9851" fill="none" transform="translate(237.068 -105.671)"/>
<path d="m236.85867-105.67223h-.2126" fill="#b2df8a"/>
<path d="m0 1.99255v-3.9851" fill="none" transform="matrix(-1 0 0 -1 236.643 -105.67)"/>
<path d="m300.29546-172.13528h3.04472" fill="#b2df8a"/>
<path d="m0 1.99255v-3.9851" fill="none" transform="translate(303.336 -172.133)"/>
<path d="m300.29546-172.13528h-3.04474" fill="#b2df8a"/>
<path d="m0 1.99255v-3.9851" fill="none" transform="matrix(-1 0 0 -1 297.246 -172.134)"/>
<path d="m0 .99628h229.56566v9.96277h-229.56566zm0-66.46305h240.0021v9.96277h-240.0021zm0-66.46304h382.90811v9.96277h-382.90811zm0 99.69457h234.73834v9.96277h-234.73834zm0-66.46305h244.11179v9.96277h-244.11179zm0-66.46306h388.68633v9.96277h-388.68633z" fill="#33a02c"/>
<path d="m229.56566 5.97766h5.34161" fill="#33a02c"/>
<path d="m0 1.99255v-3.9851" fill="none" transform="translate(234.904 5.978)"/>
<path d="m229.56566 5.97766h-5.3416" fill="#33a02c"/>
<path d="m0 1.99255v-3.9851" fill="none" transform="matrix(-1 0 0 -1 224.221 5.977)"/>
<path d="m240.0021-60.48538h2.96125" fill="#33a02c"/>
<path d="m0 1.99255v-3.9851" fill="none" transform="translate(242.96 -60.485)"/>
<path d="m240.0021-60.48538h-2.96122" fill="#33a02c"/>
<path d="m0 1.99255v-3.9851" fill="none" transform="matrix(-1 0 0 -1 237.037 -60.484)"/>
<path d="m382.90811-126.94843h4.71138" fill="#33a02c"/>
<path d="m0 1.99255v-3.9851" fill="none" transform="translate(387.614 -126.947)"/>
<path d="m382.90811-126.94843h-4.71138" fill="#33a02c"/>
<path d="m0 1.99255v-3.9851" fill="none" transform="matrix(-1 0 0 -1 378.191 -126.946)"/>
<path d="m234.73834-27.25386h.14996" fill="#33a02c"/>
<path d="m0 1.99255v-3.9851" fill="none" transform="translate(234.885 -27.254)"/>
<path d="m234.73834-27.25386h-.14994" fill="#33a02c"/>
<path d="m0 1.99255v-3.9851" fill="none" transform="matrix(-1 0 0 -1 234.585 -27.253)"/>
<path d="m244.11179-93.7169h3.67685" fill="#33a02c"/>
<path d="m0 1.99255v-3.9851" fill="none" transform="translate(247.785 -93.716)"/>
<path d="m244.11179-93.7169h-3.67685" fill="#33a02c"/>
<path d="m0 1.99255v-3.9851" fill="none" transform="matrix(-1 0 0 -1 240.431 -93.715)"/>
<path d="m388.68633-160.17996h4.04317" fill="#33a02c"/>
<path d="m0 1.99255v-3.9851" fill="none" transform="translate(392.724 -160.178)"/>
<path d="m388.68633-160.17996h-4.0432" fill="#33a02c"/>
<path d="m0 1.99255v-3.9851" fill="none" transform="matrix(-1 0 0 -1 384.638 -160.177)"/>
</g>
</g>
<g font-family="Arimo,Liberation Sans,Arial,sans-serif">
<text font-size="11.9552" transform="matrix(1.3333333 0 0 1.3333333 301.5119924622 389.1199971822)"><tspan x="0 7.302218 13.951683 17.932755 24.58222 31.231686 37.881153 44.530617 51.180084 57.829548 64.46228 68.443352 71.764496 75.745567 82.395035 92.353691 99.003151 108.30428 114.95374 121.60321 128.90782 134.88541 141.53487 147.51245 154.16191 160.81139 167.46085" y="0">Throughput(framespersecond)</tspan></text>
<text font-size="11.9552" transform="matrix(1.3333333 0 0 1.3333333 248.3626604576 28.8626728553)"><tspan x="0 8.634024 12.615095 15.271534 18.59268 25.242146 31.229296 37.878761 44.528225 51.165737 59.799759 66.449226 75.083252 78.404396 87.703125 90.359566 100.32061 106.97008 113.61954 117.60062 124.25008 126.90652 133.55121 137.53227 145.50638 154.1404 163.43913 171.41322 178.0627 188.03569 191.35684 201.32985 209.96387 219.2626 227.23669 233.88617 240.53563 247.18509" y="0">writeTo16New/Old16-bit(ARGB32toRGB565)</tspan></text>
<text font-size="10.9091" transform="matrix(1.3333333 0 0 1.3333333 210.8586613952 48.1240057071)"><tspan x="0 6.067636 9.098181 15.165817 24.25527 32.74036 40.618904 49.106178 52.136723 58.204357 61.234905 67.302544 72.75927 80.035629 86.103264 92.170898 101.27126 108.54763 112.18035 118.24799 123.70254 129.77017 135.22472 140.67926 146.7469 153.40144 160.67781 166.74544 170.37817 176.4458 182.51344 188.58107 197.68144 203.13599 212.23634 220.11488 222.53889 225.56944 234.65889 240.72653 249.82689 258.31198 260.73599 271.04507 277.1127 283.17596 291.05453 298.33087" y="0">3.30GHzIntelXeonProcessorE3-1225v5with16GiBofRAM</tspan></text>
</g>
<path d="m304.443-18.94508h105.76103v32.86765h-105.76103z" fill="none" stroke="#000" stroke-miterlimit="10" stroke-width=".3985" transform="matrix(1.3333333 0 0 -1.3333333 127.8066634715 95.0440045341)"/>
<path d="m0-3.88544h9.56429v2.98883h-9.56429zm0 5.97765h7.17326v2.98883h-7.17326z" fill="#33a02c" stroke="#000" stroke-miterlimit="10" stroke-width=".3985" transform="matrix(1.3333333 0 0 -1.3333333 537.9759865506 88.7653380244)"/>
<text font-family="Arimo,Liberation Sans,Arial,sans-serif" font-size="11.9552" transform="matrix(1.3333333 0 0 1.3333333 562.0719859482 93.3453379099)"><tspan x="0 7.302218 11.28329 17.932755 27.891411 34.540878 41.190342 47.839809 50.945763 54.266907 60.916374 64.897446 72.871544" y="0">FramebufferY8</tspan></text>
<path d="m0-3.88544h9.56429v2.98883h-9.56429zm0 5.97765h7.17326v2.98883h-7.17326z" fill="#b2df8a" stroke="#000" stroke-miterlimit="10" stroke-width=".3985" transform="matrix(1.3333333 0 0 -1.3333333 537.9759865506 108.0200042097)"/>
<text font-family="Arimo,Liberation Sans,Arial,sans-serif" font-size="11.9552" transform="matrix(1.3333333 0 0 1.3333333 562.0719859482 112.6000040952)"><tspan x="0 7.302218 11.28329 17.932755 27.891411 34.540878 41.190342 47.839809 50.945763 54.266907 60.916374" y="0">Framebuffer</tspan></text>
</svg>
