<?xml version="1.0" standalone="no"?>
<!DOCTYPE svg PUBLIC "-//W3C//DTD SVG 1.1//EN" "http://www.w3.org/Graphics/SVG/1.1/DTD/svg11.dtd">
<svg version="1.1" onload="init(evt)" viewBox="0 0 1200 422" xmlns="http://www.w3.org/2000/svg" xmlns:xlink="http://www.w3.org/1999/xlink">
<style type="text/css">
	text { font-family:Verdana; font-size:12px; fill:rgb(0,0,0); }
	#search { opacity:0.1; cursor:pointer; }
	#search:hover, #search.show { opacity:1; }
	#subtitle { text-anchor:middle; font-color:rgb(160,160,160); }
	#title { text-anchor:middle; font-size:17px}
	#unzoom { cursor:pointer; }
	#frames > *:hover { stroke:black; stroke-width:0.5; cursor:pointer; }
	.hide { display:none; }
	.parent { opacity:0.5; }
</style>
<script type="text/ecmascript">
<![CDATA[
	"use strict";
	var details, searchbtn, unzoombtn, matchedtxt, svg, searching;
	function init(evt) {
		details = document.getElementById("details").firstChild;
		searchbtn = document.getElementById("search");
		unzoombtn = document.getElementById("unzoom");
		matchedtxt = document.getElementById("matched");
		svg = document.getElementsByTagName("svg")[0];
		searching = 0;
	}

	window.addEventListener("click", function(e) {
		var target = find_group(e.target);
		if (target) {
			if (target.nodeName == "a") {
				if (e.ctrlKey === false) return;
				e.preventDefault();
			}
			if (target.classList.contains("parent")) unzoom();
			zoom(target);
		}
		else if (e.target.id == "unzoom") unzoom();
		else if (e.target.id == "search") search_prompt();
	}, false)

	// mouse-over for info
	// show
	window.addEventListener("mouseover", function(e) {
		var target = find_group(e.target);
		if (target) details.nodeValue = "Function: " + g_to_text(target);
	}, false)

	// clear
	window.addEventListener("mouseout", function(e) {
		var target = find_group(e.target);
		if (target) details.nodeValue = ' ';
	}, false)

	// ctrl-F for search
	window.addEventListener("keydown",function (e) {
		if (e.keyCode === 114 || (e.ctrlKey && e.keyCode === 70)) {
			e.preventDefault();
			search_prompt();
		}
	}, false)

	// functions
	function find_child(node, selector) {
		var children = node.querySelectorAll(selector);
		if (children.length) return children[0];
		return;
	}
	function find_group(node) {
		var parent = node.parentElement;
		if (!parent) return;
		if (parent.id == "frames") return node;
		return find_group(parent);
	}
	function orig_save(e, attr, val) {
		if (e.attributes["_orig_" + attr] != undefined) return;
		if (e.attributes[attr] == undefined) return;
		if (val == undefined) val = e.attributes[attr].value;
		e.setAttribute("_orig_" + attr, val);
	}
	function orig_load(e, attr) {
		if (e.attributes["_orig_"+attr] == undefined) return;
		e.attributes[attr].value = e.attributes["_orig_" + attr].value;
		e.removeAttribute("_orig_"+attr);
	}
	function g_to_text(e) {
		var text = find_child(e, "title").firstChild.nodeValue;
		return (text)
	}
	function g_to_func(e) {
		var func = g_to_text(e);
		// if there's any manipulation we want to do to the function
		// name before it's searched, do it here before returning.
		return (func);
	}
	function update_text(e) {
		var r = find_child(e, "rect");
		var t = find_child(e, "text");
		var w = parseFloat(r.attributes.width.value) -3;
		var txt = find_child(e, "title").textContent.replace(/\([^(]*\)$/,"");
		t.attributes.x.value = parseFloat(r.attributes.x.value) + 3;

		// Smaller than this size won't fit anything
		if (w < 2 * 12 * 0.59) {
			t.textContent = "";
			return;
		}

		t.textContent = txt;
		// Fit in full text width
		if (/^ *$/.test(txt) || t.getSubStringLength(0, txt.length) < w)
			return;

		for (var x = txt.length - 2; x > 0; x--) {
			if (t.getSubStringLength(0, x + 2) <= w) {
				t.textContent = txt.substring(0, x) + "..";
				return;
			}
		}
		t.textContent = "";
	}

	// zoom
	function zoom_reset(e) {
		if (e.attributes != undefined) {
			orig_load(e, "x");
			orig_load(e, "width");
		}
		if (e.childNodes == undefined) return;
		for (var i = 0, c = e.childNodes; i < c.length; i++) {
			zoom_reset(c[i]);
		}
	}
	function zoom_child(e, x, ratio) {
		if (e.attributes != undefined) {
			if (e.attributes.x != undefined) {
				orig_save(e, "x");
				e.attributes.x.value = (parseFloat(e.attributes.x.value) - x - 10) * ratio + 10;
				if (e.tagName == "text")
					e.attributes.x.value = find_child(e.parentNode, "rect[x]").attributes.x.value + 3;
			}
			if (e.attributes.width != undefined) {
				orig_save(e, "width");
				e.attributes.width.value = parseFloat(e.attributes.width.value) * ratio;
			}
		}

		if (e.childNodes == undefined) return;
		for (var i = 0, c = e.childNodes; i < c.length; i++) {
			zoom_child(c[i], x - 10, ratio);
		}
	}
	function zoom_parent(e) {
		if (e.attributes) {
			if (e.attributes.x != undefined) {
				orig_save(e, "x");
				e.attributes.x.value = 10;
			}
			if (e.attributes.width != undefined) {
				orig_save(e, "width");
				e.attributes.width.value = parseInt(svg.width.baseVal.value) - (10 * 2);
			}
		}
		if (e.childNodes == undefined) return;
		for (var i = 0, c = e.childNodes; i < c.length; i++) {
			zoom_parent(c[i]);
		}
	}
	function zoom(node) {
		var attr = find_child(node, "rect").attributes;
		var width = parseFloat(attr.width.value);
		var xmin = parseFloat(attr.x.value);
		var xmax = parseFloat(xmin + width);
		var ymin = parseFloat(attr.y.value);
		var ratio = (svg.width.baseVal.value - 2 * 10) / width;

		// XXX: Workaround for JavaScript float issues (fix me)
		var fudge = 0.0001;

		unzoombtn.classList.remove("hide");

		var el = document.getElementById("frames").children;
		for (var i = 0; i < el.length; i++) {
			var e = el[i];
			var a = find_child(e, "rect").attributes;
			var ex = parseFloat(a.x.value);
			var ew = parseFloat(a.width.value);
			var upstack;
			// Is it an ancestor
			if (0 == 0) {
				upstack = parseFloat(a.y.value) > ymin;
			} else {
				upstack = parseFloat(a.y.value) < ymin;
			}
			if (upstack) {
				// Direct ancestor
				if (ex <= xmin && (ex+ew+fudge) >= xmax) {
					e.classList.add("parent");
					zoom_parent(e);
					update_text(e);
				}
				// not in current path
				else
					e.classList.add("hide");
			}
			// Children maybe
			else {
				// no common path
				if (ex < xmin || ex + fudge >= xmax) {
					e.classList.add("hide");
				}
				else {
					zoom_child(e, xmin, ratio);
					update_text(e);
				}
			}
		}
	}
	function unzoom() {
		unzoombtn.classList.add("hide");
		var el = document.getElementById("frames").children;
		for(var i = 0; i < el.length; i++) {
			el[i].classList.remove("parent");
			el[i].classList.remove("hide");
			zoom_reset(el[i]);
			update_text(el[i]);
		}
	}

	// search
	function reset_search() {
		var el = document.querySelectorAll("#frames rect");
		for (var i = 0; i < el.length; i++) {
			orig_load(el[i], "fill")
		}
	}
	function search_prompt() {
		if (!searching) {
			var term = prompt("Enter a search term (regexp " +
			    "allowed, eg: ^ext4_)", "");
			if (term != null) {
				search(term)
			}
		} else {
			reset_search();
			searching = 0;
			searchbtn.classList.remove("show");
			searchbtn.firstChild.nodeValue = "Search"
			matchedtxt.classList.add("hide");
			matchedtxt.firstChild.nodeValue = ""
		}
	}
	function search(term) {
		var re = new RegExp(term);
		var el = document.getElementById("frames").children;
		var matches = new Object();
		var maxwidth = 0;
		for (var i = 0; i < el.length; i++) {
			var e = el[i];
			var func = g_to_func(e);
			var rect = find_child(e, "rect");
			if (func == null || rect == null)
				continue;

			// Save max width. Only works as we have a root frame
			var w = parseFloat(rect.attributes.width.value);
			if (w > maxwidth)
				maxwidth = w;

			if (func.match(re)) {
				// highlight
				var x = parseFloat(rect.attributes.x.value);
				orig_save(rect, "fill");
				rect.attributes.fill.value = "rgb(230,0,230)";

				// remember matches
				if (matches[x] == undefined) {
					matches[x] = w;
				} else {
					if (w > matches[x]) {
						// overwrite with parent
						matches[x] = w;
					}
				}
				searching = 1;
			}
		}
		if (!searching)
			return;

		searchbtn.classList.add("show");
		searchbtn.firstChild.nodeValue = "Reset Search";

		// calculate percent matched, excluding vertical overlap
		var count = 0;
		var lastx = -1;
		var lastw = 0;
		var keys = Array();
		for (k in matches) {
			if (matches.hasOwnProperty(k))
				keys.push(k);
		}
		// sort the matched frames by their x location
		// ascending, then width descending
		keys.sort(function(a, b){
			return a - b;
		});
		// Step through frames saving only the biggest bottom-up frames
		// thanks to the sort order. This relies on the tree property
		// where children are always smaller than their parents.
		var fudge = 0.0001;	// JavaScript floating point
		for (var k in keys) {
			var x = parseFloat(keys[k]);
			var w = matches[keys[k]];
			if (x >= lastx + lastw - fudge) {
				count += w;
				lastx = x;
				lastw = w;
			}
		}
		// display matched percent
		matchedtxt.classList.remove("hide");
		var pct = 100 * count / maxwidth;
		if (pct != 100) pct = pct.toFixed(1)
		matchedtxt.firstChild.nodeValue = "Matched: " + pct + "%";
	}
]]>
</script>
<rect x="0" y="0" width="100%" height="100%" fill="rgb(240,240,220)"/>
<text id="title" x="600" y="24">Flame Graph</text>
<text id="details" x="10" y="405"> </text>
<text id="unzoom" x="10" y="24" class="hide">Reset Zoom</text>
<text id="search" x="1090" y="24">Search</text>
<text id="matched" x="1090" y="405"> </text>
<g id="frames">
<g>
<title>all (1,939 samples, 100.00%)</title><rect x="10.0" y="371.0" width="1180.0" height="15" fill="#fa7b7b" rx="2" ry="2"/>
<text x="13.0" y="382.0">all</text>
</g>
<g>
<title>OopStorage::has_cleanup_work_and_reset() (30 samples, 1.55%)</title><rect x="10.0" y="355.0" width="18.3" height="15" fill="#d3d33f" rx="2" ry="2"/>
<text x="13.0" y="366.0"></text>
</g>
<g>
<title>[no_Java_frame] (2 samples, 0.10%)</title><rect x="28.3" y="355.0" width="1.2" height="15" fill="#f87979" rx="2" ry="2"/>
<text x="31.3" y="366.0"></text>
</g>
<g>
<title>[unknown] (936 samples, 48.27%)</title><rect x="29.5" y="355.0" width="569.6" height="15" fill="#f87979" rx="2" ry="2"/>
<text x="32.5" y="366.0">[unknown]</text>
</g>
<g>
<title>$a (6 samples, 0.31%)</title><rect x="29.5" y="339.0" width="3.6" height="15" fill="#fc7e7e" rx="2" ry="2"/>
<text x="32.5" y="350.0"></text>
</g>
<g>
<title>$t (49 samples, 2.53%)</title><rect x="33.1" y="339.0" width="29.8" height="15" fill="#e66161" rx="2" ry="2"/>
<text x="36.1" y="350.0">$t</text>
</g>
<g>
<title>/usr/lib/arm-linux-gnueabihf/ld-2.31.so (4 samples, 0.21%)</title><rect x="62.9" y="339.0" width="2.5" height="15" fill="#eb6767" rx="2" ry="2"/>
<text x="65.9" y="350.0"></text>
</g>
<g>
<title>/usr/lib/arm-linux-gnueabihf/libc-2.31.so (402 samples, 20.73%)</title><rect x="65.4" y="339.0" width="244.6" height="15" fill="#f87878" rx="2" ry="2"/>
<text x="68.4" y="350.0">/usr/lib/arm-linux-gnueabihf/lib..</text>
</g>
<g>
<title>[unknown] (3 samples, 0.15%)</title><rect x="97.0" y="323.0" width="1.8" height="15" fill="#e96565" rx="2" ry="2"/>
<text x="100.0" y="334.0"></text>
</g>
<g>
<title>ktime_get_ts64 (1 samples, 0.05%)</title><rect x="97.0" y="307.0" width="0.6" height="15" fill="#f18d00" rx="2" ry="2"/>
<text x="100.0" y="318.0"></text>
</g>
<g>
<title>posix_ktime_get_ts (2 samples, 0.10%)</title><rect x="97.6" y="307.0" width="1.2" height="15" fill="#ef8b00" rx="2" ry="2"/>
<text x="100.6" y="318.0"></text>
</g>
<g>
<title>local_restart (3 samples, 0.15%)</title><rect x="98.8" y="323.0" width="1.9" height="15" fill="#f38f00" rx="2" ry="2"/>
<text x="101.8" y="334.0"></text>
</g>
<g>
<title>ret_fast_syscall (298 samples, 15.37%)</title><rect x="100.7" y="323.0" width="181.3" height="15" fill="#eb8700" rx="2" ry="2"/>
<text x="103.7" y="334.0">ret_fast_syscall</text>
</g>
<g>
<title>sys_clock_gettime (294 samples, 15.16%)</title><rect x="103.1" y="307.0" width="178.9" height="15" fill="#f08c00" rx="2" ry="2"/>
<text x="106.1" y="318.0">sys_clock_gettime</text>
</g>
<g>
<title>__copy_to_user (13 samples, 0.67%)</title><rect x="106.2" y="291.0" width="7.9" height="15" fill="#fd9900" rx="2" ry="2"/>
<text x="109.2" y="302.0"></text>
</g>
<g>
<title>ktime_get_ts64 (13 samples, 0.67%)</title><rect x="114.1" y="291.0" width="7.9" height="15" fill="#fc9800" rx="2" ry="2"/>
<text x="117.1" y="302.0"></text>
</g>
<g>
<title>posix_ktime_get_ts (263 samples, 13.56%)</title><rect x="122.0" y="291.0" width="160.0" height="15" fill="#f49000" rx="2" ry="2"/>
<text x="125.0" y="302.0">posix_ktime_get_ts</text>
</g>
<g>
<title>ktime_get_ts64 (235 samples, 12.12%)</title><rect x="139.0" y="275.0" width="143.0" height="15" fill="#f69200" rx="2" ry="2"/>
<text x="142.0" y="286.0">ktime_get_ts64</text>
</g>
<g>
<title>clocksource_mmio_readl_up (3 samples, 0.15%)</title><rect x="280.2" y="259.0" width="1.8" height="15" fill="#e58100" rx="2" ry="2"/>
<text x="283.2" y="270.0"></text>
</g>
<g>
<title>vector_swi (46 samples, 2.37%)</title><rect x="282.0" y="323.0" width="28.0" height="15" fill="#f38f00" rx="2" ry="2"/>
<text x="285.0" y="334.0">v..</text>
</g>
<g>
<title>/usr/lib/jvm/java-13-openjdk-armhf/lib/server/libjvm.so (9 samples, 0.46%)</title><rect x="310.0" y="339.0" width="5.5" height="15" fill="#e15a5a" rx="2" ry="2"/>
<text x="313.0" y="350.0"></text>
</g>
<g>
<title>GCNotifier::has_event() (7 samples, 0.36%)</title><rect x="315.5" y="339.0" width="4.3" height="15" fill="#cfcf3e" rx="2" ry="2"/>
<text x="318.5" y="350.0"></text>
</g>
<g>
<title>JvmtiDeferredEventQueue::has_events() (7 samples, 0.36%)</title><rect x="319.8" y="339.0" width="4.2" height="15" fill="#cccc3d" rx="2" ry="2"/>
<text x="322.8" y="350.0"></text>
</g>
<g>
<title>LowMemoryDetector::has_pending_requests() (27 samples, 1.39%)</title><rect x="324.0" y="339.0" width="16.4" height="15" fill="#e0e044" rx="2" ry="2"/>
<text x="327.0" y="350.0"></text>
</g>
<g>
<title>Monitor::lock_without_safepoint_check() (17 samples, 0.88%)</title><rect x="340.4" y="339.0" width="10.4" height="15" fill="#cccc3d" rx="2" ry="2"/>
<text x="343.4" y="350.0"></text>
</g>
<g>
<title>Monitor::release_for_safepoint() (1 samples, 0.05%)</title><rect x="350.8" y="339.0" width="0.6" height="15" fill="#d4d440" rx="2" ry="2"/>
<text x="353.8" y="350.0"></text>
</g>
<g>
<title>Monitor::unlock() (1 samples, 0.05%)</title><rect x="351.4" y="339.0" width="0.6" height="15" fill="#cbcb3d" rx="2" ry="2"/>
<text x="354.4" y="350.0"></text>
</g>
<g>
<title>OopStorage::delete_empty_blocks() (101 samples, 5.21%)</title><rect x="352.0" y="339.0" width="61.5" height="15" fill="#cbcb3d" rx="2" ry="2"/>
<text x="355.0" y="350.0">OopSto..</text>
</g>
<g>
<title>OopStorage::has_cleanup_work_and_reset() (6 samples, 0.31%)</title><rect x="413.5" y="339.0" width="3.6" height="15" fill="#e5e545" rx="2" ry="2"/>
<text x="416.5" y="350.0"></text>
</g>
<g>
<title>SafepointMechanism::block_if_requested_slow(JavaThread*) (63 samples, 3.25%)</title><rect x="417.1" y="339.0" width="38.4" height="15" fill="#cece3e" rx="2" ry="2"/>
<text x="420.1" y="350.0">Saf..</text>
</g>
<g>
<title>ServiceThread::service_thread_entry(JavaThread*, Thread*) (122 samples, 6.29%)</title><rect x="455.5" y="339.0" width="74.2" height="15" fill="#d7d741" rx="2" ry="2"/>
<text x="458.5" y="350.0">ServiceT..</text>
</g>
<g>
<title>__clock_gettime (43 samples, 2.22%)</title><rect x="529.7" y="339.0" width="26.2" height="15" fill="#fa7b7b" rx="2" ry="2"/>
<text x="532.7" y="350.0">_..</text>
</g>
<g>
<title>__libc_do_syscall (1 samples, 0.05%)</title><rect x="555.9" y="339.0" width="0.6" height="15" fill="#f37272" rx="2" ry="2"/>
<text x="558.9" y="350.0"></text>
</g>
<g>
<title>ret_fast_syscall (1 samples, 0.05%)</title><rect x="555.9" y="323.0" width="0.6" height="15" fill="#e98500" rx="2" ry="2"/>
<text x="558.9" y="334.0"></text>
</g>
<g>
<title>sys_futex (1 samples, 0.05%)</title><rect x="555.9" y="307.0" width="0.6" height="15" fill="#f49000" rx="2" ry="2"/>
<text x="558.9" y="318.0"></text>
</g>
<g>
<title>do_futex (1 samples, 0.05%)</title><rect x="555.9" y="291.0" width="0.6" height="15" fill="#f08c00" rx="2" ry="2"/>
<text x="558.9" y="302.0"></text>
</g>
<g>
<title>futex_wait (1 samples, 0.05%)</title><rect x="555.9" y="275.0" width="0.6" height="15" fill="#ef8b00" rx="2" ry="2"/>
<text x="558.9" y="286.0"></text>
</g>
<g>
<title>hrtimer_init (1 samples, 0.05%)</title><rect x="555.9" y="259.0" width="0.6" height="15" fill="#fe9a00" rx="2" ry="2"/>
<text x="558.9" y="270.0"></text>
</g>
<g>
<title>__pthread_mutex_unlock_usercnt (10 samples, 0.52%)</title><rect x="556.5" y="339.0" width="6.1" height="15" fill="#e96565" rx="2" ry="2"/>
<text x="559.5" y="350.0"></text>
</g>
<g>
<title>__tls_get_addr (7 samples, 0.36%)</title><rect x="562.6" y="339.0" width="4.2" height="15" fill="#f87878" rx="2" ry="2"/>
<text x="565.6" y="350.0"></text>
</g>
<g>
<title>clock_getres (2 samples, 0.10%)</title><rect x="566.8" y="339.0" width="1.3" height="15" fill="#f06f6f" rx="2" ry="2"/>
<text x="569.8" y="350.0"></text>
</g>
<g>
<title>os::javaTimeNanos() (15 samples, 0.77%)</title><rect x="568.1" y="339.0" width="9.1" height="15" fill="#dfdf43" rx="2" ry="2"/>
<text x="571.1" y="350.0"></text>
</g>
<g>
<title>pthread_mutex_init (1 samples, 0.05%)</title><rect x="577.2" y="339.0" width="0.6" height="15" fill="#ed6a6a" rx="2" ry="2"/>
<text x="580.2" y="350.0"></text>
</g>
<g>
<title>pthread_mutex_lock (23 samples, 1.19%)</title><rect x="577.8" y="339.0" width="14.0" height="15" fill="#fb7d7d" rx="2" ry="2"/>
<text x="580.8" y="350.0"></text>
</g>
<g>
<title>pthread_mutex_unlock (12 samples, 0.62%)</title><rect x="591.8" y="339.0" width="7.3" height="15" fill="#e96565" rx="2" ry="2"/>
<text x="594.8" y="350.0"></text>
</g>
<g>
<title>[unknown_Java] (53 samples, 2.73%)</title><rect x="599.1" y="355.0" width="32.2" height="15" fill="#eb6868" rx="2" ry="2"/>
<text x="602.1" y="366.0">[u..</text>
</g>
<g>
<title>[unknown] (2 samples, 0.10%)</title><rect x="603.3" y="339.0" width="1.3" height="15" fill="#f97a7a" rx="2" ry="2"/>
<text x="606.3" y="350.0"></text>
</g>
<g>
<title>$t (1 samples, 0.05%)</title><rect x="603.3" y="323.0" width="0.7" height="15" fill="#fc7e7e" rx="2" ry="2"/>
<text x="606.3" y="334.0"></text>
</g>
<g>
<title>ExceptionMark::ExceptionMark(Thread*&amp;) (1 samples, 0.05%)</title><rect x="604.0" y="323.0" width="0.6" height="15" fill="#caca3c" rx="2" ry="2"/>
<text x="607.0" y="334.0"></text>
</g>
<g>
<title>atomic_cmpxchg (1 samples, 0.05%)</title><rect x="604.6" y="339.0" width="0.6" height="15" fill="#fd7f7f" rx="2" ry="2"/>
<text x="607.6" y="350.0"></text>
</g>
<g>
<title>java/nio/channels/spi/AbstractInterruptibleChannel.end (1 samples, 0.05%)</title><rect x="605.2" y="339.0" width="0.6" height="15" fill="#5ff05f" rx="2" ry="2"/>
<text x="608.2" y="350.0"></text>
</g>
<g>
<title>jbyte_disjoint_arraycopy (42 samples, 2.17%)</title><rect x="605.8" y="339.0" width="25.5" height="15" fill="#e35d5d" rx="2" ry="2"/>
<text x="608.8" y="350.0">j..</text>
</g>
<g>
<title>[unknown] (1 samples, 0.05%)</title><rect x="630.7" y="323.0" width="0.6" height="15" fill="#e66161" rx="2" ry="2"/>
<text x="633.7" y="334.0"></text>
</g>
<g>
<title>[unknown] (1 samples, 0.05%)</title><rect x="630.7" y="307.0" width="0.6" height="15" fill="#f47474" rx="2" ry="2"/>
<text x="633.7" y="318.0"></text>
</g>
<g>
<title>ExceptionMark::~ExceptionMark() (1 samples, 0.05%)</title><rect x="630.7" y="291.0" width="0.6" height="15" fill="#e2e244" rx="2" ry="2"/>
<text x="633.7" y="302.0"></text>
</g>
<g>
<title>java/lang/Thread.run (918 samples, 47.34%)</title><rect x="631.3" y="355.0" width="558.7" height="15" fill="#5aeb5a" rx="2" ry="2"/>
<text x="634.3" y="366.0">java/lang/Thread.run</text>
</g>
<g>
<title>java/util/concurrent/ThreadPoolExecutor$Worker.run (918 samples, 47.34%)</title><rect x="631.3" y="339.0" width="558.7" height="15" fill="#51e251" rx="2" ry="2"/>
<text x="634.3" y="350.0">java/util/concurrent/ThreadPoolExecutor$Worker.run</text>
</g>
<g>
<title>java/util/concurrent/ThreadPoolExecutor.runWorker (918 samples, 47.34%)</title><rect x="631.3" y="323.0" width="558.7" height="15" fill="#50e150" rx="2" ry="2"/>
<text x="634.3" y="334.0">java/util/concurrent/ThreadPoolExecutor.runWorker</text>
</g>
<g>
<title>java/util/concurrent/FutureTask.run (918 samples, 47.34%)</title><rect x="631.3" y="307.0" width="558.7" height="15" fill="#5dee5d" rx="2" ry="2"/>
<text x="634.3" y="318.0">java/util/concurrent/FutureTask.run</text>
</g>
<g>
<title>java/util/concurrent/Executors$RunnableAdapter.call (918 samples, 47.34%)</title><rect x="631.3" y="291.0" width="558.7" height="15" fill="#51e251" rx="2" ry="2"/>
<text x="634.3" y="302.0">java/util/concurrent/Executors$RunnableAdapter.call</text>
</g>
<g>
<title>java/util/concurrent/FutureTask.run (918 samples, 47.34%)</title><rect x="631.3" y="275.0" width="558.7" height="15" fill="#57e857" rx="2" ry="2"/>
<text x="634.3" y="286.0">java/util/concurrent/FutureTask.run</text>
</g>
<g>
<title>org/openjdk/jmh/runner/BenchmarkHandler$BenchmarkTask.call (918 samples, 47.34%)</title><rect x="631.3" y="259.0" width="558.7" height="15" fill="#6dfe6d" rx="2" ry="2"/>
<text x="634.3" y="270.0">org/openjdk/jmh/runner/BenchmarkHandler$BenchmarkTask.call</text>
</g>
<g>
<title>org/openjdk/jmh/runner/BenchmarkHandler$BenchmarkTask.call (918 samples, 47.34%)</title><rect x="631.3" y="243.0" width="558.7" height="15" fill="#6bfc6b" rx="2" ry="2"/>
<text x="634.3" y="254.0">org/openjdk/jmh/runner/BenchmarkHandler$BenchmarkTask.call</text>
</g>
<g>
<title>java/lang/reflect/Method.invoke (918 samples, 47.34%)</title><rect x="631.3" y="227.0" width="558.7" height="15" fill="#69fa69" rx="2" ry="2"/>
<text x="634.3" y="238.0">java/lang/reflect/Method.invoke</text>
</g>
<g>
<title>jdk/internal/reflect/DelegatingMethodAccessorImpl.invoke (918 samples, 47.34%)</title><rect x="631.3" y="211.0" width="558.7" height="15" fill="#57e857" rx="2" ry="2"/>
<text x="634.3" y="222.0">jdk/internal/reflect/DelegatingMethodAccessorImpl.invoke</text>
</g>
<g>
<title>jdk/internal/reflect/NativeMethodAccessorImpl.invoke (918 samples, 47.34%)</title><rect x="631.3" y="195.0" width="558.7" height="15" fill="#60f160" rx="2" ry="2"/>
<text x="634.3" y="206.0">jdk/internal/reflect/NativeMethodAccessorImpl.invoke</text>
</g>
<g>
<title>jdk/internal/reflect/NativeMethodAccessorImpl.invoke0 (918 samples, 47.34%)</title><rect x="631.3" y="179.0" width="558.7" height="15" fill="#5bec5b" rx="2" ry="2"/>
<text x="634.3" y="190.0">jdk/internal/reflect/NativeMethodAccessorImpl.invoke0</text>
</g>
<g>
<title>com/sun/glass/ui/monocle/generated/Benchmarks_writeTo16New_jmhTest.writeTo16New_Throughput (918 samples, 47.34%)</title><rect x="631.3" y="163.0" width="558.7" height="15" fill="#66f766" rx="2" ry="2"/>
<text x="634.3" y="174.0">com/sun/glass/ui/monocle/generated/Benchmarks_writeTo16New_jmhTest.writeTo16N..</text>
</g>
<g>
<title>com/sun/glass/ui/monocle/generated/Benchmarks_writeTo16New_jmhTest.writeTo16New_thrpt_jmhStub (918 samples, 47.34%)</title><rect x="631.3" y="147.0" width="558.7" height="15" fill="#5ff05f" rx="2" ry="2"/>
<text x="634.3" y="158.0">com/sun/glass/ui/monocle/generated/Benchmarks_writeTo16New_jmhTest.writeTo16N..</text>
</g>
<g>
<title>com/sun/glass/ui/monocle/Benchmarks.writeTo16New (918 samples, 47.34%)</title><rect x="631.3" y="131.0" width="558.7" height="15" fill="#64f564" rx="2" ry="2"/>
<text x="634.3" y="142.0">com/sun/glass/ui/monocle/Benchmarks.writeTo16New</text>
</g>
<g>
<title>com/sun/glass/ui/monocle/FramebufferY8.write (918 samples, 47.34%)</title><rect x="631.3" y="115.0" width="558.7" height="15" fill="#5ff05f" rx="2" ry="2"/>
<text x="634.3" y="126.0">com/sun/glass/ui/monocle/FramebufferY8.write</text>
</g>
<g>
<title>ExceptionMark::~ExceptionMark() (1 samples, 0.05%)</title><rect x="1165.7" y="99.0" width="0.6" height="15" fill="#c9c93c" rx="2" ry="2"/>
<text x="1168.7" y="110.0"></text>
</g>
<g>
<title>ObjectSynchronizer::inflate_helper(oopDesc*) (1 samples, 0.05%)</title><rect x="1166.3" y="99.0" width="0.6" height="15" fill="#d5d540" rx="2" ry="2"/>
<text x="1169.3" y="110.0"></text>
</g>
<g>
<title>ObjectSynchronizer::slow_exit(oopDesc*, BasicLock*, Thread*) (1 samples, 0.05%)</title><rect x="1166.9" y="99.0" width="0.6" height="15" fill="#e3e345" rx="2" ry="2"/>
<text x="1169.9" y="110.0"></text>
</g>
<g>
<title>SharedRuntime::complete_monitor_unlocking_C(oopDesc*, BasicLock*, JavaThread*) (3 samples, 0.15%)</title><rect x="1167.5" y="99.0" width="1.8" height="15" fill="#e3e345" rx="2" ry="2"/>
<text x="1170.5" y="110.0"></text>
</g>
<g>
<title>[unknown] (2 samples, 0.10%)</title><rect x="1169.3" y="99.0" width="1.2" height="15" fill="#f67676" rx="2" ry="2"/>
<text x="1172.3" y="110.0"></text>
</g>
<g>
<title>ExceptionMark::ExceptionMark(Thread*&amp;) (1 samples, 0.05%)</title><rect x="1169.3" y="83.0" width="0.6" height="15" fill="#d0d03e" rx="2" ry="2"/>
<text x="1172.3" y="94.0"></text>
</g>
<g>
<title>__tls_get_addr (1 samples, 0.05%)</title><rect x="1169.9" y="83.0" width="0.6" height="15" fill="#f77777" rx="2" ry="2"/>
<text x="1172.9" y="94.0"></text>
</g>
<g>
<title>__tls_get_addr (1 samples, 0.05%)</title><rect x="1170.5" y="99.0" width="0.6" height="15" fill="#f47373" rx="2" ry="2"/>
<text x="1173.5" y="110.0"></text>
</g>
<g>
<title>java/nio/channels/Channels$WritableByteChannelImpl.write (31 samples, 1.60%)</title><rect x="1171.1" y="99.0" width="18.9" height="15" fill="#5aeb5a" rx="2" ry="2"/>
<text x="1174.1" y="110.0"></text>
</g>
<g>
<title>java/io/ByteArrayOutputStream.write (4 samples, 0.21%)</title><rect x="1181.5" y="83.0" width="2.4" height="15" fill="#64f564" rx="2" ry="2"/>
<text x="1184.5" y="94.0"></text>
</g>
<g>
<title>java/io/ByteArrayOutputStream.ensureCapacity (3 samples, 0.15%)</title><rect x="1181.5" y="67.0" width="1.8" height="15" fill="#54e554" rx="2" ry="2"/>
<text x="1184.5" y="78.0"></text>
</g>
<g>
<title>java/util/Objects.checkFromIndexSize (1 samples, 0.05%)</title><rect x="1183.3" y="67.0" width="0.6" height="15" fill="#5dee5d" rx="2" ry="2"/>
<text x="1186.3" y="78.0"></text>
</g>
<g>
<title>jdk/internal/util/Preconditions.checkFromIndexSize (1 samples, 0.05%)</title><rect x="1183.3" y="51.0" width="0.6" height="15" fill="#6afb6a" rx="2" ry="2"/>
<text x="1186.3" y="62.0"></text>
</g>
<g>
<title>java/nio/channels/spi/AbstractInterruptibleChannel.begin (6 samples, 0.31%)</title><rect x="1183.9" y="83.0" width="3.7" height="15" fill="#68f968" rx="2" ry="2"/>
<text x="1186.9" y="94.0"></text>
</g>
<g>
<title>java/lang/Thread.isInterrupted (6 samples, 0.31%)</title><rect x="1183.9" y="67.0" width="3.7" height="15" fill="#59ea59" rx="2" ry="2"/>
<text x="1186.9" y="78.0"></text>
</g>
<g>
<title>java/nio/channels/spi/AbstractInterruptibleChannel.end (4 samples, 0.21%)</title><rect x="1187.6" y="83.0" width="2.4" height="15" fill="#56e756" rx="2" ry="2"/>
<text x="1190.6" y="94.0"></text>
</g>
<g>
<title>java/nio/channels/spi/AbstractInterruptibleChannel.blockedOn (4 samples, 0.21%)</title><rect x="1187.6" y="67.0" width="2.4" height="15" fill="#6afb6a" rx="2" ry="2"/>
<text x="1190.6" y="78.0"></text>
</g>
<g>
<title>java/lang/System$2.blockedOn (4 samples, 0.21%)</title><rect x="1187.6" y="51.0" width="2.4" height="15" fill="#5aeb5a" rx="2" ry="2"/>
<text x="1190.6" y="62.0"></text>
</g>
<g>
<title>java/lang/Thread.blockedOn (4 samples, 0.21%)</title><rect x="1187.6" y="35.0" width="2.4" height="15" fill="#64f564" rx="2" ry="2"/>
<text x="1190.6" y="46.0"></text>
</g>
</g>
</svg>
