<?xml version="1.0" standalone="no"?>
<!DOCTYPE svg PUBLIC "-//W3C//DTD SVG 1.1//EN" "http://www.w3.org/Graphics/SVG/1.1/DTD/svg11.dtd">
<svg version="1.1" onload="init(evt)" viewBox="0 0 1200 470" xmlns="http://www.w3.org/2000/svg" xmlns:xlink="http://www.w3.org/1999/xlink">
<style type="text/css">
	text { font-family:Verdana; font-size:12px; fill:rgb(0,0,0); }
	#search { opacity:0.1; cursor:pointer; }
	#search:hover, #search.show { opacity:1; }
	#subtitle { text-anchor:middle; font-color:rgb(160,160,160); }
	#title { text-anchor:middle; font-size:17px}
	#unzoom { cursor:pointer; }
	#frames > *:hover { stroke:black; stroke-width:0.5; cursor:pointer; }
	.hide { display:none; }
	.parent { opacity:0.5; }
</style>
<script type="text/ecmascript">
<![CDATA[
	"use strict";
	var details, searchbtn, unzoombtn, matchedtxt, svg, searching;
	function init(evt) {
		details = document.getElementById("details").firstChild;
		searchbtn = document.getElementById("search");
		unzoombtn = document.getElementById("unzoom");
		matchedtxt = document.getElementById("matched");
		svg = document.getElementsByTagName("svg")[0];
		searching = 0;
	}

	window.addEventListener("click", function(e) {
		var target = find_group(e.target);
		if (target) {
			if (target.nodeName == "a") {
				if (e.ctrlKey === false) return;
				e.preventDefault();
			}
			if (target.classList.contains("parent")) unzoom();
			zoom(target);
		}
		else if (e.target.id == "unzoom") unzoom();
		else if (e.target.id == "search") search_prompt();
	}, false)

	// mouse-over for info
	// show
	window.addEventListener("mouseover", function(e) {
		var target = find_group(e.target);
		if (target) details.nodeValue = "Function: " + g_to_text(target);
	}, false)

	// clear
	window.addEventListener("mouseout", function(e) {
		var target = find_group(e.target);
		if (target) details.nodeValue = ' ';
	}, false)

	// ctrl-F for search
	window.addEventListener("keydown",function (e) {
		if (e.keyCode === 114 || (e.ctrlKey && e.keyCode === 70)) {
			e.preventDefault();
			search_prompt();
		}
	}, false)

	// functions
	function find_child(node, selector) {
		var children = node.querySelectorAll(selector);
		if (children.length) return children[0];
		return;
	}
	function find_group(node) {
		var parent = node.parentElement;
		if (!parent) return;
		if (parent.id == "frames") return node;
		return find_group(parent);
	}
	function orig_save(e, attr, val) {
		if (e.attributes["_orig_" + attr] != undefined) return;
		if (e.attributes[attr] == undefined) return;
		if (val == undefined) val = e.attributes[attr].value;
		e.setAttribute("_orig_" + attr, val);
	}
	function orig_load(e, attr) {
		if (e.attributes["_orig_"+attr] == undefined) return;
		e.attributes[attr].value = e.attributes["_orig_" + attr].value;
		e.removeAttribute("_orig_"+attr);
	}
	function g_to_text(e) {
		var text = find_child(e, "title").firstChild.nodeValue;
		return (text)
	}
	function g_to_func(e) {
		var func = g_to_text(e);
		// if there's any manipulation we want to do to the function
		// name before it's searched, do it here before returning.
		return (func);
	}
	function update_text(e) {
		var r = find_child(e, "rect");
		var t = find_child(e, "text");
		var w = parseFloat(r.attributes.width.value) -3;
		var txt = find_child(e, "title").textContent.replace(/\([^(]*\)$/,"");
		t.attributes.x.value = parseFloat(r.attributes.x.value) + 3;

		// Smaller than this size won't fit anything
		if (w < 2 * 12 * 0.59) {
			t.textContent = "";
			return;
		}

		t.textContent = txt;
		// Fit in full text width
		if (/^ *$/.test(txt) || t.getSubStringLength(0, txt.length) < w)
			return;

		for (var x = txt.length - 2; x > 0; x--) {
			if (t.getSubStringLength(0, x + 2) <= w) {
				t.textContent = txt.substring(0, x) + "..";
				return;
			}
		}
		t.textContent = "";
	}

	// zoom
	function zoom_reset(e) {
		if (e.attributes != undefined) {
			orig_load(e, "x");
			orig_load(e, "width");
		}
		if (e.childNodes == undefined) return;
		for (var i = 0, c = e.childNodes; i < c.length; i++) {
			zoom_reset(c[i]);
		}
	}
	function zoom_child(e, x, ratio) {
		if (e.attributes != undefined) {
			if (e.attributes.x != undefined) {
				orig_save(e, "x");
				e.attributes.x.value = (parseFloat(e.attributes.x.value) - x - 10) * ratio + 10;
				if (e.tagName == "text")
					e.attributes.x.value = find_child(e.parentNode, "rect[x]").attributes.x.value + 3;
			}
			if (e.attributes.width != undefined) {
				orig_save(e, "width");
				e.attributes.width.value = parseFloat(e.attributes.width.value) * ratio;
			}
		}

		if (e.childNodes == undefined) return;
		for (var i = 0, c = e.childNodes; i < c.length; i++) {
			zoom_child(c[i], x - 10, ratio);
		}
	}
	function zoom_parent(e) {
		if (e.attributes) {
			if (e.attributes.x != undefined) {
				orig_save(e, "x");
				e.attributes.x.value = 10;
			}
			if (e.attributes.width != undefined) {
				orig_save(e, "width");
				e.attributes.width.value = parseInt(svg.width.baseVal.value) - (10 * 2);
			}
		}
		if (e.childNodes == undefined) return;
		for (var i = 0, c = e.childNodes; i < c.length; i++) {
			zoom_parent(c[i]);
		}
	}
	function zoom(node) {
		var attr = find_child(node, "rect").attributes;
		var width = parseFloat(attr.width.value);
		var xmin = parseFloat(attr.x.value);
		var xmax = parseFloat(xmin + width);
		var ymin = parseFloat(attr.y.value);
		var ratio = (svg.width.baseVal.value - 2 * 10) / width;

		// XXX: Workaround for JavaScript float issues (fix me)
		var fudge = 0.0001;

		unzoombtn.classList.remove("hide");

		var el = document.getElementById("frames").children;
		for (var i = 0; i < el.length; i++) {
			var e = el[i];
			var a = find_child(e, "rect").attributes;
			var ex = parseFloat(a.x.value);
			var ew = parseFloat(a.width.value);
			var upstack;
			// Is it an ancestor
			if (0 == 0) {
				upstack = parseFloat(a.y.value) > ymin;
			} else {
				upstack = parseFloat(a.y.value) < ymin;
			}
			if (upstack) {
				// Direct ancestor
				if (ex <= xmin && (ex+ew+fudge) >= xmax) {
					e.classList.add("parent");
					zoom_parent(e);
					update_text(e);
				}
				// not in current path
				else
					e.classList.add("hide");
			}
			// Children maybe
			else {
				// no common path
				if (ex < xmin || ex + fudge >= xmax) {
					e.classList.add("hide");
				}
				else {
					zoom_child(e, xmin, ratio);
					update_text(e);
				}
			}
		}
	}
	function unzoom() {
		unzoombtn.classList.add("hide");
		var el = document.getElementById("frames").children;
		for(var i = 0; i < el.length; i++) {
			el[i].classList.remove("parent");
			el[i].classList.remove("hide");
			zoom_reset(el[i]);
			update_text(el[i]);
		}
	}

	// search
	function reset_search() {
		var el = document.querySelectorAll("#frames rect");
		for (var i = 0; i < el.length; i++) {
			orig_load(el[i], "fill")
		}
	}
	function search_prompt() {
		if (!searching) {
			var term = prompt("Enter a search term (regexp " +
			    "allowed, eg: ^ext4_)", "");
			if (term != null) {
				search(term)
			}
		} else {
			reset_search();
			searching = 0;
			searchbtn.classList.remove("show");
			searchbtn.firstChild.nodeValue = "Search"
			matchedtxt.classList.add("hide");
			matchedtxt.firstChild.nodeValue = ""
		}
	}
	function search(term) {
		var re = new RegExp(term);
		var el = document.getElementById("frames").children;
		var matches = new Object();
		var maxwidth = 0;
		for (var i = 0; i < el.length; i++) {
			var e = el[i];
			var func = g_to_func(e);
			var rect = find_child(e, "rect");
			if (func == null || rect == null)
				continue;

			// Save max width. Only works as we have a root frame
			var w = parseFloat(rect.attributes.width.value);
			if (w > maxwidth)
				maxwidth = w;

			if (func.match(re)) {
				// highlight
				var x = parseFloat(rect.attributes.x.value);
				orig_save(rect, "fill");
				rect.attributes.fill.value = "rgb(230,0,230)";

				// remember matches
				if (matches[x] == undefined) {
					matches[x] = w;
				} else {
					if (w > matches[x]) {
						// overwrite with parent
						matches[x] = w;
					}
				}
				searching = 1;
			}
		}
		if (!searching)
			return;

		searchbtn.classList.add("show");
		searchbtn.firstChild.nodeValue = "Reset Search";

		// calculate percent matched, excluding vertical overlap
		var count = 0;
		var lastx = -1;
		var lastw = 0;
		var keys = Array();
		for (k in matches) {
			if (matches.hasOwnProperty(k))
				keys.push(k);
		}
		// sort the matched frames by their x location
		// ascending, then width descending
		keys.sort(function(a, b){
			return a - b;
		});
		// Step through frames saving only the biggest bottom-up frames
		// thanks to the sort order. This relies on the tree property
		// where children are always smaller than their parents.
		var fudge = 0.0001;	// JavaScript floating point
		for (var k in keys) {
			var x = parseFloat(keys[k]);
			var w = matches[keys[k]];
			if (x >= lastx + lastw - fudge) {
				count += w;
				lastx = x;
				lastw = w;
			}
		}
		// display matched percent
		matchedtxt.classList.remove("hide");
		var pct = 100 * count / maxwidth;
		if (pct != 100) pct = pct.toFixed(1)
		matchedtxt.firstChild.nodeValue = "Matched: " + pct + "%";
	}
]]>
</script>
<rect x="0" y="0" width="100%" height="100%" fill="rgb(240,240,220)"/>
<text id="title" x="600" y="24">Flame Graph</text>
<text id="details" x="10" y="453"> </text>
<text id="unzoom" x="10" y="24" class="hide">Reset Zoom</text>
<text id="search" x="1090" y="24">Search</text>
<text id="matched" x="1090" y="453"> </text>
<g id="frames">
<g>
<title>all (2,801 samples, 100.00%)</title><rect x="10.0" y="419.0" width="1180.0" height="15" fill="#fa7b7b" rx="2" ry="2"/>
<text x="13.0" y="430.0">all</text>
</g>
<g>
<title>/usr/lib/arm-linux-gnueabihf/libc-2.31.so (2 samples, 0.07%)</title><rect x="10.0" y="403.0" width="0.8" height="15" fill="#ec6969" rx="2" ry="2"/>
<text x="13.0" y="414.0"></text>
</g>
<g>
<title>/usr/lib/arm-linux-gnueabihf/libc-2.31.so (1 samples, 0.04%)</title><rect x="10.0" y="387.0" width="0.4" height="15" fill="#f87979" rx="2" ry="2"/>
<text x="13.0" y="398.0"></text>
</g>
<g>
<title>ret_fast_syscall (1 samples, 0.04%)</title><rect x="10.4" y="387.0" width="0.4" height="15" fill="#f89400" rx="2" ry="2"/>
<text x="13.4" y="398.0"></text>
</g>
<g>
<title>sys_clock_gettime (1 samples, 0.04%)</title><rect x="10.4" y="371.0" width="0.4" height="15" fill="#fc9800" rx="2" ry="2"/>
<text x="13.4" y="382.0"></text>
</g>
<g>
<title>posix_ktime_get_ts (1 samples, 0.04%)</title><rect x="10.4" y="355.0" width="0.4" height="15" fill="#e68200" rx="2" ry="2"/>
<text x="13.4" y="366.0"></text>
</g>
<g>
<title>ktime_get_ts64 (1 samples, 0.04%)</title><rect x="10.4" y="339.0" width="0.4" height="15" fill="#eb8700" rx="2" ry="2"/>
<text x="13.4" y="350.0"></text>
</g>
<g>
<title>/usr/lib/jvm/java-14-openjdk-armhf/lib/server/libjvm.so (1 samples, 0.04%)</title><rect x="10.8" y="403.0" width="0.5" height="15" fill="#f87878" rx="2" ry="2"/>
<text x="13.8" y="414.0"></text>
</g>
<g>
<title>/usr/lib/arm-linux-gnueabihf/libc-2.31.so (1 samples, 0.04%)</title><rect x="10.8" y="387.0" width="0.5" height="15" fill="#e96565" rx="2" ry="2"/>
<text x="13.8" y="398.0"></text>
</g>
<g>
<title>vector_swi (1 samples, 0.04%)</title><rect x="10.8" y="371.0" width="0.5" height="15" fill="#f18d00" rx="2" ry="2"/>
<text x="13.8" y="382.0"></text>
</g>
<g>
<title>[not_walkable_Java] (1 samples, 0.04%)</title><rect x="11.3" y="403.0" width="0.4" height="15" fill="#ef6d6d" rx="2" ry="2"/>
<text x="14.3" y="414.0"></text>
</g>
<g>
<title>Interpreter (1 samples, 0.04%)</title><rect x="11.3" y="387.0" width="0.4" height="15" fill="#f37373" rx="2" ry="2"/>
<text x="14.3" y="398.0"></text>
</g>
<g>
<title>[unknown] (2 samples, 0.07%)</title><rect x="11.7" y="403.0" width="0.8" height="15" fill="#eb6868" rx="2" ry="2"/>
<text x="14.7" y="414.0"></text>
</g>
<g>
<title>__libc_do_syscall (2 samples, 0.07%)</title><rect x="11.7" y="387.0" width="0.8" height="15" fill="#f06e6e" rx="2" ry="2"/>
<text x="14.7" y="398.0"></text>
</g>
<g>
<title>ret_fast_syscall (2 samples, 0.07%)</title><rect x="11.7" y="371.0" width="0.8" height="15" fill="#fd9900" rx="2" ry="2"/>
<text x="14.7" y="382.0"></text>
</g>
<g>
<title>sys_futex (2 samples, 0.07%)</title><rect x="11.7" y="355.0" width="0.8" height="15" fill="#fc9800" rx="2" ry="2"/>
<text x="14.7" y="366.0"></text>
</g>
<g>
<title>do_futex (2 samples, 0.07%)</title><rect x="11.7" y="339.0" width="0.8" height="15" fill="#f49000" rx="2" ry="2"/>
<text x="14.7" y="350.0"></text>
</g>
<g>
<title>futex_wait (2 samples, 0.07%)</title><rect x="11.7" y="323.0" width="0.8" height="15" fill="#f69200" rx="2" ry="2"/>
<text x="14.7" y="334.0"></text>
</g>
<g>
<title>futex_wait_queue_me (1 samples, 0.04%)</title><rect x="11.7" y="307.0" width="0.4" height="15" fill="#e58100" rx="2" ry="2"/>
<text x="14.7" y="318.0"></text>
</g>
<g>
<title>hrtimer_start_range_ns (1 samples, 0.04%)</title><rect x="11.7" y="291.0" width="0.4" height="15" fill="#f38f00" rx="2" ry="2"/>
<text x="14.7" y="302.0"></text>
</g>
<g>
<title>__hrtimer_start_range_ns (1 samples, 0.04%)</title><rect x="11.7" y="275.0" width="0.4" height="15" fill="#e17d00" rx="2" ry="2"/>
<text x="14.7" y="286.0"></text>
</g>
<g>
<title>_raw_spin_unlock_irqrestore (1 samples, 0.04%)</title><rect x="11.7" y="259.0" width="0.4" height="15" fill="#e88400" rx="2" ry="2"/>
<text x="14.7" y="270.0"></text>
</g>
<g>
<title>futex_wait_setup (1 samples, 0.04%)</title><rect x="12.1" y="307.0" width="0.4" height="15" fill="#e58100" rx="2" ry="2"/>
<text x="15.1" y="318.0"></text>
</g>
<g>
<title>[unknown_Java] (135 samples, 4.82%)</title><rect x="12.5" y="403.0" width="56.9" height="15" fill="#f97a7a" rx="2" ry="2"/>
<text x="15.5" y="414.0">[unkno..</text>
</g>
<g>
<title>java/io/ByteArrayOutputStream.write (1 samples, 0.04%)</title><rect x="24.7" y="387.0" width="0.5" height="15" fill="#54e554" rx="2" ry="2"/>
<text x="27.7" y="398.0"></text>
</g>
<g>
<title>jbyte_arraycopy (1 samples, 0.04%)</title><rect x="25.2" y="387.0" width="0.4" height="15" fill="#ed6a6a" rx="2" ry="2"/>
<text x="28.2" y="398.0"></text>
</g>
<g>
<title>jbyte_disjoint_arraycopy (104 samples, 3.71%)</title><rect x="25.6" y="387.0" width="43.8" height="15" fill="#e45f5f" rx="2" ry="2"/>
<text x="28.6" y="398.0">jbyt..</text>
</g>
<g>
<title>java/lang/Thread.run (2,660 samples, 94.97%)</title><rect x="69.4" y="403.0" width="1120.6" height="15" fill="#53e453" rx="2" ry="2"/>
<text x="72.4" y="414.0">java/lang/Thread.run</text>
</g>
<g>
<title>java/util/concurrent/ThreadPoolExecutor$Worker.run (2,660 samples, 94.97%)</title><rect x="69.4" y="387.0" width="1120.6" height="15" fill="#6dfe6d" rx="2" ry="2"/>
<text x="72.4" y="398.0">java/util/concurrent/ThreadPoolExecutor$Worker.run</text>
</g>
<g>
<title>java/util/concurrent/ThreadPoolExecutor.runWorker (2,660 samples, 94.97%)</title><rect x="69.4" y="371.0" width="1120.6" height="15" fill="#56e756" rx="2" ry="2"/>
<text x="72.4" y="382.0">java/util/concurrent/ThreadPoolExecutor.runWorker</text>
</g>
<g>
<title>java/util/concurrent/FutureTask.run (2,660 samples, 94.97%)</title><rect x="69.4" y="355.0" width="1120.6" height="15" fill="#5ff05f" rx="2" ry="2"/>
<text x="72.4" y="366.0">java/util/concurrent/FutureTask.run</text>
</g>
<g>
<title>java/util/concurrent/Executors$RunnableAdapter.call (2,660 samples, 94.97%)</title><rect x="69.4" y="339.0" width="1120.6" height="15" fill="#69fa69" rx="2" ry="2"/>
<text x="72.4" y="350.0">java/util/concurrent/Executors$RunnableAdapter.call</text>
</g>
<g>
<title>java/util/concurrent/FutureTask.run (2,660 samples, 94.97%)</title><rect x="69.4" y="323.0" width="1120.6" height="15" fill="#62f362" rx="2" ry="2"/>
<text x="72.4" y="334.0">java/util/concurrent/FutureTask.run</text>
</g>
<g>
<title>org/openjdk/jmh/runner/BenchmarkHandler$BenchmarkTask.call (2,660 samples, 94.97%)</title><rect x="69.4" y="307.0" width="1120.6" height="15" fill="#58e958" rx="2" ry="2"/>
<text x="72.4" y="318.0">org/openjdk/jmh/runner/BenchmarkHandler$BenchmarkTask.call</text>
</g>
<g>
<title>org/openjdk/jmh/runner/BenchmarkHandler$BenchmarkTask.call (2,660 samples, 94.97%)</title><rect x="69.4" y="291.0" width="1120.6" height="15" fill="#63f463" rx="2" ry="2"/>
<text x="72.4" y="302.0">org/openjdk/jmh/runner/BenchmarkHandler$BenchmarkTask.call</text>
</g>
<g>
<title>java/lang/reflect/Method.invoke (2,660 samples, 94.97%)</title><rect x="69.4" y="275.0" width="1120.6" height="15" fill="#5ff05f" rx="2" ry="2"/>
<text x="72.4" y="286.0">java/lang/reflect/Method.invoke</text>
</g>
<g>
<title>jdk/internal/reflect/DelegatingMethodAccessorImpl.invoke (2,660 samples, 94.97%)</title><rect x="69.4" y="259.0" width="1120.6" height="15" fill="#5eef5e" rx="2" ry="2"/>
<text x="72.4" y="270.0">jdk/internal/reflect/DelegatingMethodAccessorImpl.invoke</text>
</g>
<g>
<title>jdk/internal/reflect/NativeMethodAccessorImpl.invoke (2,660 samples, 94.97%)</title><rect x="69.4" y="243.0" width="1120.6" height="15" fill="#6dfe6d" rx="2" ry="2"/>
<text x="72.4" y="254.0">jdk/internal/reflect/NativeMethodAccessorImpl.invoke</text>
</g>
<g>
<title>jdk/internal/reflect/NativeMethodAccessorImpl.invoke0 (2,660 samples, 94.97%)</title><rect x="69.4" y="227.0" width="1120.6" height="15" fill="#58e958" rx="2" ry="2"/>
<text x="72.4" y="238.0">jdk/internal/reflect/NativeMethodAccessorImpl.invoke0</text>
</g>
<g>
<title>com/sun/glass/ui/monocle/generated/Benchmarks_writeTo16New_jmhTest.writeTo16New_Throughput (2,660 samples, 94.97%)</title><rect x="69.4" y="211.0" width="1120.6" height="15" fill="#67f867" rx="2" ry="2"/>
<text x="72.4" y="222.0">com/sun/glass/ui/monocle/generated/Benchmarks_writeTo16New_jmhTest.writeTo16New_Throughput</text>
</g>
<g>
<title>com/sun/glass/ui/monocle/generated/Benchmarks_writeTo16New_jmhTest.writeTo16New_thrpt_jmhStub (2,660 samples, 94.97%)</title><rect x="69.4" y="195.0" width="1120.6" height="15" fill="#5ff05f" rx="2" ry="2"/>
<text x="72.4" y="206.0">com/sun/glass/ui/monocle/generated/Benchmarks_writeTo16New_jmhTest.writeTo16New_thrpt_jmhStub</text>
</g>
<g>
<title>com/sun/glass/ui/monocle/Benchmarks.writeTo16New (2,660 samples, 94.97%)</title><rect x="69.4" y="179.0" width="1120.6" height="15" fill="#67f867" rx="2" ry="2"/>
<text x="72.4" y="190.0">com/sun/glass/ui/monocle/Benchmarks.writeTo16New</text>
</g>
<g>
<title>com/sun/glass/ui/monocle/FramebufferY8.write (2,660 samples, 94.97%)</title><rect x="69.4" y="163.0" width="1120.6" height="15" fill="#5ced5c" rx="2" ry="2"/>
<text x="72.4" y="174.0">com/sun/glass/ui/monocle/FramebufferY8.write</text>
</g>
<g>
<title>/usr/lib/jvm/java-14-openjdk-armhf/lib/server/libjvm.so (23 samples, 0.82%)</title><rect x="1159.2" y="147.0" width="9.7" height="15" fill="#fb7d7d" rx="2" ry="2"/>
<text x="1162.2" y="158.0"></text>
</g>
<g>
<title>[unknown] (5 samples, 0.18%)</title><rect x="1168.9" y="147.0" width="2.1" height="15" fill="#e96565" rx="2" ry="2"/>
<text x="1171.9" y="158.0"></text>
</g>
<g>
<title>/usr/lib/jvm/java-14-openjdk-armhf/lib/server/libjvm.so (2 samples, 0.07%)</title><rect x="1168.9" y="131.0" width="0.9" height="15" fill="#eb6868" rx="2" ry="2"/>
<text x="1171.9" y="142.0"></text>
</g>
<g>
<title>[unknown] (2 samples, 0.07%)</title><rect x="1169.8" y="131.0" width="0.8" height="15" fill="#f97a7a" rx="2" ry="2"/>
<text x="1172.8" y="142.0"></text>
</g>
<g>
<title>/usr/lib/jvm/java-14-openjdk-armhf/lib/server/libjvm.so (2 samples, 0.07%)</title><rect x="1169.8" y="115.0" width="0.8" height="15" fill="#fc7e7e" rx="2" ry="2"/>
<text x="1172.8" y="126.0"></text>
</g>
<g>
<title>__tls_get_addr (1 samples, 0.04%)</title><rect x="1170.6" y="131.0" width="0.4" height="15" fill="#e35c5c" rx="2" ry="2"/>
<text x="1173.6" y="142.0"></text>
</g>
<g>
<title>__irq_usr (1 samples, 0.04%)</title><rect x="1171.0" y="147.0" width="0.5" height="15" fill="#fd9900" rx="2" ry="2"/>
<text x="1174.0" y="158.0"></text>
</g>
<g>
<title>gic_handle_irq (1 samples, 0.04%)</title><rect x="1171.0" y="131.0" width="0.5" height="15" fill="#f08c00" rx="2" ry="2"/>
<text x="1174.0" y="142.0"></text>
</g>
<g>
<title>__handle_domain_irq (1 samples, 0.04%)</title><rect x="1171.0" y="115.0" width="0.5" height="15" fill="#e37f00" rx="2" ry="2"/>
<text x="1174.0" y="126.0"></text>
</g>
<g>
<title>irq_exit (1 samples, 0.04%)</title><rect x="1171.0" y="99.0" width="0.5" height="15" fill="#e68200" rx="2" ry="2"/>
<text x="1174.0" y="110.0"></text>
</g>
<g>
<title>__do_softirq (1 samples, 0.04%)</title><rect x="1171.0" y="83.0" width="0.5" height="15" fill="#f49000" rx="2" ry="2"/>
<text x="1174.0" y="94.0"></text>
</g>
<g>
<title>tasklet_action (1 samples, 0.04%)</title><rect x="1171.0" y="67.0" width="0.5" height="15" fill="#fb9700" rx="2" ry="2"/>
<text x="1174.0" y="78.0"></text>
</g>
<g>
<title>sdhci_tasklet_finish (1 samples, 0.04%)</title><rect x="1171.0" y="51.0" width="0.5" height="15" fill="#eb8700" rx="2" ry="2"/>
<text x="1174.0" y="62.0"></text>
</g>
<g>
<title>_raw_spin_unlock_irqrestore (1 samples, 0.04%)</title><rect x="1171.0" y="35.0" width="0.5" height="15" fill="#e27e00" rx="2" ry="2"/>
<text x="1174.0" y="46.0"></text>
</g>
<g>
<title>__tls_get_addr (2 samples, 0.07%)</title><rect x="1171.5" y="147.0" width="0.8" height="15" fill="#e15a5a" rx="2" ry="2"/>
<text x="1174.5" y="158.0"></text>
</g>
<g>
<title>java/nio/DirectByteBuffer.asIntBuffer (1 samples, 0.04%)</title><rect x="1172.3" y="147.0" width="0.4" height="15" fill="#5dee5d" rx="2" ry="2"/>
<text x="1175.3" y="158.0"></text>
</g>
<g>
<title>java/nio/DirectIntBufferU.&lt;init&gt; (1 samples, 0.04%)</title><rect x="1172.3" y="131.0" width="0.4" height="15" fill="#51e251" rx="2" ry="2"/>
<text x="1175.3" y="142.0"></text>
</g>
<g>
<title>java/nio/IntBuffer.&lt;init&gt; (1 samples, 0.04%)</title><rect x="1172.3" y="115.0" width="0.4" height="15" fill="#57e857" rx="2" ry="2"/>
<text x="1175.3" y="126.0"></text>
</g>
<g>
<title>java/nio/IntBuffer.&lt;init&gt; (1 samples, 0.04%)</title><rect x="1172.3" y="99.0" width="0.4" height="15" fill="#6dfe6d" rx="2" ry="2"/>
<text x="1175.3" y="110.0"></text>
</g>
<g>
<title>java/nio/Buffer.&lt;init&gt; (1 samples, 0.04%)</title><rect x="1172.3" y="83.0" width="0.4" height="15" fill="#6bfc6b" rx="2" ry="2"/>
<text x="1175.3" y="94.0"></text>
</g>
<g>
<title>java/nio/MappedByteBuffer.clear (1 samples, 0.04%)</title><rect x="1172.7" y="147.0" width="0.4" height="15" fill="#69fa69" rx="2" ry="2"/>
<text x="1175.7" y="158.0"></text>
</g>
<g>
<title>java/nio/MappedByteBuffer.clear (1 samples, 0.04%)</title><rect x="1172.7" y="131.0" width="0.4" height="15" fill="#57e857" rx="2" ry="2"/>
<text x="1175.7" y="142.0"></text>
</g>
<g>
<title>java/nio/ByteBuffer.clear (1 samples, 0.04%)</title><rect x="1172.7" y="115.0" width="0.4" height="15" fill="#60f160" rx="2" ry="2"/>
<text x="1175.7" y="126.0"></text>
</g>
<g>
<title>java/nio/Buffer.clear (1 samples, 0.04%)</title><rect x="1172.7" y="99.0" width="0.4" height="15" fill="#5bec5b" rx="2" ry="2"/>
<text x="1175.7" y="110.0"></text>
</g>
<g>
<title>java/nio/channels/Channels$WritableByteChannelImpl.write (36 samples, 1.29%)</title><rect x="1173.1" y="147.0" width="15.2" height="15" fill="#66f766" rx="2" ry="2"/>
<text x="1176.1" y="158.0"></text>
</g>
<g>
<title>java/io/ByteArrayOutputStream.write (15 samples, 0.54%)</title><rect x="1173.6" y="131.0" width="6.3" height="15" fill="#5ff05f" rx="2" ry="2"/>
<text x="1176.6" y="142.0"></text>
</g>
<g>
<title>java/io/ByteArrayOutputStream.ensureCapacity (6 samples, 0.21%)</title><rect x="1173.6" y="115.0" width="2.5" height="15" fill="#64f564" rx="2" ry="2"/>
<text x="1176.6" y="126.0"></text>
</g>
<g>
<title>java/util/Objects.checkFromIndexSize (9 samples, 0.32%)</title><rect x="1176.1" y="115.0" width="3.8" height="15" fill="#5ff05f" rx="2" ry="2"/>
<text x="1179.1" y="126.0"></text>
</g>
<g>
<title>jdk/internal/util/Preconditions.checkFromIndexSize (9 samples, 0.32%)</title><rect x="1176.1" y="99.0" width="3.8" height="15" fill="#51e251" rx="2" ry="2"/>
<text x="1179.1" y="110.0"></text>
</g>
<g>
<title>java/nio/HeapByteBuffer.get (4 samples, 0.14%)</title><rect x="1179.9" y="131.0" width="1.7" height="15" fill="#5dee5d" rx="2" ry="2"/>
<text x="1182.9" y="142.0"></text>
</g>
<g>
<title>java/nio/Buffer.checkSegment (4 samples, 0.14%)</title><rect x="1179.9" y="115.0" width="1.7" height="15" fill="#6bfc6b" rx="2" ry="2"/>
<text x="1182.9" y="126.0"></text>
</g>
<g>
<title>java/nio/channels/spi/AbstractInterruptibleChannel.begin (11 samples, 0.39%)</title><rect x="1181.6" y="131.0" width="4.6" height="15" fill="#6bfc6b" rx="2" ry="2"/>
<text x="1184.6" y="142.0"></text>
</g>
<g>
<title>java/nio/channels/spi/AbstractInterruptibleChannel.blockedOn (9 samples, 0.32%)</title><rect x="1182.4" y="115.0" width="3.8" height="15" fill="#65f665" rx="2" ry="2"/>
<text x="1185.4" y="126.0"></text>
</g>
<g>
<title>java/lang/System$2.blockedOn (9 samples, 0.32%)</title><rect x="1182.4" y="99.0" width="3.8" height="15" fill="#58e958" rx="2" ry="2"/>
<text x="1185.4" y="110.0"></text>
</g>
<g>
<title>java/lang/Thread.blockedOn (9 samples, 0.32%)</title><rect x="1182.4" y="83.0" width="3.8" height="15" fill="#66f766" rx="2" ry="2"/>
<text x="1185.4" y="94.0"></text>
</g>
<g>
<title>java/nio/channels/spi/AbstractInterruptibleChannel.end (5 samples, 0.18%)</title><rect x="1186.2" y="131.0" width="2.1" height="15" fill="#63f463" rx="2" ry="2"/>
<text x="1189.2" y="142.0"></text>
</g>
<g>
<title>java/nio/channels/spi/AbstractInterruptibleChannel.blockedOn (3 samples, 0.11%)</title><rect x="1187.1" y="115.0" width="1.2" height="15" fill="#5aeb5a" rx="2" ry="2"/>
<text x="1190.1" y="126.0"></text>
</g>
<g>
<title>java/lang/System$2.blockedOn (3 samples, 0.11%)</title><rect x="1187.1" y="99.0" width="1.2" height="15" fill="#64f564" rx="2" ry="2"/>
<text x="1190.1" y="110.0"></text>
</g>
<g>
<title>java/lang/Thread.blockedOn (3 samples, 0.11%)</title><rect x="1187.1" y="83.0" width="1.2" height="15" fill="#54e554" rx="2" ry="2"/>
<text x="1190.1" y="94.0"></text>
</g>
<g>
<title>ret_to_user (1 samples, 0.04%)</title><rect x="1188.3" y="147.0" width="0.4" height="15" fill="#ee8a00" rx="2" ry="2"/>
<text x="1191.3" y="158.0"></text>
</g>
<g>
<title>work_pending (3 samples, 0.11%)</title><rect x="1188.7" y="147.0" width="1.3" height="15" fill="#fb9700" rx="2" ry="2"/>
<text x="1191.7" y="158.0"></text>
</g>
<g>
<title>do_work_pending (3 samples, 0.11%)</title><rect x="1188.7" y="131.0" width="1.3" height="15" fill="#f99500" rx="2" ry="2"/>
<text x="1191.7" y="142.0"></text>
</g>
<g>
<title>schedule (3 samples, 0.11%)</title><rect x="1188.7" y="115.0" width="1.3" height="15" fill="#ea8600" rx="2" ry="2"/>
<text x="1191.7" y="126.0"></text>
</g>
<g>
<title>__schedule (3 samples, 0.11%)</title><rect x="1188.7" y="99.0" width="1.3" height="15" fill="#e78300" rx="2" ry="2"/>
<text x="1191.7" y="110.0"></text>
</g>
<g>
<title>finish_task_switch (3 samples, 0.11%)</title><rect x="1188.7" y="83.0" width="1.3" height="15" fill="#fb9700" rx="2" ry="2"/>
<text x="1191.7" y="94.0"></text>
</g>
<g>
<title>_raw_spin_unlock_irq (3 samples, 0.11%)</title><rect x="1188.7" y="67.0" width="1.3" height="15" fill="#eb8700" rx="2" ry="2"/>
<text x="1191.7" y="78.0"></text>
</g>
</g>
</svg>
